<svg xmlns="http://www.w3.org/2000/svg" xmlns:xlink="http://www.w3.org/1999/xlink" width="220" zoomAndPan="magnify" viewBox="0 0 165 37.5" height="50" preserveAspectRatio="xMidYMid meet" version="1.0"><defs><g/><clipPath id="id1"><path d="M 99 23 L 123.566406 23 L 123.566406 28.480469 L 99 28.480469 Z M 99 23 " clip-rule="nonzero"/></clipPath><clipPath id="id2"><path d="M 98.859375 3.777344 L 123.566406 3.777344 L 123.566406 28.480469 L 98.859375 28.480469 Z M 98.859375 3.777344 " clip-rule="nonzero"/></clipPath></defs><path stroke-linecap="butt" transform="matrix(0.634739, -0.000000000000000081, 0.000000000000000081, 0.633451, 49.175509, 11.545062)" fill="none" stroke-linejoin="miter" d="M 0.000429668 0.00286217 L 76.846699 0.00286217 " stroke="#3a2f2e" stroke-width="1" stroke-opacity="1" stroke-miterlimit="4"/><g clip-path="url(#id1)"><path fill="#89d1ff" d="M 118.65625 27.65625 C 116.601562 28.023438 114.019531 28.246094 111.210938 28.246094 C 104.523438 28.246094 99.097656 26.996094 99.097656 25.453125 C 99.097656 24.480469 101.257812 23.625 104.535156 23.125 C 105.742188 24.535156 107.914062 25.851562 111.664062 25.851562 C 114.679688 25.851562 116.570312 24.6875 117.746094 23.101562 C 121.101562 23.597656 123.328125 24.464844 123.328125 25.453125 C 123.328125 26.347656 121.5 27.144531 118.65625 27.65625 Z M 118.65625 27.65625 " fill-opacity="1" fill-rule="nonzero"/></g><g clip-path="url(#id2)"><path fill="#3a2f2e" d="M 121.90625 23.871094 C 120.988281 23.488281 119.6875 23.160156 118.128906 22.914062 C 118.554688 22.273438 118.902344 21.539062 119.167969 20.722656 C 119.464844 19.8125 119.660156 18.792969 119.753906 17.695312 C 119.910156 15.835938 119.710938 14.410156 119.703125 14.347656 C 119.6875 14.238281 119.582031 14.15625 119.46875 14.175781 C 119.355469 14.191406 119.277344 14.296875 119.296875 14.410156 C 119.296875 14.421875 119.496094 15.847656 119.34375 17.664062 C 119.207031 19.328125 118.734375 21.671875 117.273438 23.363281 C 115.96875 24.875 114.082031 25.644531 111.664062 25.644531 C 106.964844 25.644531 104.921875 23.550781 104.078125 22.132812 C 104.070312 22.125 104.066406 22.117188 104.0625 22.109375 C 104.34375 22.027344 104.664062 21.898438 104.960938 21.742188 C 105.363281 21.527344 105.917969 21.15625 106.296875 20.613281 C 106.675781 20.066406 106.785156 19.472656 106.632812 18.847656 C 106.503906 18.328125 106.199219 18 105.796875 17.953125 C 105.4375 17.910156 105.066406 18.09375 104.761719 18.449219 C 104.632812 18.03125 104.359375 17.707031 103.996094 17.585938 C 103.539062 17.433594 103.046875 17.636719 102.683594 18.128906 C 101.941406 19.140625 102.789062 20.734375 103.398438 21.789062 C 103.089844 21.773438 102.75 21.65625 102.410156 21.445312 C 100.941406 20.546875 99.34375 18.351562 99.304688 16.519531 C 99.292969 15.929688 99.375 15.347656 99.539062 14.878906 C 99.726562 14.335938 100.019531 13.949219 100.398438 13.734375 C 100.742188 13.542969 101.164062 13.492188 101.648438 13.582031 C 102.222656 13.683594 102.894531 13.984375 103.640625 14.46875 C 104.371094 14.945312 105.300781 15.324219 106.410156 15.589844 C 107.429688 15.835938 108.566406 15.984375 109.792969 16.035156 C 110.074219 16.042969 110.359375 16.050781 110.640625 16.050781 C 112.707031 16.050781 114.78125 15.761719 116.4375 15.238281 C 117.613281 14.867188 119.105469 14.203125 119.53125 13.152344 C 119.632812 12.90625 119.671875 12.535156 119.296875 12.164062 C 118.867188 11.738281 117.949219 11.398438 116.570312 11.152344 C 115.367188 10.941406 113.863281 10.808594 112.21875 10.773438 C 111.578125 10.761719 110.933594 10.765625 110.296875 10.78125 C 110.453125 10.382812 110.816406 10.117188 111.269531 9.789062 C 111.816406 9.390625 112.5 8.894531 112.984375 7.988281 C 113.363281 7.28125 113.492188 6.535156 113.363281 5.832031 C 113.246094 5.191406 112.914062 4.632812 112.433594 4.257812 C 112.023438 3.9375 111.539062 3.777344 111.039062 3.800781 C 110.5 3.824219 109.96875 4.0625 109.503906 4.488281 C 109.085938 4.875 108.859375 5.339844 108.855469 5.839844 C 108.847656 6.261719 109 6.6875 109.285156 7.039062 C 109.789062 7.660156 110.523438 7.839844 111.027344 7.472656 C 111.117188 7.40625 111.140625 7.277344 111.074219 7.183594 C 111.007812 7.089844 110.878906 7.070312 110.785156 7.136719 C 110.417969 7.40625 109.914062 7.160156 109.605469 6.777344 C 109.214844 6.296875 109.027344 5.488281 109.78125 4.792969 C 110.6875 3.960938 111.613281 4.140625 112.183594 4.585938 C 112.914062 5.15625 113.363281 6.40625 112.621094 7.792969 C 112.183594 8.617188 111.570312 9.0625 111.03125 9.453125 C 110.515625 9.828125 110.019531 10.1875 109.859375 10.796875 C 109.085938 10.824219 108.335938 10.875 107.648438 10.949219 C 106.164062 11.101562 105.007812 11.34375 104.300781 11.644531 C 103.710938 11.898438 103.410156 12.207031 103.414062 12.566406 C 103.417969 12.890625 103.640625 13.179688 104.070312 13.421875 C 104.636719 13.742188 105.582031 13.996094 106.875 14.179688 C 108.023438 14.339844 109.382812 14.429688 110.804688 14.445312 C 113.082031 14.464844 116.113281 14.265625 117.171875 13.632812 C 117.453125 13.464844 117.59375 13.265625 117.589844 13.039062 C 117.585938 12.84375 117.515625 12.679688 117.375 12.554688 C 116.90625 12.117188 115.703125 12.195312 114.308594 12.289062 C 113.320312 12.355469 112.300781 12.421875 111.507812 12.308594 C 110.417969 12.148438 110.253906 11.707031 110.222656 11.386719 C 110.21875 11.320312 110.214844 11.257812 110.21875 11.195312 C 110.863281 11.175781 111.535156 11.175781 112.210938 11.1875 C 113.835938 11.222656 115.316406 11.351562 116.5 11.558594 C 118.113281 11.847656 118.753906 12.207031 119.011719 12.460938 C 119.1875 12.632812 119.230469 12.800781 119.152344 12.996094 C 118.867188 13.699219 117.859375 14.355469 116.316406 14.84375 C 114.476562 15.425781 112.105469 15.707031 109.8125 15.621094 C 107.3125 15.523438 105.199219 14.992188 103.863281 14.121094 C 102.328125 13.125 101.097656 12.871094 100.199219 13.375 C 99.730469 13.640625 99.375 14.101562 99.152344 14.742188 C 98.921875 15.398438 98.882812 16.074219 98.894531 16.527344 C 98.921875 17.746094 99.515625 18.875 100.007812 19.609375 C 100.628906 20.527344 101.425781 21.328125 102.195312 21.796875 C 102.6875 22.101562 103.183594 22.238281 103.636719 22.195312 C 103.769531 22.425781 103.929688 22.683594 104.128906 22.945312 C 102.628906 23.195312 101.371094 23.519531 100.480469 23.898438 C 99.40625 24.351562 98.859375 24.875 98.859375 25.453125 C 98.859375 25.921875 99.222656 26.359375 99.9375 26.75 C 100.566406 27.089844 101.460938 27.398438 102.59375 27.660156 C 104.898438 28.191406 107.960938 28.484375 111.214844 28.484375 C 114.464844 28.484375 117.527344 28.191406 119.832031 27.660156 C 120.964844 27.398438 121.859375 27.089844 122.488281 26.75 C 123.203125 26.359375 123.566406 25.921875 123.566406 25.453125 C 123.566406 24.863281 123.007812 24.332031 121.90625 23.871094 Z M 110.347656 12.339844 C 110.617188 12.527344 110.976562 12.648438 111.449219 12.71875 C 112.285156 12.839844 113.328125 12.769531 114.335938 12.703125 C 114.988281 12.65625 115.605469 12.617188 116.109375 12.632812 C 116.621094 12.648438 116.953125 12.722656 117.097656 12.855469 C 117.152344 12.90625 117.175781 12.964844 117.179688 13.042969 C 117.179688 13.109375 117.097656 13.195312 116.960938 13.28125 C 116.164062 13.757812 113.691406 14.058594 110.808594 14.03125 C 107.785156 14.003906 105.28125 13.632812 104.269531 13.0625 C 104.070312 12.949219 103.828125 12.769531 103.824219 12.5625 C 103.824219 12.394531 104.054688 12.199219 104.460938 12.027344 C 105.460938 11.597656 107.464844 11.300781 109.804688 11.210938 C 109.804688 11.277344 109.808594 11.347656 109.8125 11.421875 C 109.847656 11.808594 110.027344 12.121094 110.347656 12.339844 Z M 103.015625 18.375 C 103.21875 18.097656 103.457031 17.949219 103.691406 17.949219 C 103.75 17.949219 103.808594 17.957031 103.863281 17.976562 C 104.203125 18.089844 104.433594 18.515625 104.429688 19.007812 C 104.429688 19.101562 104.492188 19.1875 104.585938 19.207031 C 104.675781 19.230469 104.773438 19.1875 104.816406 19.105469 C 105.070312 18.617188 105.4375 18.324219 105.746094 18.363281 C 105.972656 18.390625 106.144531 18.597656 106.234375 18.949219 C 106.359375 19.453125 106.265625 19.933594 105.957031 20.375 C 105.4375 21.128906 104.429688 21.59375 103.847656 21.738281 C 103.285156 20.777344 102.394531 19.222656 103.015625 18.375 Z M 122.261719 26.328125 C 121.671875 26.652344 120.816406 26.941406 119.726562 27.195312 C 117.453125 27.71875 114.429688 28.003906 111.210938 28.003906 C 107.992188 28.003906 104.96875 27.71875 102.699219 27.195312 C 101.609375 26.941406 100.753906 26.652344 100.164062 26.328125 C 99.621094 26.035156 99.335938 25.730469 99.335938 25.453125 C 99.335938 25.09375 99.808594 24.699219 100.664062 24.339844 C 101.574219 23.953125 102.894531 23.621094 104.480469 23.375 C 105.65625 24.6875 107.808594 26.054688 111.664062 26.054688 C 114.207031 26.054688 116.199219 25.242188 117.585938 23.632812 C 117.664062 23.539062 117.742188 23.445312 117.816406 23.347656 C 119.441406 23.589844 120.792969 23.925781 121.726562 24.3125 C 122.605469 24.679688 123.089844 25.085938 123.089844 25.453125 C 123.089844 25.730469 122.804688 26.035156 122.261719 26.328125 Z M 122.261719 26.328125 " fill-opacity="1" fill-rule="nonzero"/></g><path stroke-linecap="butt" transform="matrix(0.637223, 0, 0, 0.633451, 68.398193, 28.453898)" fill="none" stroke-linejoin="miter" d="M 0.000383307 -0.00121982 L 65.623297 -0.00121982 " stroke="#3a2f2e" stroke-width="1" stroke-opacity="1" stroke-miterlimit="4"/><g fill="#3a2f2e" fill-opacity="1"><g transform="translate(50.522426, 23.92597)"><g><path d="M 3.4375 -9.671875 C 4.351562 -9.671875 5.210938 -9.484375 6.015625 -9.109375 L 6.015625 -8.453125 C 5.191406 -8.890625 4.347656 -9.109375 3.484375 -9.109375 C 2.910156 -9.109375 2.429688 -8.976562 2.046875 -8.71875 C 1.671875 -8.46875 1.484375 -8.054688 1.484375 -7.484375 C 1.484375 -6.503906 2.148438 -5.796875 3.484375 -5.359375 C 4.484375 -5.035156 5.195312 -4.640625 5.625 -4.171875 C 6.0625 -3.710938 6.28125 -3.125 6.28125 -2.40625 C 6.28125 -1.582031 6.035156 -0.953125 5.546875 -0.515625 C 5.054688 -0.0859375 4.347656 0.125 3.421875 0.125 C 2.523438 0.125 1.695312 -0.0976562 0.9375 -0.546875 L 0.9375 -1.21875 C 1.675781 -0.695312 2.488281 -0.4375 3.375 -0.4375 C 4.101562 -0.4375 4.65625 -0.601562 5.03125 -0.9375 C 5.414062 -1.28125 5.609375 -1.769531 5.609375 -2.40625 C 5.609375 -2.96875 5.4375 -3.429688 5.09375 -3.796875 C 4.75 -4.160156 4.195312 -4.472656 3.4375 -4.734375 C 1.695312 -5.296875 0.828125 -6.210938 0.828125 -7.484375 C 0.828125 -8.171875 1.050781 -8.707031 1.5 -9.09375 C 1.957031 -9.476562 2.601562 -9.671875 3.4375 -9.671875 Z M 3.4375 -9.671875 "/></g></g></g><g fill="#3a2f2e" fill-opacity="1"><g transform="translate(57.992667, 23.92597)"><g><path d="M 1.625 -6.78125 L 1.640625 -5.59375 L 1.65625 -5.59375 C 2.289062 -6.476562 3.070312 -6.921875 4 -6.921875 C 4.789062 -6.921875 5.359375 -6.703125 5.703125 -6.265625 C 6.054688 -5.828125 6.234375 -5.085938 6.234375 -4.046875 L 6.234375 0 L 5.625 0 L 5.625 -3.984375 C 5.625 -4.921875 5.484375 -5.554688 5.203125 -5.890625 C 4.929688 -6.234375 4.484375 -6.40625 3.859375 -6.40625 C 3.367188 -6.40625 2.875 -6.164062 2.375 -5.6875 C 1.882812 -5.207031 1.640625 -4.726562 1.640625 -4.25 L 1.640625 0 L 1.015625 0 L 1.015625 -6.78125 Z M 1.625 -6.78125 "/></g></g></g><g fill="#3a2f2e" fill-opacity="1"><g transform="translate(65.564943, 23.92597)"><g><path d="M 5.484375 -6.78125 L 6.109375 -6.78125 L 6.109375 0 L 5.515625 0 L 5.5 -1.203125 L 5.46875 -1.203125 C 5.195312 -0.773438 4.859375 -0.445312 4.453125 -0.21875 C 4.046875 0.0078125 3.609375 0.125 3.140625 0.125 C 2.390625 0.125 1.835938 -0.078125 1.484375 -0.484375 C 1.128906 -0.890625 0.953125 -1.570312 0.953125 -2.53125 L 0.953125 -6.78125 L 1.5625 -6.78125 L 1.5625 -2.59375 C 1.5625 -1.738281 1.695312 -1.15625 1.96875 -0.84375 C 2.25 -0.539062 2.679688 -0.390625 3.265625 -0.390625 C 3.796875 -0.390625 4.296875 -0.613281 4.765625 -1.0625 C 5.242188 -1.507812 5.484375 -2.003906 5.484375 -2.546875 Z M 5.484375 -6.78125 "/></g></g></g><g fill="#3a2f2e" fill-opacity="1"><g transform="translate(73.073447, 23.92597)"><g><path d="M 2.953125 2.484375 C 3.742188 2.484375 4.363281 2.328125 4.8125 2.015625 C 5.269531 1.710938 5.5 1.304688 5.5 0.796875 C 5.5 -0.148438 4.753906 -0.625 3.265625 -0.625 C 2.316406 -0.625 1.632812 -0.722656 1.21875 -0.921875 C 0.800781 -1.128906 0.59375 -1.457031 0.59375 -1.90625 C 0.59375 -2.257812 0.765625 -2.597656 1.109375 -2.921875 C 0.660156 -3.316406 0.4375 -3.851562 0.4375 -4.53125 C 0.4375 -5.238281 0.664062 -5.8125 1.125 -6.25 C 1.59375 -6.695312 2.191406 -6.921875 2.921875 -6.921875 C 3.984375 -6.921875 4.773438 -6.59375 5.296875 -5.9375 L 5.3125 -5.9375 L 5.328125 -6.78125 L 5.921875 -6.78125 L 5.921875 -4.53125 C 5.921875 -3.8125 5.679688 -3.253906 5.203125 -2.859375 C 4.722656 -2.460938 4.046875 -2.265625 3.171875 -2.265625 C 2.515625 -2.265625 1.96875 -2.382812 1.53125 -2.625 C 1.28125 -2.394531 1.15625 -2.175781 1.15625 -1.96875 C 1.15625 -1.789062 1.203125 -1.648438 1.296875 -1.546875 C 1.390625 -1.441406 1.601562 -1.347656 1.9375 -1.265625 C 2.269531 -1.179688 2.734375 -1.140625 3.328125 -1.140625 C 5.191406 -1.140625 6.125 -0.507812 6.125 0.75 C 6.125 1.425781 5.84375 1.972656 5.28125 2.390625 C 4.726562 2.804688 3.953125 3.015625 2.953125 3.015625 C 2.054688 3.015625 1.21875 2.832031 0.4375 2.46875 L 0.4375 1.859375 C 1.207031 2.273438 2.046875 2.484375 2.953125 2.484375 Z M 1.046875 -4.515625 C 1.046875 -3.960938 1.234375 -3.523438 1.609375 -3.203125 C 1.984375 -2.890625 2.5 -2.734375 3.15625 -2.734375 C 3.8125 -2.734375 4.328125 -2.890625 4.703125 -3.203125 C 5.078125 -3.523438 5.265625 -3.960938 5.265625 -4.515625 C 5.265625 -5.097656 5.0625 -5.5625 4.65625 -5.90625 C 4.257812 -6.25 3.726562 -6.421875 3.0625 -6.421875 C 2.46875 -6.421875 1.984375 -6.242188 1.609375 -5.890625 C 1.234375 -5.546875 1.046875 -5.085938 1.046875 -4.515625 Z M 1.046875 -4.515625 "/></g></g></g><g fill="#3a2f2e" fill-opacity="1"><g transform="translate(80.071775, 23.92597)"><g><path d="M 2.953125 2.484375 C 3.742188 2.484375 4.363281 2.328125 4.8125 2.015625 C 5.269531 1.710938 5.5 1.304688 5.5 0.796875 C 5.5 -0.148438 4.753906 -0.625 3.265625 -0.625 C 2.316406 -0.625 1.632812 -0.722656 1.21875 -0.921875 C 0.800781 -1.128906 0.59375 -1.457031 0.59375 -1.90625 C 0.59375 -2.257812 0.765625 -2.597656 1.109375 -2.921875 C 0.660156 -3.316406 0.4375 -3.851562 0.4375 -4.53125 C 0.4375 -5.238281 0.664062 -5.8125 1.125 -6.25 C 1.59375 -6.695312 2.191406 -6.921875 2.921875 -6.921875 C 3.984375 -6.921875 4.773438 -6.59375 5.296875 -5.9375 L 5.3125 -5.9375 L 5.328125 -6.78125 L 5.921875 -6.78125 L 5.921875 -4.53125 C 5.921875 -3.8125 5.679688 -3.253906 5.203125 -2.859375 C 4.722656 -2.460938 4.046875 -2.265625 3.171875 -2.265625 C 2.515625 -2.265625 1.96875 -2.382812 1.53125 -2.625 C 1.28125 -2.394531 1.15625 -2.175781 1.15625 -1.96875 C 1.15625 -1.789062 1.203125 -1.648438 1.296875 -1.546875 C 1.390625 -1.441406 1.601562 -1.347656 1.9375 -1.265625 C 2.269531 -1.179688 2.734375 -1.140625 3.328125 -1.140625 C 5.191406 -1.140625 6.125 -0.507812 6.125 0.75 C 6.125 1.425781 5.84375 1.972656 5.28125 2.390625 C 4.726562 2.804688 3.953125 3.015625 2.953125 3.015625 C 2.054688 3.015625 1.21875 2.832031 0.4375 2.46875 L 0.4375 1.859375 C 1.207031 2.273438 2.046875 2.484375 2.953125 2.484375 Z M 1.046875 -4.515625 C 1.046875 -3.960938 1.234375 -3.523438 1.609375 -3.203125 C 1.984375 -2.890625 2.5 -2.734375 3.15625 -2.734375 C 3.8125 -2.734375 4.328125 -2.890625 4.703125 -3.203125 C 5.078125 -3.523438 5.265625 -3.960938 5.265625 -4.515625 C 5.265625 -5.097656 5.0625 -5.5625 4.65625 -5.90625 C 4.257812 -6.25 3.726562 -6.421875 3.0625 -6.421875 C 2.46875 -6.421875 1.984375 -6.242188 1.609375 -5.890625 C 1.234375 -5.546875 1.046875 -5.085938 1.046875 -4.515625 Z M 1.046875 -4.515625 "/></g></g></g><g fill="#3a2f2e" fill-opacity="1"><g transform="translate(87.070103, 23.92597)"><g><path d="M 1.609375 0 L 1.609375 -9.796875 L 2.265625 -9.796875 L 2.265625 0 Z M 1.609375 0 "/></g></g></g><g fill="#3a2f2e" fill-opacity="1"><g transform="translate(91.313485, 23.92597)"><g><path d="M 1.203125 -3.265625 C 1.222656 -1.335938 2.082031 -0.375 3.78125 -0.375 C 4.457031 -0.375 5.125 -0.515625 5.78125 -0.796875 L 5.78125 -0.234375 C 5.070312 0.00390625 4.394531 0.125 3.75 0.125 C 2.707031 0.125 1.914062 -0.164062 1.375 -0.75 C 0.832031 -1.34375 0.5625 -2.222656 0.5625 -3.390625 C 0.5625 -4.660156 0.832031 -5.566406 1.375 -6.109375 C 1.925781 -6.648438 2.632812 -6.921875 3.5 -6.921875 C 5.28125 -6.921875 6.171875 -5.78125 6.171875 -3.5 L 6.171875 -3.265625 Z M 1.203125 -3.78125 L 5.5625 -3.78125 C 5.539062 -5.539062 4.851562 -6.421875 3.5 -6.421875 C 2.050781 -6.421875 1.285156 -5.539062 1.203125 -3.78125 Z M 1.203125 -3.78125 "/></g></g></g><g fill="#3a2f2e" fill-opacity="1"><g transform="translate(73.903032, 32.273681)"><g><path d="M 0.140625 -0.875 L 0.109375 -0.984375 L 0.140625 -1.03125 C 0.191406 -1.070312 0.597656 -1.101562 1.359375 -1.125 L 1.484375 -1.0625 L 1.53125 -0.953125 L 1.484375 -0.890625 C 1.421875 -0.847656 1.003906 -0.828125 0.234375 -0.828125 Z M 0.140625 -0.875 "/></g></g></g><g fill="#3a2f2e" fill-opacity="1"><g transform="translate(75.937727, 32.273681)"><g><path d="M 1.1875 0.109375 C 1.175781 0.0351562 1.203125 -0.015625 1.265625 -0.046875 C 1.367188 -0.0859375 1.457031 -0.144531 1.53125 -0.21875 L 1.59375 -0.328125 C 1.550781 -0.316406 1.507812 -0.3125 1.46875 -0.3125 C 1.375 -0.3125 1.285156 -0.328125 1.203125 -0.359375 C 1.097656 -0.421875 1.019531 -0.492188 0.96875 -0.578125 C 0.925781 -0.660156 0.90625 -0.742188 0.90625 -0.828125 C 0.90625 -0.910156 0.914062 -0.992188 0.9375 -1.078125 C 0.96875 -1.160156 1.003906 -1.234375 1.046875 -1.296875 C 1.097656 -1.347656 1.144531 -1.390625 1.1875 -1.421875 C 1.238281 -1.453125 1.296875 -1.472656 1.359375 -1.484375 C 1.378906 -1.484375 1.40625 -1.484375 1.4375 -1.484375 C 1.5 -1.484375 1.570312 -1.472656 1.65625 -1.453125 L 1.640625 -1.671875 C 0.890625 -1.640625 0.472656 -1.625 0.390625 -1.625 C 0.328125 -1.625 0.273438 -1.648438 0.234375 -1.703125 L 0.1875 -1.734375 L 0.1875 -1.828125 L 0.203125 -1.859375 C 0.316406 -1.890625 0.4375 -1.90625 0.5625 -1.90625 L 0.640625 -1.890625 L 1.625 -1.953125 L 1.609375 -2.40625 L 1.65625 -2.515625 L 1.78125 -2.546875 C 1.8125 -2.546875 1.835938 -2.53125 1.859375 -2.5 C 1.898438 -2.4375 1.925781 -2.375 1.9375 -2.3125 L 1.984375 -1.96875 L 2.640625 -2 L 2.78125 -2.046875 L 2.84375 -2.015625 L 2.96875 -1.96875 L 2.984375 -1.90625 L 2.953125 -1.75 L 2.71875 -1.703125 L 1.984375 -1.671875 L 2 -1.1875 C 2 -1.132812 2 -1.054688 2 -0.953125 C 2 -0.828125 1.992188 -0.710938 1.984375 -0.609375 C 1.972656 -0.503906 1.953125 -0.414062 1.921875 -0.34375 C 1.890625 -0.226562 1.832031 -0.125 1.75 -0.03125 C 1.695312 0.0195312 1.632812 0.0664062 1.5625 0.109375 C 1.488281 0.179688 1.410156 0.21875 1.328125 0.21875 C 1.234375 0.195312 1.1875 0.160156 1.1875 0.109375 Z M 1.59375 -0.609375 C 1.632812 -0.703125 1.65625 -0.796875 1.65625 -0.890625 C 1.65625 -0.960938 1.644531 -1.035156 1.625 -1.109375 C 1.613281 -1.171875 1.570312 -1.203125 1.5 -1.203125 C 1.476562 -1.203125 1.453125 -1.203125 1.421875 -1.203125 C 1.273438 -1.148438 1.203125 -1.03125 1.203125 -0.84375 C 1.203125 -0.738281 1.289062 -0.65625 1.46875 -0.59375 Z M 1.59375 -0.609375 "/></g></g></g><g fill="#3a2f2e" fill-opacity="1"><g transform="translate(79.564516, 32.273681)"><g><path d="M 0.640625 -0.5625 C 0.628906 -0.550781 0.613281 -0.546875 0.59375 -0.546875 C 0.507812 -0.546875 0.453125 -0.582031 0.421875 -0.65625 L 0.421875 -0.765625 C 0.460938 -0.867188 0.519531 -1 0.59375 -1.15625 C 0.644531 -1.28125 0.6875 -1.4375 0.71875 -1.625 C 0.613281 -1.601562 0.492188 -1.582031 0.359375 -1.5625 C 0.265625 -1.550781 0.1875 -1.59375 0.125 -1.6875 L 0.109375 -1.71875 L 0.234375 -1.84375 C 0.335938 -1.863281 0.453125 -1.890625 0.578125 -1.921875 C 0.660156 -1.929688 0.738281 -1.945312 0.8125 -1.96875 L 0.828125 -2.109375 C 0.847656 -2.222656 0.859375 -2.316406 0.859375 -2.390625 C 0.890625 -2.429688 0.929688 -2.453125 0.984375 -2.453125 C 1.046875 -2.441406 1.09375 -2.425781 1.125 -2.40625 C 1.164062 -2.351562 1.1875 -2.300781 1.1875 -2.25 L 1.140625 -2.015625 C 1.398438 -2.066406 1.566406 -2.09375 1.640625 -2.09375 L 1.734375 -2.0625 C 1.773438 -2.039062 1.800781 -2.003906 1.8125 -1.953125 C 1.8125 -1.890625 1.78125 -1.84375 1.71875 -1.8125 C 1.664062 -1.78125 1.585938 -1.765625 1.484375 -1.765625 L 1.078125 -1.6875 C 1.023438 -1.5 0.992188 -1.359375 0.984375 -1.265625 C 0.960938 -1.171875 0.9375 -1.082031 0.90625 -1 C 0.851562 -0.863281 0.816406 -0.769531 0.796875 -0.71875 L 0.703125 -0.609375 Z M 2.8125 -1.421875 C 2.6875 -1.472656 2.578125 -1.519531 2.484375 -1.5625 C 2.390625 -1.601562 2.300781 -1.648438 2.21875 -1.703125 L 2.125 -1.828125 L 2.140625 -1.921875 C 2.242188 -1.941406 2.304688 -1.953125 2.328125 -1.953125 L 2.53125 -1.859375 L 2.84375 -1.75 L 2.9375 -1.703125 C 2.976562 -1.648438 3 -1.597656 3 -1.546875 C 3 -1.492188 2.960938 -1.460938 2.890625 -1.453125 Z M 1.1875 -0.421875 C 1.207031 -0.523438 1.25 -0.617188 1.3125 -0.703125 C 1.363281 -0.734375 1.410156 -0.757812 1.453125 -0.78125 C 1.492188 -0.800781 1.550781 -0.8125 1.625 -0.8125 C 1.664062 -0.8125 1.707031 -0.804688 1.75 -0.796875 L 1.921875 -0.75 C 1.929688 -0.800781 1.9375 -0.859375 1.9375 -0.921875 C 1.9375 -0.984375 1.929688 -1.085938 1.921875 -1.234375 C 1.960938 -1.296875 2.007812 -1.328125 2.0625 -1.328125 C 2.070312 -1.328125 2.082031 -1.320312 2.09375 -1.3125 L 2.171875 -1.28125 L 2.21875 -1.234375 L 2.234375 -1.015625 C 2.234375 -1.003906 2.234375 -0.988281 2.234375 -0.96875 C 2.234375 -0.882812 2.222656 -0.738281 2.203125 -0.53125 C 2.367188 -0.414062 2.46875 -0.316406 2.5 -0.234375 L 2.5625 -0.140625 C 2.570312 -0.117188 2.578125 -0.0976562 2.578125 -0.078125 C 2.578125 -0.0234375 2.546875 0.00390625 2.484375 0.015625 L 2.359375 -0.015625 C 2.285156 -0.078125 2.210938 -0.132812 2.140625 -0.1875 L 2.09375 -0.21875 L 1.984375 -0.0625 C 1.929688 0.0507812 1.828125 0.109375 1.671875 0.109375 C 1.535156 0.0859375 1.414062 0.0351562 1.3125 -0.046875 C 1.21875 -0.140625 1.175781 -0.265625 1.1875 -0.421875 Z M 1.859375 -0.390625 C 1.859375 -0.421875 1.84375 -0.453125 1.8125 -0.484375 C 1.78125 -0.515625 1.726562 -0.535156 1.65625 -0.546875 C 1.539062 -0.535156 1.472656 -0.472656 1.453125 -0.359375 C 1.453125 -0.265625 1.515625 -0.195312 1.640625 -0.15625 C 1.710938 -0.15625 1.769531 -0.191406 1.8125 -0.265625 C 1.84375 -0.304688 1.859375 -0.347656 1.859375 -0.390625 Z M 1.859375 -0.390625 "/></g></g></g><g fill="#3a2f2e" fill-opacity="1"><g transform="translate(83.191304, 32.273681)"><g><path d="M 2.78125 -1.59375 C 2.738281 -1.644531 2.691406 -1.71875 2.640625 -1.8125 L 2.625 -1.921875 C 2.601562 -1.960938 2.59375 -2.015625 2.59375 -2.078125 C 2.59375 -2.109375 2.59375 -2.132812 2.59375 -2.15625 C 2.613281 -2.1875 2.664062 -2.195312 2.75 -2.1875 C 2.8125 -2.125 2.859375 -2.066406 2.890625 -2.015625 L 3.015625 -1.796875 C 3.023438 -1.765625 3.03125 -1.738281 3.03125 -1.71875 C 3.03125 -1.675781 3.015625 -1.640625 2.984375 -1.609375 C 2.953125 -1.578125 2.914062 -1.5625 2.875 -1.5625 Z M 1.546875 0.25 L 1.46875 0.234375 C 1.175781 -0.0859375 0.847656 -0.394531 0.484375 -0.6875 L 0.390625 -0.78125 C 0.359375 -0.832031 0.335938 -0.882812 0.328125 -0.9375 L 0.375 -1.015625 C 0.445312 -1.046875 0.507812 -1.078125 0.5625 -1.109375 C 1.113281 -1.628906 1.429688 -1.953125 1.515625 -2.078125 C 1.566406 -2.128906 1.632812 -2.148438 1.71875 -2.140625 L 1.8125 -2.078125 L 1.828125 -1.96875 C 1.617188 -1.707031 1.414062 -1.488281 1.21875 -1.3125 C 1 -1.113281 0.847656 -0.972656 0.765625 -0.890625 C 1.253906 -0.453125 1.539062 -0.164062 1.625 -0.03125 L 1.703125 0.03125 L 1.765625 0.09375 L 1.765625 0.1875 C 1.703125 0.25 1.644531 0.28125 1.59375 0.28125 Z M 2.25 -1.421875 L 2.140625 -1.609375 C 2.085938 -1.710938 2.046875 -1.8125 2.015625 -1.90625 L 2.03125 -2.015625 C 2.070312 -2.046875 2.113281 -2.0625 2.15625 -2.0625 C 2.164062 -2.0625 2.191406 -2.054688 2.234375 -2.046875 C 2.347656 -1.898438 2.441406 -1.738281 2.515625 -1.5625 C 2.515625 -1.539062 2.515625 -1.515625 2.515625 -1.484375 C 2.515625 -1.460938 2.515625 -1.4375 2.515625 -1.40625 C 2.484375 -1.363281 2.445312 -1.332031 2.40625 -1.3125 C 2.351562 -1.332031 2.300781 -1.367188 2.25 -1.421875 Z M 2.25 -1.421875 "/></g></g></g><g fill="#3a2f2e" fill-opacity="1"><g transform="translate(86.818093, 32.273681)"><g><path d="M 0.953125 -0.21875 C 0.953125 -0.289062 0.972656 -0.367188 1.015625 -0.453125 C 1.066406 -0.523438 1.125 -0.578125 1.1875 -0.609375 C 1.257812 -0.640625 1.332031 -0.65625 1.40625 -0.65625 C 1.46875 -0.65625 1.523438 -0.640625 1.578125 -0.609375 C 1.628906 -0.585938 1.671875 -0.5625 1.703125 -0.53125 C 1.742188 -0.476562 1.765625 -0.398438 1.765625 -0.296875 C 1.765625 -0.273438 1.765625 -0.242188 1.765625 -0.203125 C 1.828125 -0.242188 1.878906 -0.296875 1.921875 -0.359375 C 1.960938 -0.429688 1.984375 -0.507812 1.984375 -0.59375 C 1.984375 -0.644531 1.976562 -0.695312 1.96875 -0.75 C 1.9375 -0.8125 1.867188 -0.863281 1.765625 -0.90625 C 1.671875 -0.957031 1.5625 -0.984375 1.4375 -0.984375 C 1.3125 -0.984375 1.191406 -0.960938 1.078125 -0.921875 L 0.796875 -0.828125 L 0.734375 -0.9375 L 0.71875 -1.015625 C 0.726562 -1.054688 0.75 -1.097656 0.78125 -1.140625 L 0.828125 -1.171875 L 1.828125 -2 L 0.9375 -1.90625 C 0.894531 -1.90625 0.863281 -1.90625 0.84375 -1.90625 C 0.789062 -1.90625 0.742188 -1.910156 0.703125 -1.921875 L 0.59375 -2.046875 L 0.5625 -2.140625 L 0.59375 -2.15625 L 0.671875 -2.203125 C 0.753906 -2.222656 1.222656 -2.257812 2.078125 -2.3125 L 2.25 -2.25 C 2.257812 -2.226562 2.265625 -2.203125 2.265625 -2.171875 C 2.265625 -2.117188 2.242188 -2.050781 2.203125 -1.96875 C 2.203125 -1.9375 1.96875 -1.71875 1.5 -1.3125 C 1.726562 -1.28125 1.898438 -1.21875 2.015625 -1.125 C 2.140625 -1.039062 2.226562 -0.941406 2.28125 -0.828125 C 2.300781 -0.765625 2.3125 -0.695312 2.3125 -0.625 C 2.3125 -0.539062 2.296875 -0.453125 2.265625 -0.359375 C 2.234375 -0.265625 2.1875 -0.179688 2.125 -0.109375 C 2.03125 0.00390625 1.925781 0.0820312 1.8125 0.125 C 1.707031 0.175781 1.609375 0.203125 1.515625 0.203125 C 1.453125 0.203125 1.375 0.195312 1.28125 0.1875 C 1.175781 0.15625 1.09375 0.101562 1.03125 0.03125 C 0.976562 -0.0390625 0.953125 -0.125 0.953125 -0.21875 Z M 1.546875 -0.203125 C 1.546875 -0.304688 1.492188 -0.363281 1.390625 -0.375 C 1.285156 -0.363281 1.234375 -0.296875 1.234375 -0.171875 C 1.285156 -0.117188 1.347656 -0.09375 1.421875 -0.09375 C 1.453125 -0.09375 1.476562 -0.0976562 1.5 -0.109375 Z M 1.546875 -0.203125 "/></g></g></g><g fill="#3a2f2e" fill-opacity="1"><g transform="translate(90.444881, 32.273681)"><g><path d="M 0.140625 -0.875 L 0.109375 -0.984375 L 0.140625 -1.03125 C 0.191406 -1.070312 0.597656 -1.101562 1.359375 -1.125 L 1.484375 -1.0625 L 1.53125 -0.953125 L 1.484375 -0.890625 C 1.421875 -0.847656 1.003906 -0.828125 0.234375 -0.828125 Z M 0.140625 -0.875 "/></g></g></g></svg>