<svg xmlns="http://www.w3.org/2000/svg" xmlns:xlink="http://www.w3.org/1999/xlink" width="220" zoomAndPan="magnify" viewBox="0 0 165 37.5" height="50" preserveAspectRatio="xMidYMid meet" version="1.0"><defs><g/><clipPath id="id1"><path d="M 124.625 28 L 160.890625 28 L 160.890625 36.558594 L 124.625 36.558594 Z M 124.625 28 " clip-rule="nonzero"/></clipPath><clipPath id="id2"><path d="M 124.625 0.289062 L 160.890625 0.289062 L 160.890625 36.558594 L 124.625 36.558594 Z M 124.625 0.289062 " clip-rule="nonzero"/></clipPath></defs><g fill="#545454" fill-opacity="1"><g transform="translate(4.152821, 29.235197)"><g><path d="M 8.019531 -22.558594 C 4.117188 -22.558594 1.921875 -20.667969 1.921875 -17.46875 C 1.921875 -14.542969 3.902344 -12.378906 8.019531 -11.035156 C 11.613281 -9.847656 13.109375 -8.230469 13.109375 -5.640625 C 13.109375 -2.621094 11.28125 -1.007812 7.867188 -1.007812 C 6.128906 -1.007812 2.773438 -1.644531 1.890625 -3.414062 L 1.796875 -3.351562 C 1.949219 -3.046875 2.164062 -2.5 2.164062 -2.074219 L 2.164062 -1.796875 C 2.164062 -1.617188 2.011719 -1.25 1.921875 -1.1875 L 1.980469 -1.066406 C 2.011719 -1.097656 2.105469 -1.128906 2.164062 -1.128906 C 2.316406 -1.128906 2.53125 -1.066406 2.621094 -1.035156 C 4.269531 -0.0898438 5.851562 0.304688 7.957031 0.304688 C 12.285156 0.304688 14.632812 -1.796875 14.632812 -5.640625 C 14.632812 -8.933594 12.863281 -10.976562 8.140625 -12.5 C 5.03125 -13.503906 3.414062 -15.242188 3.414062 -17.46875 C 3.414062 -20.394531 5.761719 -21.25 8.109375 -21.25 C 9.632812 -21.25 13.445312 -20.699219 14.296875 -19.175781 L 14.417969 -19.238281 C 14.238281 -19.511719 14.023438 -20.058594 14.023438 -20.488281 L 14.023438 -20.667969 C 14.023438 -20.882812 14.175781 -21.308594 14.328125 -21.402344 L 14.265625 -21.492188 C 14.207031 -21.460938 14.054688 -21.433594 13.902344 -21.433594 C 13.75 -21.433594 13.597656 -21.460938 13.503906 -21.492188 C 11.738281 -22.222656 10 -22.558594 8.019531 -22.558594 Z M 8.019531 -22.558594 "/></g></g></g><g fill="#545454" fill-opacity="1"><g transform="translate(21.590014, 29.235197)"><g><path d="M 3.078125 -15.851562 C 2.742188 -15.851562 2.257812 -16.066406 2.074219 -16.25 L 1.980469 -16.15625 C 2.164062 -15.976562 2.378906 -15.488281 2.378906 -15.152344 L 2.378906 -0.730469 C 2.378906 -0.394531 2.164062 0.152344 1.980469 0.335938 L 2.042969 0.394531 C 2.226562 0.214844 2.773438 0 3.109375 0 C 3.445312 0 3.992188 0.214844 4.175781 0.394531 L 4.238281 0.335938 C 4.054688 0.152344 3.839844 -0.394531 3.839844 -0.730469 L 3.839844 -9.90625 C 3.839844 -12.164062 6.707031 -14.9375 9.023438 -14.9375 C 11.738281 -14.9375 13.109375 -13.933594 13.109375 -9.296875 L 13.109375 -0.730469 C 13.109375 -0.394531 12.894531 0.152344 12.710938 0.335938 L 12.773438 0.394531 C 12.957031 0.214844 13.503906 0 13.839844 0 C 14.175781 0 14.726562 0.214844 14.90625 0.394531 L 14.96875 0.335938 C 14.785156 0.152344 14.574219 -0.394531 14.574219 -0.730469 L 14.574219 -9.449219 C 14.574219 -14.390625 12.957031 -16.15625 9.328125 -16.15625 C 7.195312 -16.15625 5.273438 -15.089844 3.839844 -13.046875 L 3.78125 -15.152344 C 3.78125 -15.488281 3.992188 -15.976562 4.175781 -16.15625 L 4.085938 -16.25 C 3.902344 -16.066406 3.414062 -15.851562 3.078125 -15.851562 Z M 3.078125 -15.851562 "/></g></g></g><g fill="#545454" fill-opacity="1"><g transform="translate(39.271079, 29.235197)"><g><path d="M 12.804688 -5.945312 C 12.804688 -3.351562 10.03125 -0.914062 7.621094 -0.914062 C 5.152344 -0.914062 3.660156 -1.859375 3.660156 -6.035156 L 3.660156 -15.152344 C 3.660156 -15.488281 3.871094 -15.976562 4.054688 -16.15625 L 3.964844 -16.25 C 3.78125 -16.066406 3.292969 -15.851562 2.957031 -15.851562 C 2.589844 -15.851562 2.105469 -16.066406 1.921875 -16.25 L 1.828125 -16.15625 C 2.011719 -15.976562 2.226562 -15.488281 2.226562 -15.152344 L 2.226562 -5.882812 C 2.226562 -1.339844 3.902344 0.304688 7.316406 0.304688 C 9.480469 0.304688 11.523438 -0.792969 12.804688 -2.804688 L 12.863281 -0.703125 C 12.863281 -0.367188 12.652344 0.121094 12.46875 0.304688 L 12.558594 0.394531 C 12.742188 0.214844 13.230469 0 13.566406 0 C 13.902344 0 14.390625 0.214844 14.574219 0.394531 L 14.664062 0.304688 C 14.480469 0.121094 14.265625 -0.367188 14.265625 -0.703125 L 14.265625 -15.121094 C 14.265625 -15.457031 14.480469 -16.003906 14.664062 -16.1875 L 14.601562 -16.25 C 14.417969 -16.066406 13.871094 -15.851562 13.535156 -15.851562 C 13.199219 -15.851562 12.652344 -16.066406 12.46875 -16.25 L 12.40625 -16.1875 C 12.589844 -16.003906 12.804688 -15.457031 12.804688 -15.121094 Z M 12.804688 -5.945312 "/></g></g></g><g fill="#545454" fill-opacity="1"><g transform="translate(56.799726, 29.235197)"><g><path d="M 13.78125 -15.851562 C 13.445312 -15.851562 12.957031 -16.066406 12.773438 -16.25 L 12.683594 -16.15625 C 12.863281 -15.976562 13.078125 -15.488281 13.046875 -15.152344 L 13.015625 -13.324219 C 11.859375 -15.152344 10.03125 -16.15625 7.652344 -16.15625 C 4.480469 -16.15625 1.464844 -14.238281 1.464844 -8.019531 C 1.464844 -2.925781 3.902344 0 7.652344 0 C 10 0 11.828125 -0.976562 12.957031 -2.714844 L 12.988281 -0.703125 C 12.988281 3.933594 11.371094 5.792969 7.46875 5.792969 C 6.25 5.792969 3.597656 5.609375 2.804688 4.480469 L 2.714844 4.542969 C 2.867188 4.785156 3.078125 5.273438 3.078125 5.640625 L 3.078125 5.671875 C 3.078125 5.914062 2.894531 6.402344 2.742188 6.523438 L 2.804688 6.617188 C 2.894531 6.523438 3.171875 6.492188 3.382812 6.492188 C 3.507812 6.492188 3.597656 6.492188 3.6875 6.523438 C 4.878906 6.859375 6.097656 7.011719 7.46875 7.011719 C 12.316406 7.011719 14.480469 4.632812 14.480469 -0.761719 L 14.480469 -15.152344 C 14.480469 -15.488281 14.695312 -15.976562 14.878906 -16.15625 L 14.785156 -16.25 C 14.601562 -16.066406 14.113281 -15.851562 13.78125 -15.851562 Z M 2.925781 -8.019531 C 2.925781 -12.683594 4.632812 -14.9375 7.957031 -14.9375 C 10.578125 -14.9375 12.988281 -12.589844 12.988281 -9.753906 L 12.988281 -6.3125 C 12.988281 -3.445312 10.578125 -1.21875 7.957031 -1.21875 C 4.847656 -1.21875 2.925781 -3.628906 2.925781 -8.019531 Z M 2.925781 -8.019531 "/></g></g></g><g fill="#545454" fill-opacity="1"><g transform="translate(74.541764, 29.235197)"><g><path d="M 13.78125 -15.851562 C 13.445312 -15.851562 12.957031 -16.066406 12.773438 -16.25 L 12.683594 -16.15625 C 12.863281 -15.976562 13.078125 -15.488281 13.046875 -15.152344 L 13.015625 -13.324219 C 11.859375 -15.152344 10.03125 -16.15625 7.652344 -16.15625 C 4.480469 -16.15625 1.464844 -14.238281 1.464844 -8.019531 C 1.464844 -2.925781 3.902344 0 7.652344 0 C 10 0 11.828125 -0.976562 12.957031 -2.714844 L 12.988281 -0.703125 C 12.988281 3.933594 11.371094 5.792969 7.46875 5.792969 C 6.25 5.792969 3.597656 5.609375 2.804688 4.480469 L 2.714844 4.542969 C 2.867188 4.785156 3.078125 5.273438 3.078125 5.640625 L 3.078125 5.671875 C 3.078125 5.914062 2.894531 6.402344 2.742188 6.523438 L 2.804688 6.617188 C 2.894531 6.523438 3.171875 6.492188 3.382812 6.492188 C 3.507812 6.492188 3.597656 6.492188 3.6875 6.523438 C 4.878906 6.859375 6.097656 7.011719 7.46875 7.011719 C 12.316406 7.011719 14.480469 4.632812 14.480469 -0.761719 L 14.480469 -15.152344 C 14.480469 -15.488281 14.695312 -15.976562 14.878906 -16.15625 L 14.785156 -16.25 C 14.601562 -16.066406 14.113281 -15.851562 13.78125 -15.851562 Z M 2.925781 -8.019531 C 2.925781 -12.683594 4.632812 -14.9375 7.957031 -14.9375 C 10.578125 -14.9375 12.988281 -12.589844 12.988281 -9.753906 L 12.988281 -6.3125 C 12.988281 -3.445312 10.578125 -1.21875 7.957031 -1.21875 C 4.847656 -1.21875 2.925781 -3.628906 2.925781 -8.019531 Z M 2.925781 -8.019531 "/></g></g></g><g fill="#545454" fill-opacity="1"><g transform="translate(92.283802, 29.235197)"><g><path d="M 4.511719 0 C 4.878906 0 5.425781 0.242188 5.609375 0.425781 L 5.699219 0.335938 C 5.519531 0.152344 5.273438 -0.394531 5.273438 -0.761719 L 5.273438 -22.101562 C 5.273438 -22.46875 5.519531 -23.015625 5.699219 -23.199219 L 5.609375 -23.292969 C 5.425781 -23.109375 4.878906 -22.863281 4.511719 -22.863281 C 4.144531 -22.863281 3.597656 -23.109375 3.414062 -23.292969 L 3.324219 -23.199219 C 3.507812 -23.015625 3.75 -22.46875 3.75 -22.101562 L 3.75 -0.761719 C 3.75 -0.394531 3.507812 0.152344 3.324219 0.335938 L 3.414062 0.425781 C 3.597656 0.242188 4.144531 0 4.511719 0 Z M 4.511719 0 "/></g></g></g><g fill="#545454" fill-opacity="1"><g transform="translate(102.191408, 29.235197)"><g><path d="M 14.113281 -7.621094 C 14.238281 -7.621094 14.417969 -7.5 14.511719 -7.4375 L 14.574219 -7.53125 C 14.511719 -7.589844 14.417969 -7.773438 14.417969 -7.894531 C 14.417969 -12.253906 13.261719 -16.15625 8.171875 -16.15625 C 4.601562 -16.15625 1.3125 -14.296875 1.3125 -7.925781 C 1.3125 -2.4375 3.871094 0.304688 8.71875 0.304688 C 10.121094 0.304688 11.402344 0.0898438 12.835938 -0.335938 C 12.925781 -0.367188 13.015625 -0.367188 13.140625 -0.367188 C 13.351562 -0.367188 13.628906 -0.335938 13.71875 -0.242188 L 13.78125 -0.367188 C 13.628906 -0.457031 13.445312 -0.945312 13.445312 -1.1875 L 13.445312 -1.21875 C 13.445312 -1.554688 13.65625 -2.011719 13.808594 -2.257812 L 13.6875 -2.316406 C 12.863281 -1.160156 10.152344 -0.882812 8.839844 -0.882812 C 4.878906 -0.882812 2.835938 -3.046875 2.773438 -7.621094 Z M 2.804688 -8.808594 C 3.019531 -12.957031 4.816406 -14.96875 8.171875 -14.96875 C 11.28125 -14.96875 12.894531 -12.957031 12.957031 -8.808594 Z M 2.804688 -8.808594 "/></g></g></g><g clip-path="url(#id1)"><path fill="#89d1ff" d="M 153.683594 35.34375 C 150.667969 35.886719 146.875 36.207031 142.757812 36.207031 C 132.9375 36.207031 124.976562 34.375 124.976562 32.109375 C 124.976562 30.683594 128.148438 29.425781 132.957031 28.691406 C 134.726562 30.761719 137.917969 32.691406 143.421875 32.691406 C 147.847656 32.691406 150.621094 30.984375 152.347656 28.660156 C 157.273438 29.386719 160.539062 30.660156 160.539062 32.109375 C 160.539062 33.425781 157.855469 34.59375 153.683594 35.34375 Z M 153.683594 35.34375 " fill-opacity="1" fill-rule="nonzero"/></g><g clip-path="url(#id2)"><path fill="#545454" d="M 158.453125 29.789062 C 157.105469 29.226562 155.195312 28.742188 152.910156 28.378906 C 153.53125 27.441406 154.042969 26.367188 154.433594 25.164062 C 154.871094 23.828125 155.160156 22.332031 155.292969 20.726562 C 155.523438 17.992188 155.230469 15.898438 155.21875 15.808594 C 155.195312 15.644531 155.039062 15.53125 154.875 15.554688 C 154.710938 15.578125 154.597656 15.730469 154.621094 15.898438 C 154.625 15.917969 154.914062 18.007812 154.691406 20.675781 C 154.488281 23.121094 153.792969 26.558594 151.652344 29.042969 C 149.738281 31.265625 146.96875 32.390625 143.421875 32.390625 C 136.519531 32.390625 133.523438 29.320312 132.28125 27.238281 C 132.277344 27.226562 132.269531 27.214844 132.261719 27.203125 C 132.679688 27.082031 133.144531 26.894531 133.582031 26.660156 C 134.167969 26.347656 134.988281 25.804688 135.542969 25.003906 C 136.097656 24.203125 136.261719 23.332031 136.035156 22.414062 C 135.84375 21.648438 135.398438 21.171875 134.808594 21.101562 C 134.285156 21.035156 133.738281 21.308594 133.289062 21.828125 C 133.101562 21.214844 132.695312 20.738281 132.164062 20.5625 C 131.492188 20.335938 130.773438 20.632812 130.242188 21.359375 C 129.148438 22.84375 130.390625 25.179688 131.289062 26.730469 C 130.832031 26.707031 130.335938 26.535156 129.835938 26.230469 C 127.683594 24.910156 125.339844 21.6875 125.28125 18.992188 C 125.261719 18.128906 125.382812 17.273438 125.621094 16.589844 C 125.902344 15.789062 126.328125 15.222656 126.886719 14.910156 C 127.390625 14.628906 128.007812 14.550781 128.722656 14.679688 C 129.566406 14.835938 130.546875 15.273438 131.640625 15.988281 C 132.714844 16.683594 134.082031 17.238281 135.710938 17.632812 C 137.207031 17.996094 138.875 18.214844 140.675781 18.28125 C 141.089844 18.296875 141.503906 18.304688 141.917969 18.304688 C 144.953125 18.304688 147.996094 17.882812 150.425781 17.117188 C 152.152344 16.570312 154.34375 15.59375 154.964844 14.054688 C 155.113281 13.691406 155.171875 13.144531 154.625 12.605469 C 153.992188 11.976562 152.644531 11.476562 150.621094 11.117188 C 148.855469 10.804688 146.648438 10.613281 144.234375 10.5625 C 143.296875 10.542969 142.347656 10.546875 141.414062 10.574219 C 141.640625 9.988281 142.175781 9.597656 142.84375 9.113281 C 143.644531 8.53125 144.644531 7.804688 145.355469 6.472656 C 145.914062 5.433594 146.105469 4.335938 145.914062 3.308594 C 145.738281 2.367188 145.253906 1.550781 144.550781 1 C 143.945312 0.523438 143.238281 0.292969 142.503906 0.324219 C 141.710938 0.359375 140.929688 0.707031 140.25 1.335938 C 139.636719 1.902344 139.304688 2.585938 139.296875 3.316406 C 139.285156 3.9375 139.511719 4.5625 139.929688 5.078125 C 140.667969 5.988281 141.742188 6.257812 142.484375 5.714844 C 142.621094 5.617188 142.648438 5.425781 142.550781 5.292969 C 142.453125 5.15625 142.265625 5.125 142.128906 5.222656 C 141.59375 5.617188 140.851562 5.253906 140.394531 4.695312 C 139.824219 3.988281 139.546875 2.800781 140.65625 1.785156 C 141.984375 0.5625 143.347656 0.824219 144.179688 1.476562 C 145.253906 2.316406 145.914062 4.148438 144.824219 6.1875 C 144.179688 7.394531 143.28125 8.046875 142.488281 8.621094 C 141.730469 9.171875 141.007812 9.699219 140.773438 10.59375 C 139.636719 10.636719 138.535156 10.710938 137.523438 10.816406 C 135.347656 11.042969 133.648438 11.394531 132.613281 11.839844 C 131.746094 12.210938 131.308594 12.667969 131.3125 13.191406 C 131.320312 13.671875 131.640625 14.09375 132.273438 14.449219 C 133.109375 14.921875 134.492188 15.292969 136.390625 15.558594 C 138.074219 15.796875 140.070312 15.929688 142.160156 15.949219 C 145.5 15.980469 149.953125 15.6875 151.5 14.761719 C 151.914062 14.511719 152.121094 14.21875 152.117188 13.882812 C 152.113281 13.601562 152.007812 13.363281 151.804688 13.171875 C 151.113281 12.53125 149.34375 12.648438 147.300781 12.785156 C 145.851562 12.882812 144.351562 12.980469 143.191406 12.8125 C 141.589844 12.582031 141.347656 11.929688 141.304688 11.460938 C 141.296875 11.363281 141.292969 11.269531 141.296875 11.179688 C 142.246094 11.152344 143.226562 11.148438 144.222656 11.167969 C 146.605469 11.21875 148.78125 11.40625 150.519531 11.714844 C 152.882812 12.136719 153.828125 12.664062 154.203125 13.035156 C 154.460938 13.292969 154.523438 13.535156 154.410156 13.824219 C 153.992188 14.855469 152.511719 15.820312 150.246094 16.535156 C 147.546875 17.390625 144.066406 17.804688 140.699219 17.675781 C 137.03125 17.535156 133.929688 16.753906 131.972656 15.476562 C 129.71875 14.011719 127.910156 13.640625 126.59375 14.378906 C 125.902344 14.769531 125.382812 15.445312 125.054688 16.386719 C 124.714844 17.351562 124.664062 18.34375 124.679688 19.007812 C 124.71875 20.796875 125.589844 22.457031 126.316406 23.53125 C 127.222656 24.882812 128.390625 26.050781 129.523438 26.746094 C 130.242188 27.1875 130.976562 27.390625 131.640625 27.328125 C 131.832031 27.667969 132.066406 28.042969 132.359375 28.429688 C 130.15625 28.792969 128.3125 29.273438 127.003906 29.824219 C 125.429688 30.492188 124.628906 31.261719 124.628906 32.109375 C 124.628906 32.800781 125.160156 33.441406 126.207031 34.011719 C 127.132812 34.515625 128.445312 34.964844 130.109375 35.347656 C 133.492188 36.128906 137.984375 36.558594 142.757812 36.558594 C 147.53125 36.558594 152.027344 36.128906 155.410156 35.347656 C 157.074219 34.964844 158.382812 34.515625 159.308594 34.011719 C 160.355469 33.441406 160.886719 32.800781 160.886719 32.109375 C 160.886719 31.242188 160.066406 30.464844 158.453125 29.789062 Z M 141.488281 12.863281 C 141.878906 13.132812 142.410156 13.3125 143.101562 13.414062 C 144.328125 13.59375 145.859375 13.488281 147.339844 13.390625 C 148.300781 13.328125 149.207031 13.265625 149.945312 13.289062 C 150.695312 13.3125 151.183594 13.425781 151.394531 13.621094 C 151.476562 13.695312 151.511719 13.777344 151.511719 13.894531 C 151.515625 13.992188 151.398438 14.117188 151.191406 14.238281 C 150.023438 14.941406 146.394531 15.382812 142.164062 15.34375 C 137.726562 15.300781 134.050781 14.757812 132.566406 13.921875 C 132.273438 13.753906 131.917969 13.492188 131.914062 13.1875 C 131.914062 12.941406 132.253906 12.652344 132.847656 12.398438 C 134.3125 11.773438 137.257812 11.335938 140.691406 11.203125 C 140.691406 11.300781 140.695312 11.40625 140.703125 11.515625 C 140.753906 12.082031 141.019531 12.535156 141.488281 12.863281 Z M 130.726562 21.722656 C 131.027344 21.3125 131.375 21.09375 131.71875 21.09375 C 131.804688 21.09375 131.886719 21.109375 131.972656 21.136719 C 132.46875 21.304688 132.808594 21.925781 132.800781 22.648438 C 132.800781 22.789062 132.894531 22.910156 133.03125 22.945312 C 133.164062 22.976562 133.308594 22.914062 133.371094 22.789062 C 133.742188 22.074219 134.277344 21.648438 134.738281 21.703125 C 135.066406 21.742188 135.320312 22.046875 135.449219 22.5625 C 135.632812 23.300781 135.496094 24.007812 135.046875 24.660156 C 134.28125 25.765625 132.800781 26.445312 131.945312 26.65625 C 131.121094 25.25 129.8125 22.960938 130.726562 21.722656 Z M 158.972656 33.398438 C 158.105469 33.871094 156.855469 34.296875 155.25 34.667969 C 151.917969 35.433594 147.480469 35.859375 142.757812 35.859375 C 138.035156 35.859375 133.597656 35.433594 130.261719 34.667969 C 128.660156 34.296875 127.40625 33.871094 126.539062 33.398438 C 125.746094 32.964844 125.324219 32.519531 125.324219 32.109375 C 125.324219 31.585938 126.019531 31.003906 127.273438 30.472656 C 128.609375 29.910156 130.546875 29.421875 132.875 29.058594 C 134.605469 30.988281 137.761719 32.996094 143.421875 32.996094 C 147.152344 32.996094 150.074219 31.800781 152.109375 29.4375 C 152.226562 29.304688 152.339844 29.164062 152.453125 29.019531 C 154.835938 29.378906 156.820312 29.867188 158.1875 30.4375 C 159.476562 30.976562 160.1875 31.570312 160.1875 32.109375 C 160.1875 32.519531 159.769531 32.964844 158.972656 33.398438 Z M 158.972656 33.398438 " fill-opacity="1" fill-rule="nonzero"/></g></svg>