<svg xmlns="http://www.w3.org/2000/svg" xmlns:xlink="http://www.w3.org/1999/xlink" width="250" zoomAndPan="magnify" viewBox="0 0 187.5 72" height="96" preserveAspectRatio="xMidYMid meet" version="1.0"><defs><g/><clipPath id="id1"><path d="M 29.628906 9.054688 L 128.628906 9.054688 L 128.628906 69.054688 L 29.628906 69.054688 Z M 29.628906 9.054688 " clip-rule="nonzero"/></clipPath><clipPath id="id2"><path d="M 128.28125 43 L 180 43 L 180 54.621094 L 128.28125 54.621094 Z M 128.28125 43 " clip-rule="nonzero"/></clipPath><clipPath id="id3"><path d="M 128.28125 2.871094 L 180.03125 2.871094 L 180.03125 54.621094 L 128.28125 54.621094 Z M 128.28125 2.871094 " clip-rule="nonzero"/></clipPath></defs><g clip-path="url(#id1)"><path fill="#e6e9ff" d="M 40.617188 63.785156 C 40.238281 64.160156 39.914062 64.324219 39.425781 63.945312 C 39.320312 63.839844 39.15625 63.839844 38.941406 63.785156 C 38.996094 63.679688 39.101562 63.515625 39.210938 63.300781 C 38.996094 63.25 38.667969 63.25 38.5625 63.085938 C 38.453125 62.925781 38.5625 62.65625 38.617188 62.28125 C 38.398438 62.335938 38.128906 62.335938 37.910156 62.390625 L 37.585938 61.746094 C 37.695312 61.746094 37.859375 61.691406 38.019531 61.691406 L 38.019531 61.582031 C 37.859375 61.53125 37.640625 61.476562 37.640625 61.476562 C 37.480469 61.261719 37.425781 61.152344 37.316406 61.101562 C 37.207031 61.046875 37.101562 60.992188 37.046875 60.9375 C 36.882812 60.832031 36.777344 60.722656 36.613281 60.5625 C 36.828125 60.457031 36.992188 60.402344 37.207031 60.296875 C 37.316406 60.242188 37.480469 60.242188 37.585938 60.1875 C 37.480469 60.082031 37.371094 60.027344 37.261719 59.917969 C 37.15625 59.8125 37.046875 59.652344 36.992188 59.488281 C 36.882812 59.113281 36.828125 58.738281 36.722656 58.363281 C 36.613281 58.148438 36.398438 57.933594 36.234375 57.71875 C 36.179688 57.664062 36.019531 57.609375 35.964844 57.554688 C 35.746094 57.179688 35.691406 56.589844 35.421875 56.375 C 34.882812 55.945312 35.421875 55.355469 34.988281 54.976562 C 34.882812 54.871094 34.71875 54.710938 34.71875 54.546875 C 34.71875 54.171875 34.015625 54.011719 34.449219 53.527344 C 34.503906 53.472656 34.230469 52.9375 34.015625 52.777344 C 33.3125 52.238281 33.472656 51.328125 33.039062 50.683594 C 32.988281 50.574219 33.148438 50.359375 33.148438 50.199219 C 32.445312 49.769531 32.28125 49.125 32.660156 48.480469 C 32.390625 48.265625 32.121094 48.105469 31.902344 47.890625 L 31.742188 47.726562 C 32.769531 47.511719 32.445312 46.652344 32.609375 46.007812 C 32.390625 45.902344 32.230469 45.847656 31.957031 45.742188 C 32.066406 45.632812 32.175781 45.578125 32.28125 45.472656 C 31.902344 45.097656 30.765625 44.988281 31.796875 44.023438 C 31.472656 43.914062 31.199219 43.808594 30.820312 43.699219 C 31.039062 43.539062 31.199219 43.429688 31.363281 43.324219 C 31.199219 43.214844 30.984375 43.164062 30.765625 43 C 30.550781 42.734375 31.363281 42.089844 30.496094 41.765625 L 30.496094 40.960938 C 30.550781 40.90625 30.714844 40.800781 30.929688 40.691406 C 30.660156 40.640625 30.496094 40.585938 30.441406 40.585938 C 30.335938 40.046875 30.226562 39.566406 30.117188 39.136719 C 30.007812 39.136719 29.957031 39.082031 29.847656 39.082031 C 30.007812 39.027344 30.117188 38.972656 30.28125 38.921875 C 30.28125 38.867188 30.226562 38.8125 30.226562 38.757812 C 30.007812 38.652344 29.847656 38.597656 29.628906 38.492188 C 29.628906 38.4375 29.628906 38.277344 29.683594 38.167969 C 29.847656 38.167969 30.0625 38.222656 30.226562 38.222656 C 32.121094 36.664062 33.203125 36.179688 35.964844 35.535156 C 37.480469 35.160156 38.941406 34.675781 40.402344 34.246094 C 40.835938 34.085938 41.320312 33.925781 41.699219 33.65625 C 41.917969 33.496094 41.972656 33.121094 42.027344 32.796875 C 42.027344 32.636719 41.808594 32.421875 41.59375 32.367188 C 41.105469 32.152344 41.160156 31.777344 41.214844 31.457031 C 40.996094 31.242188 40.78125 31.078125 40.5625 30.863281 C 40.726562 30.648438 40.835938 30.488281 40.941406 30.328125 C 40.078125 30.488281 40.347656 29.738281 40.238281 29.414062 C 39.96875 28.769531 39.914062 28.125 39.753906 27.425781 C 39.804688 27.425781 39.914062 27.425781 40.023438 27.480469 C 39.753906 26.675781 39.535156 25.921875 39.265625 25.117188 C 39.320312 25.117188 39.375 25.066406 39.425781 25.066406 C 39.265625 24.902344 39.046875 24.796875 38.832031 24.582031 C 39.210938 24.152344 39.644531 23.828125 39.699219 23.238281 C 39.753906 22.539062 40.511719 22.324219 41.105469 22.058594 C 42.730469 21.414062 44.40625 20.820312 46.03125 20.125 C 47.058594 19.695312 48.035156 19.15625 49.0625 18.726562 C 50.035156 18.296875 51.011719 17.867188 52.039062 17.492188 C 53.015625 17.117188 54.042969 16.792969 55.015625 16.527344 C 55.882812 16.3125 56.804688 16.203125 57.667969 15.988281 C 58.046875 15.933594 58.371094 15.71875 58.695312 15.613281 C 60.429688 15.128906 62.160156 14.699219 63.839844 14.214844 C 65.300781 13.839844 66.707031 13.410156 68.167969 13.25 C 68.765625 13.195312 69.359375 12.550781 70.011719 13.089844 C 70.0625 13.140625 70.28125 12.925781 70.441406 12.925781 C 70.714844 12.875 70.929688 12.925781 71.199219 12.925781 C 71.039062 12.121094 71.851562 12.550781 72.121094 12.496094 C 73.042969 12.230469 74.070312 12.066406 75.042969 12.015625 C 77.207031 11.851562 79.265625 11.15625 81.375 11.046875 C 82.621094 10.941406 83.867188 10.671875 85.113281 10.511719 C 85.21875 10.511719 85.707031 10.1875 85.492188 10.671875 C 87.113281 9.972656 88.902344 10.132812 90.632812 9.867188 C 90.632812 10.082031 90.632812 10.1875 90.578125 10.347656 C 90.6875 10.296875 90.847656 10.242188 90.847656 10.242188 C 90.6875 9.757812 91.011719 9.757812 91.335938 9.703125 C 92.148438 9.652344 93.015625 9.597656 93.828125 9.542969 C 94.746094 9.488281 95.613281 9.382812 96.53125 9.328125 C 96.695312 9.328125 96.855469 9.382812 97.019531 9.4375 C 97.234375 9.542969 97.34375 9.542969 97.613281 9.382812 C 97.886719 9.167969 98.425781 9.222656 98.804688 9.222656 C 100.484375 9.167969 102.160156 9.113281 103.839844 9.113281 C 105.03125 9.113281 106.167969 9.222656 107.359375 9.273438 C 107.953125 9.328125 108.550781 9.382812 109.144531 9.382812 C 109.632812 9.382812 110.824219 10.347656 110.660156 10.726562 C 110.445312 11.207031 110.984375 11.585938 110.714844 12.015625 C 110.714844 12.015625 110.875 12.121094 110.984375 12.175781 C 110.714844 12.496094 110.769531 12.660156 111.09375 13.734375 C 111.253906 14.269531 111.253906 14.914062 111.253906 15.503906 C 111.308594 15.71875 111.308594 15.933594 111.363281 16.203125 C 111.472656 16.738281 111.582031 17.277344 111.6875 17.867188 C 111.417969 17.921875 111.148438 17.921875 110.824219 17.976562 C 111.363281 18.40625 111.796875 18.941406 111.203125 19.746094 L 111.472656 19.746094 C 111.148438 20.339844 110.824219 20.984375 110.605469 21.464844 C 111.09375 21.949219 111.527344 22.433594 112.011719 22.863281 C 112.121094 22.96875 112.339844 23.132812 112.390625 23.078125 C 113.148438 22.703125 113.476562 23.398438 113.90625 23.667969 C 114.234375 23.882812 114.992188 24.042969 114.558594 24.796875 C 114.558594 24.796875 114.882812 25.066406 115.042969 25.117188 C 115.371094 25.171875 115.695312 25.117188 116.128906 25.066406 L 116.128906 30.167969 L 116.234375 30.167969 C 116.179688 30.273438 116.128906 30.433594 116.128906 30.488281 C 116.453125 31.132812 116.234375 31.617188 115.53125 31.832031 C 115.476562 31.832031 115.421875 31.9375 115.371094 31.992188 C 115.371094 32.046875 115.371094 32.152344 115.421875 32.152344 L 115.695312 32.152344 L 116.34375 31.832031 L 116.453125 31.9375 C 116.34375 32.101562 116.234375 32.261719 116.125 32.476562 C 116.289062 32.636719 116.453125 32.796875 116.722656 33.011719 C 116.613281 33.121094 116.453125 33.226562 116.398438 33.390625 C 116.34375 33.550781 115.964844 33.710938 116.398438 33.925781 C 116.503906 33.980469 116.503906 34.355469 116.558594 34.625 C 115.75 34.246094 115.800781 35.160156 115.316406 35.375 C 115.261719 35.269531 115.152344 35.105469 115.042969 34.890625 C 114.992188 35.105469 114.9375 35.269531 114.9375 35.320312 C 114.773438 35.320312 114.449219 35.269531 114.394531 35.320312 C 114.285156 35.644531 114.125 36.019531 114.234375 36.289062 C 114.285156 36.503906 114.664062 36.773438 114.9375 36.773438 C 115.695312 36.933594 116.453125 36.988281 117.210938 37.039062 C 117.640625 37.09375 118.074219 36.988281 118.507812 36.988281 C 119.105469 37.039062 119.644531 37.148438 120.242188 37.203125 C 120.457031 37.203125 120.726562 37.09375 120.945312 37.09375 C 121.539062 37.148438 122.1875 37.203125 122.785156 37.308594 C 122.894531 37.308594 123 37.46875 123.054688 37.523438 C 123.433594 37.578125 123.8125 37.683594 124.136719 37.632812 C 124.894531 37.46875 125.273438 37.738281 125.761719 38.277344 C 125.925781 38.492188 126.519531 38.4375 126.84375 38.382812 C 127.710938 38.277344 127.441406 38.972656 127.65625 39.351562 C 127.765625 39.511719 127.765625 39.726562 127.765625 39.886719 C 127.871094 40.316406 127.820312 40.691406 127.167969 40.90625 C 127.386719 41.121094 127.601562 41.230469 127.765625 41.445312 C 127.871094 41.550781 127.871094 41.714844 127.871094 41.875 C 127.871094 42.089844 127.765625 42.359375 127.871094 42.464844 C 128.25 42.789062 128.035156 43 127.820312 43.164062 C 127.925781 43.429688 128.144531 43.644531 128.144531 43.859375 C 128.144531 44.238281 127.871094 44.613281 128.304688 44.882812 L 128.304688 44.933594 C 127.710938 45.6875 128.46875 46.386719 128.304688 47.136719 C 128.304688 47.246094 128.304688 47.460938 128.414062 47.566406 C 128.738281 47.835938 128.578125 48.105469 128.46875 48.425781 C 128.25 48.910156 128.035156 49.394531 127.871094 49.769531 C 127.546875 49.714844 127.167969 49.609375 126.789062 49.660156 C 126.410156 49.660156 126.085938 49.769531 125.707031 49.824219 C 125.816406 50.144531 126.304688 50.359375 125.761719 50.789062 C 125.597656 50.898438 125.707031 51.378906 125.761719 51.648438 C 125.816406 52.023438 125.976562 52.453125 125.925781 52.828125 C 125.925781 52.992188 125.546875 53.152344 125.273438 53.257812 C 124.789062 53.527344 123.976562 53.421875 124.082031 54.332031 C 123.703125 54.386719 123.21875 54.332031 123.703125 54.925781 C 123.921875 55.191406 123.488281 55.570312 122.894531 55.621094 C 122.242188 55.675781 121.59375 55.835938 120.945312 55.945312 C 120.347656 56.050781 119.753906 56.160156 119.15625 56.214844 C 118.996094 56.214844 118.777344 56.050781 118.5625 56 C 118.398438 56.050781 118.128906 56.160156 117.859375 56.265625 C 117.695312 55.945312 117.589844 55.730469 117.535156 55.460938 C 117.480469 55.460938 117.425781 55.460938 117.425781 55.515625 L 117.425781 56.265625 C 116.992188 55.355469 116.398438 56.265625 115.964844 56.105469 C 116.074219 56.214844 116.125 56.320312 116.234375 56.480469 C 115.964844 56.589844 115.75 56.644531 115.53125 56.695312 L 115.53125 57.339844 C 115.152344 57.664062 114.882812 57.878906 114.613281 58.148438 C 114.828125 58.199219 115.042969 58.308594 115.371094 58.414062 C 114.71875 58.578125 114.234375 58.953125 113.582031 58.792969 C 113.421875 58.738281 113.203125 58.953125 113.042969 59.058594 C 112.71875 59.4375 112.390625 59.703125 112.011719 59.328125 C 111.742188 59.8125 111.527344 60.242188 111.308594 60.671875 C 111.308594 60.457031 111.253906 60.296875 111.253906 60.082031 C 111.039062 60.132812 110.824219 60.132812 110.605469 60.1875 C 110.660156 60.507812 110.714844 60.671875 110.769531 60.9375 C 110.984375 60.832031 111.148438 60.722656 111.308594 60.617188 C 111.582031 61.261719 111.742188 61.316406 112.5 60.9375 C 112.609375 61.152344 112.71875 61.367188 112.824219 61.636719 C 112.230469 61.746094 111.632812 61.851562 110.984375 62.011719 C 111.363281 62.496094 110.496094 63.195312 111.363281 63.355469 C 111.148438 63.570312 110.984375 63.894531 110.714844 64.054688 C 110.335938 64.269531 109.902344 64.324219 109.46875 64.429688 C 108.875 64.539062 108.222656 64.644531 107.628906 64.699219 C 106.816406 64.753906 106.003906 64.804688 105.246094 64.859375 C 104.652344 64.914062 104.109375 65.074219 103.570312 65.128906 C 103.136719 65.183594 102.648438 65.074219 102.214844 65.128906 C 101.511719 65.234375 100.863281 65.503906 100.160156 65.664062 C 99.996094 65.71875 99.78125 65.71875 99.617188 65.71875 C 99.347656 65.71875 99.078125 65.449219 98.914062 65.878906 C 98.265625 65.449219 97.722656 66.472656 97.074219 65.988281 C 97.019531 65.933594 96.855469 66.09375 96.75 66.148438 L 96.425781 66.308594 C 94.910156 66.578125 93.394531 66.792969 91.878906 67.007812 C 91.121094 67.117188 90.363281 67.117188 89.605469 67.167969 C 89.117188 67.222656 88.628906 67.382812 88.144531 67.4375 C 87.816406 67.492188 87.492188 67.4375 87.058594 67.382812 C 86.898438 67.8125 86.628906 67.761719 86.355469 67.382812 C 85.816406 67.652344 85.273438 67.921875 84.625 67.761719 C 84.40625 67.707031 84.082031 67.867188 83.8125 67.867188 C 83.597656 67.867188 83.378906 67.8125 83.164062 67.707031 C 82.945312 67.597656 82.675781 67.277344 82.621094 67.867188 C 82.621094 67.921875 82.082031 67.976562 81.753906 68.027344 C 81.105469 68.136719 80.402344 68.191406 79.699219 68.296875 C 79.808594 68.082031 79.859375 67.921875 79.914062 67.761719 L 79.859375 67.707031 L 79.050781 68.351562 C 78.617188 68.726562 78.074219 68.671875 77.535156 68.671875 C 77.046875 68.671875 76.503906 68.621094 76.125 68.78125 C 75.695312 68.941406 75.746094 69.050781 75.476562 68.671875 C 75.261719 69.101562 74.285156 69.316406 74.015625 69.050781 C 74.179688 68.941406 74.339844 68.886719 74.503906 68.78125 C 74.449219 68.726562 74.449219 68.671875 74.394531 68.621094 C 74.285156 68.671875 74.230469 68.726562 74.125 68.78125 C 73.472656 69.15625 72.769531 69.050781 72.121094 69.101562 C 71.578125 69.15625 71.039062 68.941406 70.441406 68.835938 L 70.441406 68.351562 C 70.441406 67.652344 70.0625 67.277344 69.414062 67.222656 C 69.199219 67.222656 68.820312 67.277344 68.875 66.738281 C 68.925781 66.363281 68.386719 66.148438 67.898438 66.257812 C 67.519531 66.363281 67.085938 66.308594 66.707031 66.308594 C 66.652344 66.257812 66.546875 66.203125 66.4375 66.203125 C 66.003906 66.257812 65.625 66.363281 65.191406 66.363281 C 64.328125 66.472656 63.515625 66.523438 62.648438 66.632812 C 62.433594 66.632812 62.214844 66.578125 61.890625 66.578125 C 62.105469 66.417969 62.269531 66.308594 62.433594 66.203125 C 61.023438 66.472656 60.589844 65.613281 60.320312 64.589844 C 60.375 64.589844 60.484375 64.539062 60.589844 64.539062 C 59.453125 64.375 59.347656 63.464844 59.074219 62.605469 C 58.914062 62.550781 58.589844 62.441406 58.371094 62.335938 C 58.480469 62.175781 58.644531 61.960938 58.75 61.796875 C 58.535156 61.746094 58.265625 61.636719 58.046875 61.636719 C 57.289062 61.746094 56.640625 61.636719 56.152344 60.992188 C 56.855469 61.101562 57.507812 61.207031 58.210938 61.316406 C 58.316406 60.9375 58.371094 60.722656 58.425781 60.457031 C 57.9375 60.777344 57.9375 60.777344 57.558594 60.457031 C 57.398438 60.347656 57.234375 60.242188 57.128906 60.1875 C 56.804688 60.722656 56.261719 60.296875 55.773438 60.507812 C 55.9375 60.722656 56.046875 60.886719 56.152344 61.046875 C 55.882812 60.886719 55.339844 61.261719 55.449219 60.617188 C 55.015625 60.722656 54.582031 60.832031 54.203125 60.992188 C 53.988281 61.101562 53.878906 61.367188 53.71875 61.582031 L 53.71875 61.261719 C 53.609375 61.261719 53.5 61.261719 53.445312 61.316406 C 52.796875 61.636719 52.09375 62.011719 51.445312 62.335938 C 51.28125 62.121094 51.226562 61.960938 51.171875 61.960938 C 50.792969 62.175781 50.414062 62.496094 50.089844 62.441406 C 49.765625 62.441406 49.386719 62.066406 49.0625 61.90625 C 49.0625 62.175781 49.007812 62.441406 49.007812 62.710938 C 48.359375 62.175781 48.25 62.226562 47.871094 63.195312 C 48.25 63.195312 48.628906 63.140625 49.0625 63.140625 L 49.0625 62.765625 C 49.226562 62.925781 49.386719 63.035156 49.550781 63.195312 C 49.550781 63.300781 49.496094 63.570312 49.496094 63.570312 C 48.953125 63.570312 48.519531 64.269531 47.871094 63.839844 C 47.761719 63.785156 47.546875 63.945312 47.382812 63.945312 L 47.058594 63.945312 C 45.597656 64.589844 44.027344 64.644531 42.457031 65.019531 C 42.40625 64.429688 42.078125 64.484375 41.648438 64.589844 C 41.539062 64.644531 41.320312 64.484375 41.160156 64.484375 C 41.269531 64.484375 41.375 64.429688 41.429688 64.429688 C 41.539062 64.214844 41.648438 63.945312 41.699219 63.785156 C 41.539062 63.730469 41.320312 63.570312 41.105469 63.570312 C 40.941406 63.570312 40.78125 63.730469 40.617188 63.785156 C 40.726562 63.625 40.671875 63.730469 40.617188 63.785156 Z M 97.234375 64.859375 C 96.53125 64.96875 95.9375 65.074219 95.289062 65.183594 L 95.289062 65.449219 C 95.613281 65.503906 95.992188 65.613281 96.316406 65.558594 C 96.640625 65.558594 97.128906 65.558594 97.234375 64.859375 Z M 47.710938 63.25 C 47.4375 62.925781 47.332031 62.605469 46.953125 62.925781 C 46.789062 63.085938 46.519531 63.085938 46.300781 63.195312 C 46.195312 63.25 46.085938 63.300781 45.976562 63.410156 L 46.03125 63.570312 C 46.140625 63.570312 46.246094 63.515625 46.410156 63.464844 C 46.574219 63.410156 46.734375 63.410156 46.898438 63.410156 C 47.058594 63.355469 47.332031 63.300781 47.710938 63.25 Z M 66.113281 64.914062 C 66.382812 65.234375 66.601562 65.503906 66.816406 65.773438 C 66.925781 65.503906 67.085938 65.234375 67.140625 65.019531 C 66.816406 64.914062 66.492188 64.914062 66.113281 64.914062 Z M 49.332031 60.242188 C 49.007812 61.101562 49.226562 61.421875 49.820312 61.367188 C 49.65625 61.046875 49.496094 60.722656 49.332031 60.242188 Z M 49.332031 60.242188 " fill-opacity="1" fill-rule="nonzero"/></g><path fill="#e6e9ff" d="M 49.65625 62.980469 C 49.605469 62.871094 49.605469 62.765625 49.550781 62.550781 C 50.144531 62.980469 50.578125 62.550781 51.066406 62.441406 C 51.550781 62.335938 52.09375 62.550781 52.582031 62.605469 L 52.582031 62.550781 C 52.472656 63.085938 52.039062 62.925781 51.660156 62.980469 C 51.335938 63.035156 50.902344 62.925781 50.6875 63.085938 C 50.199219 63.515625 49.929688 63.300781 49.65625 62.980469 Z M 49.65625 62.980469 " fill-opacity="1" fill-rule="nonzero"/><path fill="#e6e9ff" d="M 52.582031 62.605469 C 52.742188 62.496094 52.90625 62.28125 53.121094 62.121094 C 53.339844 61.960938 53.554688 61.851562 53.773438 61.691406 C 53.824219 61.746094 53.878906 61.851562 53.988281 61.90625 L 54.636719 62.066406 C 53.878906 62.226562 53.230469 62.390625 52.582031 62.605469 Z M 52.582031 62.605469 " fill-opacity="1" fill-rule="nonzero"/><path fill="#e6e9ff" d="M 40.617188 63.785156 C 40.671875 63.730469 40.726562 63.625 40.78125 63.570312 C 41.429688 63.300781 41.269531 64 41.59375 64.214844 C 41.484375 64.214844 41.375 64.269531 41.320312 64.269531 C 41.160156 64.324219 40.890625 64.429688 40.78125 64.375 C 40.671875 64.214844 40.671875 64 40.617188 63.785156 Z M 40.617188 63.785156 " fill-opacity="1" fill-rule="nonzero"/><path fill="#e6e9ff" d="M 54.582031 62.066406 C 54.476562 61.53125 55.015625 61.582031 55.234375 61.476562 C 55.394531 61.421875 55.667969 61.53125 55.992188 61.582031 C 55.503906 62.121094 55.070312 62.28125 54.582031 62.066406 Z M 54.582031 62.066406 " fill-opacity="1" fill-rule="nonzero"/><path stroke-linecap="butt" transform="matrix(0.747577, -0.000000000000000095, 0.000000000000000079, 0.623377, 24.597918, 18.730527)" fill="none" stroke-linejoin="miter" d="M -0.000350617 -0.0000932979 L 135.44239 -0.0000932979 " stroke="#3a2f2e" stroke-width="1" stroke-opacity="1" stroke-miterlimit="4"/><g clip-path="url(#id2)"><path fill="#89d1ff" d="M 169.75 52.890625 C 165.445312 53.660156 160.035156 54.121094 154.15625 54.121094 C 140.140625 54.121094 128.777344 51.503906 128.777344 48.273438 C 128.777344 46.238281 133.304688 44.441406 140.167969 43.394531 C 142.695312 46.351562 147.25 49.105469 155.101562 49.105469 C 161.421875 49.105469 165.378906 46.671875 167.839844 43.351562 C 174.871094 44.390625 179.53125 46.207031 179.53125 48.273438 C 179.53125 50.148438 175.703125 51.820312 169.75 52.890625 Z M 169.75 52.890625 " fill-opacity="1" fill-rule="nonzero"/></g><g clip-path="url(#id3)"><path fill="#3a2f2e" d="M 176.558594 44.964844 C 174.632812 44.160156 171.90625 43.46875 168.644531 42.953125 C 169.535156 41.613281 170.261719 40.078125 170.820312 38.363281 C 171.441406 36.457031 171.855469 34.324219 172.046875 32.027344 C 172.375 28.128906 171.957031 25.140625 171.9375 25.015625 C 171.90625 24.78125 171.6875 24.613281 171.453125 24.648438 C 171.214844 24.683594 171.054688 24.902344 171.085938 25.140625 C 171.089844 25.167969 171.507812 28.152344 171.191406 31.957031 C 170.898438 35.449219 169.910156 40.351562 166.855469 43.898438 C 164.121094 47.066406 160.167969 48.675781 155.105469 48.675781 C 145.253906 48.675781 140.976562 44.292969 139.207031 41.320312 C 139.199219 41.304688 139.1875 41.289062 139.179688 41.269531 C 139.769531 41.101562 140.4375 40.832031 141.058594 40.5 C 141.898438 40.050781 143.070312 39.277344 143.859375 38.136719 C 144.648438 36.992188 144.886719 35.75 144.558594 34.4375 C 144.289062 33.347656 143.652344 32.664062 142.8125 32.5625 C 142.0625 32.472656 141.285156 32.859375 140.644531 33.605469 C 140.375 32.726562 139.796875 32.050781 139.035156 31.792969 C 138.082031 31.472656 137.054688 31.898438 136.292969 32.9375 C 134.734375 35.050781 136.507812 38.386719 137.789062 40.597656 C 137.136719 40.5625 136.429688 40.320312 135.714844 39.882812 C 132.644531 38 129.296875 33.402344 129.210938 29.558594 C 129.183594 28.324219 129.359375 27.105469 129.699219 26.128906 C 130.101562 24.984375 130.707031 24.179688 131.507812 23.730469 C 132.222656 23.328125 133.105469 23.21875 134.125 23.40625 C 135.328125 23.621094 136.730469 24.25 138.292969 25.269531 C 139.820312 26.265625 141.773438 27.054688 144.097656 27.617188 C 146.234375 28.132812 148.617188 28.445312 151.1875 28.542969 C 151.773438 28.566406 152.367188 28.578125 152.957031 28.578125 C 157.289062 28.578125 161.632812 27.976562 165.101562 26.878906 C 167.566406 26.097656 170.691406 24.707031 171.582031 22.507812 C 171.789062 21.992188 171.875 21.214844 171.09375 20.441406 C 170.1875 19.546875 168.265625 18.832031 165.382812 18.320312 C 162.859375 17.875 159.707031 17.597656 156.261719 17.527344 C 154.925781 17.5 153.570312 17.507812 152.238281 17.542969 C 152.5625 16.707031 153.328125 16.152344 154.277344 15.460938 C 155.425781 14.628906 156.851562 13.589844 157.867188 11.691406 C 158.660156 10.207031 158.933594 8.644531 158.660156 7.175781 C 158.410156 5.835938 157.722656 4.664062 156.714844 3.878906 C 155.855469 3.203125 154.84375 2.871094 153.792969 2.917969 C 152.664062 2.96875 151.550781 3.464844 150.578125 4.363281 C 149.699219 5.167969 149.230469 6.144531 149.214844 7.1875 C 149.203125 8.074219 149.523438 8.96875 150.121094 9.699219 C 151.175781 11 152.710938 11.382812 153.769531 10.609375 C 153.960938 10.46875 154.003906 10.199219 153.863281 10.003906 C 153.722656 9.8125 153.453125 9.769531 153.261719 9.910156 C 152.496094 10.46875 151.4375 9.953125 150.785156 9.152344 C 149.96875 8.144531 149.574219 6.453125 151.15625 5 C 153.050781 3.257812 155 3.632812 156.1875 4.5625 C 157.71875 5.761719 158.660156 8.375 157.105469 11.28125 C 156.1875 13.003906 154.90625 13.9375 153.773438 14.757812 C 152.691406 15.542969 151.660156 16.296875 151.324219 17.570312 C 149.703125 17.632812 148.132812 17.738281 146.6875 17.890625 C 143.582031 18.210938 141.160156 18.71875 139.679688 19.351562 C 138.4375 19.882812 137.8125 20.53125 137.824219 21.28125 C 137.832031 21.964844 138.292969 22.566406 139.195312 23.074219 C 140.382812 23.746094 142.359375 24.277344 145.070312 24.65625 C 147.476562 24.996094 150.324219 25.1875 153.304688 25.214844 C 158.074219 25.257812 164.421875 24.84375 166.636719 23.515625 C 167.226562 23.164062 167.523438 22.742188 167.515625 22.269531 C 167.507812 21.863281 167.359375 21.519531 167.070312 21.253906 C 166.078125 20.335938 163.558594 20.503906 160.640625 20.699219 C 158.570312 20.835938 156.433594 20.980469 154.773438 20.738281 C 152.488281 20.410156 152.144531 19.480469 152.085938 18.808594 C 152.074219 18.667969 152.070312 18.535156 152.070312 18.410156 C 153.425781 18.371094 154.828125 18.363281 156.246094 18.394531 C 159.648438 18.464844 162.753906 18.734375 165.234375 19.171875 C 168.609375 19.773438 169.953125 20.527344 170.488281 21.058594 C 170.859375 21.421875 170.953125 21.769531 170.785156 22.183594 C 170.1875 23.65625 168.078125 25.03125 164.847656 26.050781 C 160.992188 27.269531 156.027344 27.863281 151.21875 27.679688 C 145.980469 27.476562 141.558594 26.363281 138.761719 24.542969 C 135.550781 22.449219 132.96875 21.921875 131.089844 22.976562 C 130.101562 23.527344 129.359375 24.492188 128.890625 25.839844 C 128.410156 27.214844 128.332031 28.628906 128.351562 29.578125 C 128.410156 32.128906 129.65625 34.496094 130.6875 36.035156 C 131.984375 37.960938 133.652344 39.628906 135.265625 40.621094 C 136.296875 41.253906 137.339844 41.539062 138.289062 41.449219 C 138.5625 41.9375 138.898438 42.472656 139.316406 43.023438 C 136.171875 43.542969 133.539062 44.226562 131.675781 45.015625 C 129.425781 45.964844 128.285156 47.0625 128.285156 48.273438 C 128.285156 49.261719 129.042969 50.175781 130.539062 50.988281 C 131.855469 51.707031 133.726562 52.347656 136.101562 52.894531 C 140.929688 54.007812 147.34375 54.621094 154.15625 54.621094 C 160.972656 54.621094 167.382812 54.007812 172.210938 52.894531 C 174.585938 52.347656 176.460938 51.707031 177.777344 50.988281 C 179.273438 50.175781 180.03125 49.261719 180.03125 48.273438 C 180.03125 47.039062 178.863281 45.925781 176.558594 44.964844 Z M 152.347656 20.808594 C 152.90625 21.195312 153.65625 21.453125 154.648438 21.597656 C 156.398438 21.851562 158.582031 21.703125 160.695312 21.5625 C 162.066406 21.472656 163.359375 21.386719 164.414062 21.417969 C 165.488281 21.453125 166.183594 21.613281 166.484375 21.890625 C 166.597656 21.996094 166.648438 22.117188 166.652344 22.28125 C 166.65625 22.417969 166.488281 22.597656 166.195312 22.773438 C 164.527344 23.773438 159.347656 24.40625 153.3125 24.351562 C 146.976562 24.292969 141.726562 23.511719 139.613281 22.320312 C 139.191406 22.082031 138.6875 21.707031 138.683594 21.273438 C 138.679688 20.921875 139.164062 20.511719 140.015625 20.148438 C 142.105469 19.253906 146.308594 18.632812 151.207031 18.441406 C 151.207031 18.582031 151.214844 18.730469 151.226562 18.886719 C 151.300781 19.699219 151.675781 20.34375 152.347656 20.808594 Z M 136.984375 33.453125 C 137.414062 32.867188 137.914062 32.554688 138.398438 32.554688 C 138.523438 32.554688 138.644531 32.574219 138.761719 32.613281 C 139.46875 32.851562 139.957031 33.738281 139.949219 34.773438 C 139.945312 34.972656 140.082031 35.148438 140.273438 35.195312 C 140.46875 35.242188 140.667969 35.152344 140.761719 34.976562 C 141.292969 33.953125 142.054688 33.34375 142.707031 33.421875 C 143.179688 33.476562 143.542969 33.914062 143.722656 34.648438 C 143.988281 35.703125 143.792969 36.710938 143.152344 37.640625 C 142.058594 39.21875 139.945312 40.191406 138.726562 40.492188 C 137.550781 38.484375 135.683594 35.222656 136.984375 33.453125 Z M 177.300781 50.113281 C 176.0625 50.785156 174.273438 51.394531 171.988281 51.921875 C 167.230469 53.019531 160.898438 53.621094 154.15625 53.621094 C 147.414062 53.621094 141.082031 53.019531 136.324219 51.921875 C 134.035156 51.394531 132.25 50.785156 131.011719 50.113281 C 129.875 49.492188 129.277344 48.859375 129.277344 48.273438 C 129.277344 47.527344 130.265625 46.695312 132.058594 45.9375 C 133.964844 45.132812 136.726562 44.4375 140.054688 43.917969 C 142.519531 46.671875 147.027344 49.539062 155.105469 49.539062 C 160.429688 49.539062 164.601562 47.832031 167.503906 44.464844 C 167.671875 44.269531 167.832031 44.070312 167.992188 43.863281 C 171.398438 44.375 174.226562 45.074219 176.179688 45.890625 C 178.019531 46.65625 179.035156 47.503906 179.035156 48.277344 C 179.035156 48.859375 178.433594 49.492188 177.300781 50.113281 Z M 177.300781 50.113281 " fill-opacity="1" fill-rule="nonzero"/></g><path stroke-linecap="butt" transform="matrix(0.752229, 0, 0, 0.623377, 64.71213, 54.016171)" fill="none" stroke-linejoin="miter" d="M -0.00158531 -0.000875915 L 115.665068 -0.000875915 " stroke="#3a2f2e" stroke-width="1" stroke-opacity="1" stroke-miterlimit="4"/><g fill="#3a2f2e" fill-opacity="1"><g transform="translate(27.408683, 44.916475)"><g><path d="M 7.15625 -20.171875 C 9.070312 -20.171875 10.863281 -19.78125 12.53125 -19 L 12.53125 -17.640625 C 10.832031 -18.546875 9.078125 -19 7.265625 -19 C 6.078125 -19 5.082031 -18.734375 4.28125 -18.203125 C 3.488281 -17.671875 3.09375 -16.8125 3.09375 -15.625 C 3.09375 -13.5625 4.484375 -12.078125 7.265625 -11.171875 C 9.359375 -10.503906 10.851562 -9.6875 11.75 -8.71875 C 12.644531 -7.75 13.09375 -6.519531 13.09375 -5.03125 C 13.09375 -3.3125 12.582031 -2 11.5625 -1.09375 C 10.539062 -0.1875 9.0625 0.265625 7.125 0.265625 C 5.269531 0.265625 3.550781 -0.203125 1.96875 -1.140625 L 1.96875 -2.53125 C 3.5 -1.445312 5.1875 -0.90625 7.03125 -0.90625 C 8.550781 -0.90625 9.707031 -1.257812 10.5 -1.96875 C 11.300781 -2.675781 11.703125 -3.695312 11.703125 -5.03125 C 11.703125 -6.195312 11.34375 -7.160156 10.625 -7.921875 C 9.90625 -8.691406 8.75 -9.34375 7.15625 -9.875 C 3.539062 -11.039062 1.734375 -12.957031 1.734375 -15.625 C 1.734375 -17.0625 2.203125 -18.175781 3.140625 -18.96875 C 4.078125 -19.769531 5.414062 -20.171875 7.15625 -20.171875 Z M 7.15625 -20.171875 "/></g></g></g><g fill="#3a2f2e" fill-opacity="1"><g transform="translate(42.997707, 44.916475)"><g><path d="M 3.375 -14.15625 L 3.40625 -11.65625 L 3.453125 -11.65625 C 4.765625 -13.519531 6.390625 -14.453125 8.328125 -14.453125 C 9.992188 -14.453125 11.191406 -13.992188 11.921875 -13.078125 C 12.648438 -12.160156 13.015625 -10.613281 13.015625 -8.4375 L 13.015625 0 L 11.734375 0 L 11.734375 -8.296875 C 11.734375 -10.265625 11.441406 -11.597656 10.859375 -12.296875 C 10.285156 -13.003906 9.351562 -13.359375 8.0625 -13.359375 C 7.03125 -13.359375 6 -12.859375 4.96875 -11.859375 C 3.945312 -10.859375 3.4375 -9.859375 3.4375 -8.859375 L 3.4375 0 L 2.125 0 L 2.125 -14.15625 Z M 3.375 -14.15625 "/></g></g></g><g fill="#3a2f2e" fill-opacity="1"><g transform="translate(58.79966, 44.916475)"><g><path d="M 11.4375 -14.15625 L 12.75 -14.15625 L 12.75 0 L 11.5 0 L 11.46875 -2.5 L 11.421875 -2.5 C 10.847656 -1.613281 10.132812 -0.929688 9.28125 -0.453125 C 8.4375 0.0234375 7.523438 0.265625 6.546875 0.265625 C 4.984375 0.265625 3.832031 -0.15625 3.09375 -1 C 2.363281 -1.851562 2 -3.273438 2 -5.265625 L 2 -14.15625 L 3.265625 -14.15625 L 3.265625 -5.40625 C 3.265625 -3.625 3.550781 -2.414062 4.125 -1.78125 C 4.707031 -1.144531 5.601562 -0.828125 6.8125 -0.828125 C 7.914062 -0.828125 8.960938 -1.289062 9.953125 -2.21875 C 10.941406 -3.15625 11.4375 -4.191406 11.4375 -5.328125 Z M 11.4375 -14.15625 "/></g></g></g><g fill="#3a2f2e" fill-opacity="1"><g transform="translate(74.468533, 44.916475)"><g><path d="M 6.140625 5.1875 C 7.796875 5.1875 9.097656 4.863281 10.046875 4.21875 C 10.992188 3.582031 11.46875 2.734375 11.46875 1.671875 C 11.46875 -0.304688 9.914062 -1.296875 6.8125 -1.296875 C 4.84375 -1.296875 3.421875 -1.507812 2.546875 -1.9375 C 1.679688 -2.363281 1.25 -3.046875 1.25 -3.984375 C 1.25 -4.710938 1.601562 -5.414062 2.3125 -6.09375 C 1.375 -6.925781 0.90625 -8.046875 0.90625 -9.453125 C 0.90625 -10.921875 1.390625 -12.117188 2.359375 -13.046875 C 3.328125 -13.984375 4.570312 -14.453125 6.09375 -14.453125 C 8.3125 -14.453125 9.960938 -13.769531 11.046875 -12.40625 L 11.09375 -12.40625 L 11.125 -14.15625 L 12.34375 -14.15625 L 12.34375 -9.453125 C 12.34375 -7.960938 11.84375 -6.796875 10.84375 -5.953125 C 9.84375 -5.117188 8.4375 -4.703125 6.625 -4.703125 C 5.257812 -4.703125 4.113281 -4.960938 3.1875 -5.484375 C 2.675781 -5.003906 2.421875 -4.539062 2.421875 -4.09375 C 2.421875 -3.738281 2.515625 -3.453125 2.703125 -3.234375 C 2.898438 -3.015625 3.34375 -2.816406 4.03125 -2.640625 C 4.726562 -2.472656 5.703125 -2.390625 6.953125 -2.390625 C 10.835938 -2.390625 12.78125 -1.070312 12.78125 1.5625 C 12.78125 2.988281 12.195312 4.128906 11.03125 4.984375 C 9.863281 5.847656 8.234375 6.28125 6.140625 6.28125 C 4.285156 6.28125 2.539062 5.898438 0.90625 5.140625 L 0.90625 3.890625 C 2.519531 4.753906 4.265625 5.1875 6.140625 5.1875 Z M 2.1875 -9.421875 C 2.1875 -8.265625 2.578125 -7.351562 3.359375 -6.6875 C 4.140625 -6.019531 5.21875 -5.6875 6.59375 -5.6875 C 7.945312 -5.6875 9.015625 -6.019531 9.796875 -6.6875 C 10.585938 -7.351562 10.984375 -8.265625 10.984375 -9.421875 C 10.984375 -10.640625 10.5625 -11.609375 9.71875 -12.328125 C 8.882812 -13.046875 7.773438 -13.40625 6.390625 -13.40625 C 5.148438 -13.40625 4.140625 -13.035156 3.359375 -12.296875 C 2.578125 -11.566406 2.1875 -10.609375 2.1875 -9.421875 Z M 2.1875 -9.421875 "/></g></g></g><g fill="#3a2f2e" fill-opacity="1"><g transform="translate(89.072762, 44.916475)"><g><path d="M 6.140625 5.1875 C 7.796875 5.1875 9.097656 4.863281 10.046875 4.21875 C 10.992188 3.582031 11.46875 2.734375 11.46875 1.671875 C 11.46875 -0.304688 9.914062 -1.296875 6.8125 -1.296875 C 4.84375 -1.296875 3.421875 -1.507812 2.546875 -1.9375 C 1.679688 -2.363281 1.25 -3.046875 1.25 -3.984375 C 1.25 -4.710938 1.601562 -5.414062 2.3125 -6.09375 C 1.375 -6.925781 0.90625 -8.046875 0.90625 -9.453125 C 0.90625 -10.921875 1.390625 -12.117188 2.359375 -13.046875 C 3.328125 -13.984375 4.570312 -14.453125 6.09375 -14.453125 C 8.3125 -14.453125 9.960938 -13.769531 11.046875 -12.40625 L 11.09375 -12.40625 L 11.125 -14.15625 L 12.34375 -14.15625 L 12.34375 -9.453125 C 12.34375 -7.960938 11.84375 -6.796875 10.84375 -5.953125 C 9.84375 -5.117188 8.4375 -4.703125 6.625 -4.703125 C 5.257812 -4.703125 4.113281 -4.960938 3.1875 -5.484375 C 2.675781 -5.003906 2.421875 -4.539062 2.421875 -4.09375 C 2.421875 -3.738281 2.515625 -3.453125 2.703125 -3.234375 C 2.898438 -3.015625 3.34375 -2.816406 4.03125 -2.640625 C 4.726562 -2.472656 5.703125 -2.390625 6.953125 -2.390625 C 10.835938 -2.390625 12.78125 -1.070312 12.78125 1.5625 C 12.78125 2.988281 12.195312 4.128906 11.03125 4.984375 C 9.863281 5.847656 8.234375 6.28125 6.140625 6.28125 C 4.285156 6.28125 2.539062 5.898438 0.90625 5.140625 L 0.90625 3.890625 C 2.519531 4.753906 4.265625 5.1875 6.140625 5.1875 Z M 2.1875 -9.421875 C 2.1875 -8.265625 2.578125 -7.351562 3.359375 -6.6875 C 4.140625 -6.019531 5.21875 -5.6875 6.59375 -5.6875 C 7.945312 -5.6875 9.015625 -6.019531 9.796875 -6.6875 C 10.585938 -7.351562 10.984375 -8.265625 10.984375 -9.421875 C 10.984375 -10.640625 10.5625 -11.609375 9.71875 -12.328125 C 8.882812 -13.046875 7.773438 -13.40625 6.390625 -13.40625 C 5.148438 -13.40625 4.140625 -13.035156 3.359375 -12.296875 C 2.578125 -11.566406 2.1875 -10.609375 2.1875 -9.421875 Z M 2.1875 -9.421875 "/></g></g></g><g fill="#3a2f2e" fill-opacity="1"><g transform="translate(103.676991, 44.916475)"><g><path d="M 3.359375 0 L 3.359375 -20.4375 L 4.703125 -20.4375 L 4.703125 0 Z M 3.359375 0 "/></g></g></g><g fill="#3a2f2e" fill-opacity="1"><g transform="translate(112.532151, 44.916475)"><g><path d="M 2.5 -6.8125 C 2.550781 -2.800781 4.351562 -0.796875 7.90625 -0.796875 C 9.300781 -0.796875 10.6875 -1.082031 12.0625 -1.65625 L 12.0625 -0.484375 C 10.582031 0.015625 9.171875 0.265625 7.828125 0.265625 C 5.640625 0.265625 3.984375 -0.347656 2.859375 -1.578125 C 1.734375 -2.816406 1.171875 -4.648438 1.171875 -7.078125 C 1.171875 -9.722656 1.742188 -11.613281 2.890625 -12.75 C 4.035156 -13.882812 5.503906 -14.453125 7.296875 -14.453125 C 11.015625 -14.453125 12.875 -12.066406 12.875 -7.296875 L 12.875 -6.8125 Z M 2.5 -7.875 L 11.609375 -7.875 C 11.546875 -11.550781 10.109375 -13.390625 7.296875 -13.390625 C 4.273438 -13.390625 2.675781 -11.550781 2.5 -7.875 Z M 2.5 -7.875 "/></g></g></g><g fill="#3a2f2e" fill-opacity="1"><g transform="translate(76.199717, 62.336614)"><g><path d="M 0.296875 -1.828125 L 0.234375 -2.03125 L 0.296875 -2.15625 C 0.398438 -2.238281 1.25 -2.296875 2.84375 -2.328125 L 3.109375 -2.21875 L 3.171875 -1.96875 L 3.109375 -1.859375 C 2.960938 -1.773438 2.085938 -1.734375 0.484375 -1.734375 Z M 0.296875 -1.828125 "/></g></g></g><g fill="#3a2f2e" fill-opacity="1"><g transform="translate(80.445753, 62.336614)"><g><path d="M 2.46875 0.234375 C 2.445312 0.078125 2.507812 -0.0234375 2.65625 -0.078125 C 2.851562 -0.171875 3.03125 -0.300781 3.1875 -0.46875 L 3.328125 -0.671875 C 3.234375 -0.660156 3.140625 -0.65625 3.046875 -0.65625 C 2.847656 -0.65625 2.664062 -0.679688 2.5 -0.734375 C 2.28125 -0.878906 2.117188 -1.035156 2.015625 -1.203125 C 1.921875 -1.367188 1.875 -1.539062 1.875 -1.71875 C 1.875 -1.894531 1.898438 -2.070312 1.953125 -2.25 C 2.003906 -2.425781 2.078125 -2.570312 2.171875 -2.6875 C 2.273438 -2.8125 2.375 -2.898438 2.46875 -2.953125 C 2.570312 -3.015625 2.695312 -3.0625 2.84375 -3.09375 C 2.875 -3.09375 2.921875 -3.09375 2.984375 -3.09375 C 3.109375 -3.09375 3.265625 -3.070312 3.453125 -3.03125 L 3.40625 -3.484375 C 1.851562 -3.410156 0.988281 -3.375 0.8125 -3.375 C 0.6875 -3.382812 0.578125 -3.4375 0.484375 -3.53125 L 0.390625 -3.625 L 0.390625 -3.796875 L 0.421875 -3.875 C 0.671875 -3.9375 0.925781 -3.96875 1.1875 -3.96875 L 1.34375 -3.9375 L 3.390625 -4.046875 L 3.34375 -5.015625 L 3.453125 -5.25 L 3.703125 -5.3125 C 3.773438 -5.3125 3.835938 -5.273438 3.890625 -5.203125 C 3.953125 -5.066406 4 -4.941406 4.03125 -4.828125 L 4.125 -4.09375 L 5.515625 -4.15625 L 5.78125 -4.265625 L 5.9375 -4.203125 L 6.1875 -4.109375 L 6.234375 -3.96875 L 6.171875 -3.625 L 5.65625 -3.5625 L 4.140625 -3.46875 L 4.15625 -2.46875 C 4.164062 -2.351562 4.171875 -2.195312 4.171875 -2 C 4.171875 -1.71875 4.15625 -1.472656 4.125 -1.265625 C 4.101562 -1.054688 4.066406 -0.867188 4.015625 -0.703125 C 3.929688 -0.472656 3.8125 -0.265625 3.65625 -0.078125 C 3.539062 0.046875 3.40625 0.148438 3.25 0.234375 C 3.09375 0.378906 2.9375 0.453125 2.78125 0.453125 C 2.582031 0.410156 2.476562 0.335938 2.46875 0.234375 Z M 3.328125 -1.28125 C 3.421875 -1.476562 3.46875 -1.675781 3.46875 -1.875 C 3.46875 -2.007812 3.441406 -2.160156 3.390625 -2.328125 C 3.359375 -2.453125 3.269531 -2.515625 3.125 -2.515625 C 3.070312 -2.515625 3.023438 -2.507812 2.984375 -2.5 C 2.671875 -2.394531 2.515625 -2.144531 2.515625 -1.75 C 2.515625 -1.53125 2.695312 -1.363281 3.0625 -1.25 Z M 3.328125 -1.28125 "/></g></g></g><g fill="#3a2f2e" fill-opacity="1"><g transform="translate(88.014196, 62.336614)"><g><path d="M 1.34375 -1.15625 C 1.320312 -1.15625 1.289062 -1.15625 1.25 -1.15625 C 1.070312 -1.15625 0.945312 -1.226562 0.875 -1.375 L 0.875 -1.578125 C 0.96875 -1.816406 1.085938 -2.097656 1.234375 -2.421875 C 1.347656 -2.671875 1.441406 -2.988281 1.515625 -3.375 C 1.296875 -3.332031 1.039062 -3.289062 0.75 -3.25 C 0.550781 -3.226562 0.382812 -3.3125 0.25 -3.5 L 0.234375 -3.59375 L 0.375 -3.75 L 0.5 -3.828125 C 0.707031 -3.867188 0.945312 -3.921875 1.21875 -3.984375 C 1.375 -4.015625 1.53125 -4.046875 1.6875 -4.078125 L 1.71875 -4.390625 C 1.757812 -4.617188 1.785156 -4.816406 1.796875 -4.984375 C 1.867188 -5.054688 1.953125 -5.097656 2.046875 -5.109375 C 2.171875 -5.097656 2.265625 -5.070312 2.328125 -5.03125 C 2.421875 -4.914062 2.46875 -4.800781 2.46875 -4.6875 L 2.390625 -4.203125 C 2.910156 -4.296875 3.253906 -4.351562 3.421875 -4.375 L 3.625 -4.3125 C 3.707031 -4.257812 3.753906 -4.175781 3.765625 -4.0625 C 3.765625 -3.9375 3.707031 -3.835938 3.59375 -3.765625 C 3.476562 -3.691406 3.304688 -3.664062 3.078125 -3.6875 L 2.25 -3.515625 C 2.144531 -3.128906 2.078125 -2.835938 2.046875 -2.640625 C 2.003906 -2.429688 1.945312 -2.242188 1.875 -2.078125 C 1.769531 -1.796875 1.695312 -1.597656 1.65625 -1.484375 L 1.46875 -1.265625 Z M 5.875 -2.96875 C 5.601562 -3.0625 5.367188 -3.148438 5.171875 -3.234375 C 4.984375 -3.328125 4.800781 -3.429688 4.625 -3.546875 L 4.421875 -3.796875 L 4.453125 -3.984375 C 4.679688 -4.023438 4.8125 -4.050781 4.84375 -4.0625 L 5.28125 -3.859375 L 5.921875 -3.640625 L 6.125 -3.546875 C 6.21875 -3.429688 6.265625 -3.328125 6.265625 -3.234375 C 6.265625 -3.117188 6.1875 -3.050781 6.03125 -3.03125 Z M 2.453125 -0.875 C 2.503906 -1.101562 2.597656 -1.296875 2.734375 -1.453125 C 2.835938 -1.523438 2.9375 -1.582031 3.03125 -1.625 C 3.125 -1.664062 3.238281 -1.6875 3.375 -1.6875 C 3.46875 -1.6875 3.554688 -1.679688 3.640625 -1.671875 L 4 -1.578125 C 4.019531 -1.671875 4.03125 -1.785156 4.03125 -1.921875 C 4.03125 -2.054688 4.015625 -2.269531 3.984375 -2.5625 C 4.085938 -2.6875 4.195312 -2.75 4.3125 -2.75 C 4.332031 -2.75 4.351562 -2.75 4.375 -2.75 L 4.515625 -2.6875 L 4.609375 -2.5625 L 4.65625 -2.125 C 4.664062 -2.101562 4.671875 -2.0625 4.671875 -2 C 4.671875 -1.832031 4.640625 -1.53125 4.578125 -1.09375 C 4.929688 -0.863281 5.144531 -0.660156 5.21875 -0.484375 L 5.34375 -0.296875 C 5.351562 -0.253906 5.359375 -0.210938 5.359375 -0.171875 C 5.359375 -0.0546875 5.296875 0.00390625 5.171875 0.015625 L 4.921875 -0.03125 C 4.765625 -0.164062 4.609375 -0.28125 4.453125 -0.375 L 4.359375 -0.453125 L 4.140625 -0.109375 C 4.015625 0.117188 3.789062 0.226562 3.46875 0.21875 C 3.1875 0.175781 2.941406 0.0664062 2.734375 -0.109375 C 2.535156 -0.296875 2.441406 -0.550781 2.453125 -0.875 Z M 3.875 -0.796875 C 3.875 -0.878906 3.835938 -0.945312 3.765625 -1 C 3.691406 -1.0625 3.59375 -1.101562 3.46875 -1.125 C 3.226562 -1.113281 3.082031 -0.988281 3.03125 -0.75 C 3.03125 -0.550781 3.15625 -0.410156 3.40625 -0.328125 C 3.570312 -0.335938 3.691406 -0.410156 3.765625 -0.546875 C 3.835938 -0.628906 3.875 -0.710938 3.875 -0.796875 Z M 3.875 -0.796875 "/></g></g></g><g fill="#3a2f2e" fill-opacity="1"><g transform="translate(95.582638, 62.336614)"><g><path d="M 5.796875 -3.328125 C 5.710938 -3.429688 5.613281 -3.582031 5.5 -3.78125 L 5.453125 -4 C 5.410156 -4.09375 5.390625 -4.203125 5.390625 -4.328125 C 5.390625 -4.390625 5.394531 -4.441406 5.40625 -4.484375 C 5.4375 -4.554688 5.539062 -4.585938 5.71875 -4.578125 C 5.851562 -4.441406 5.957031 -4.3125 6.03125 -4.1875 L 6.28125 -3.734375 C 6.300781 -3.660156 6.3125 -3.609375 6.3125 -3.578125 C 6.3125 -3.484375 6.28125 -3.40625 6.21875 -3.34375 C 6.164062 -3.289062 6.085938 -3.257812 5.984375 -3.25 Z M 3.203125 0.515625 L 3.046875 0.5 C 2.441406 -0.175781 1.765625 -0.816406 1.015625 -1.421875 L 0.8125 -1.625 C 0.75 -1.738281 0.707031 -1.847656 0.6875 -1.953125 L 0.765625 -2.125 C 0.921875 -2.175781 1.054688 -2.242188 1.171875 -2.328125 C 2.316406 -3.390625 2.972656 -4.050781 3.140625 -4.3125 C 3.253906 -4.425781 3.394531 -4.476562 3.5625 -4.46875 L 3.78125 -4.3125 L 3.796875 -4.09375 C 3.378906 -3.550781 2.957031 -3.09375 2.53125 -2.71875 C 2.070312 -2.320312 1.753906 -2.03125 1.578125 -1.84375 C 2.609375 -0.945312 3.210938 -0.359375 3.390625 -0.078125 L 3.546875 0.0625 L 3.65625 0.1875 L 3.65625 0.40625 C 3.550781 0.519531 3.4375 0.578125 3.3125 0.578125 Z M 4.703125 -2.96875 L 4.46875 -3.359375 C 4.363281 -3.566406 4.273438 -3.769531 4.203125 -3.96875 L 4.25 -4.21875 C 4.332031 -4.269531 4.414062 -4.296875 4.5 -4.296875 C 4.53125 -4.296875 4.578125 -4.289062 4.640625 -4.28125 C 4.878906 -3.96875 5.078125 -3.625 5.234375 -3.25 C 5.242188 -3.207031 5.25 -3.15625 5.25 -3.09375 C 5.25 -3.039062 5.242188 -2.988281 5.234375 -2.9375 C 5.179688 -2.84375 5.101562 -2.769531 5 -2.71875 C 4.894531 -2.78125 4.796875 -2.863281 4.703125 -2.96875 Z M 4.703125 -2.96875 "/></g></g></g><g fill="#3a2f2e" fill-opacity="1"><g transform="translate(103.15108, 62.336614)"><g><path d="M 1.984375 -0.453125 C 1.984375 -0.609375 2.019531 -0.773438 2.09375 -0.953125 C 2.207031 -1.085938 2.335938 -1.1875 2.484375 -1.25 C 2.628906 -1.320312 2.773438 -1.359375 2.921875 -1.359375 C 3.046875 -1.359375 3.160156 -1.332031 3.265625 -1.28125 C 3.378906 -1.238281 3.472656 -1.179688 3.546875 -1.109375 C 3.640625 -0.992188 3.6875 -0.828125 3.6875 -0.609375 C 3.6875 -0.566406 3.679688 -0.5 3.671875 -0.40625 C 3.816406 -0.488281 3.929688 -0.609375 4.015625 -0.765625 C 4.097656 -0.921875 4.140625 -1.082031 4.140625 -1.25 C 4.140625 -1.34375 4.117188 -1.441406 4.078125 -1.546875 C 4.023438 -1.691406 3.894531 -1.8125 3.6875 -1.90625 C 3.488281 -2.007812 3.253906 -2.0625 2.984375 -2.0625 C 2.722656 -2.0625 2.476562 -2.015625 2.25 -1.921875 L 1.671875 -1.71875 L 1.53125 -1.953125 L 1.515625 -2.125 C 1.523438 -2.207031 1.5625 -2.285156 1.625 -2.359375 L 1.734375 -2.4375 L 3.796875 -4.1875 L 1.953125 -3.96875 C 1.867188 -3.96875 1.804688 -3.96875 1.765625 -3.96875 C 1.660156 -3.96875 1.554688 -3.984375 1.453125 -4.015625 L 1.21875 -4.265625 L 1.171875 -4.453125 L 1.21875 -4.5 L 1.40625 -4.578125 C 1.570312 -4.617188 2.546875 -4.695312 4.328125 -4.8125 L 4.6875 -4.6875 C 4.71875 -4.644531 4.734375 -4.585938 4.734375 -4.515625 C 4.734375 -4.398438 4.6875 -4.257812 4.59375 -4.09375 C 4.59375 -4.03125 4.097656 -3.578125 3.109375 -2.734375 C 3.585938 -2.679688 3.957031 -2.5625 4.21875 -2.375 C 4.476562 -2.1875 4.648438 -1.972656 4.734375 -1.734375 C 4.785156 -1.597656 4.8125 -1.457031 4.8125 -1.3125 C 4.8125 -1.125 4.773438 -0.929688 4.703125 -0.734375 C 4.640625 -0.546875 4.546875 -0.378906 4.421875 -0.234375 C 4.234375 0.00390625 4.023438 0.171875 3.796875 0.265625 C 3.566406 0.367188 3.347656 0.421875 3.140625 0.421875 C 3.015625 0.421875 2.851562 0.40625 2.65625 0.375 C 2.457031 0.3125 2.296875 0.207031 2.171875 0.0625 C 2.046875 -0.0820312 1.984375 -0.253906 1.984375 -0.453125 Z M 3.234375 -0.421875 C 3.222656 -0.640625 3.113281 -0.757812 2.90625 -0.78125 C 2.6875 -0.75 2.578125 -0.613281 2.578125 -0.375 C 2.679688 -0.257812 2.8125 -0.203125 2.96875 -0.203125 C 3.03125 -0.203125 3.078125 -0.207031 3.109375 -0.21875 Z M 3.234375 -0.421875 "/></g></g></g><g fill="#3a2f2e" fill-opacity="1"><g transform="translate(110.719522, 62.336614)"><g><path d="M 0.296875 -1.828125 L 0.234375 -2.03125 L 0.296875 -2.15625 C 0.398438 -2.238281 1.25 -2.296875 2.84375 -2.328125 L 3.109375 -2.21875 L 3.171875 -1.96875 L 3.109375 -1.859375 C 2.960938 -1.773438 2.085938 -1.734375 0.484375 -1.734375 Z M 0.296875 -1.828125 "/></g></g></g></svg>