<svg xmlns="http://www.w3.org/2000/svg" xmlns:xlink="http://www.w3.org/1999/xlink" width="220" zoomAndPan="magnify" viewBox="0 0 165 47.25" height="63" preserveAspectRatio="xMidYMid meet" version="1.0"><defs><g/><clipPath id="id1"><path d="M 43.792969 8.203125 L 99.164062 8.203125 L 99.164062 42.164062 L 43.792969 42.164062 Z M 43.792969 8.203125 " clip-rule="nonzero"/></clipPath><clipPath id="id2"><path d="M 97.695312 27 L 126.488281 27 L 126.488281 33.539062 L 97.695312 33.539062 Z M 97.695312 27 " clip-rule="nonzero"/></clipPath><clipPath id="id3"><path d="M 97.695312 4.746094 L 126.488281 4.746094 L 126.488281 33.539062 L 97.695312 33.539062 Z M 97.695312 4.746094 " clip-rule="nonzero"/></clipPath></defs><g clip-path="url(#id1)"><path fill="#e6e9ff" d="M 49.941406 39.183594 C 49.726562 39.394531 49.546875 39.484375 49.273438 39.273438 C 49.214844 39.210938 49.121094 39.210938 49 39.183594 C 49.03125 39.121094 49.09375 39.03125 49.152344 38.910156 C 49.03125 38.878906 48.851562 38.878906 48.789062 38.785156 C 48.730469 38.695312 48.789062 38.542969 48.820312 38.332031 C 48.699219 38.359375 48.546875 38.359375 48.425781 38.390625 L 48.246094 38.027344 C 48.304688 38.027344 48.394531 37.996094 48.488281 37.996094 L 48.488281 37.9375 C 48.394531 37.90625 48.273438 37.875 48.273438 37.875 C 48.183594 37.753906 48.152344 37.691406 48.09375 37.660156 C 48.03125 37.632812 47.972656 37.601562 47.941406 37.570312 C 47.851562 37.511719 47.789062 37.449219 47.699219 37.359375 C 47.820312 37.296875 47.910156 37.265625 48.03125 37.207031 C 48.09375 37.175781 48.183594 37.175781 48.246094 37.144531 C 48.183594 37.085938 48.125 37.054688 48.0625 36.992188 C 48.003906 36.933594 47.941406 36.839844 47.910156 36.75 C 47.851562 36.535156 47.820312 36.324219 47.761719 36.113281 C 47.699219 35.988281 47.578125 35.867188 47.488281 35.746094 C 47.457031 35.714844 47.367188 35.6875 47.335938 35.65625 C 47.214844 35.441406 47.183594 35.109375 47.035156 34.988281 C 46.730469 34.742188 47.035156 34.410156 46.792969 34.195312 C 46.730469 34.136719 46.640625 34.042969 46.640625 33.953125 C 46.640625 33.738281 46.246094 33.648438 46.488281 33.375 C 46.519531 33.34375 46.367188 33.039062 46.246094 32.949219 C 45.851562 32.644531 45.945312 32.128906 45.703125 31.765625 C 45.671875 31.703125 45.761719 31.582031 45.761719 31.492188 C 45.367188 31.246094 45.277344 30.882812 45.488281 30.519531 C 45.339844 30.394531 45.1875 30.304688 45.066406 30.183594 L 44.976562 30.09375 C 45.550781 29.96875 45.367188 29.484375 45.460938 29.121094 C 45.339844 29.058594 45.246094 29.027344 45.097656 28.96875 C 45.15625 28.90625 45.21875 28.875 45.277344 28.816406 C 45.066406 28.601562 44.429688 28.542969 45.003906 27.996094 C 44.824219 27.933594 44.671875 27.871094 44.460938 27.8125 C 44.582031 27.71875 44.671875 27.660156 44.761719 27.597656 C 44.671875 27.539062 44.550781 27.507812 44.429688 27.417969 C 44.308594 27.265625 44.761719 26.898438 44.277344 26.71875 L 44.277344 26.261719 C 44.308594 26.230469 44.398438 26.171875 44.519531 26.109375 C 44.371094 26.078125 44.277344 26.046875 44.25 26.046875 C 44.1875 25.746094 44.128906 25.472656 44.066406 25.226562 C 44.007812 25.226562 43.976562 25.199219 43.914062 25.199219 C 44.007812 25.167969 44.066406 25.136719 44.15625 25.105469 C 44.15625 25.074219 44.128906 25.046875 44.128906 25.015625 C 44.007812 24.953125 43.914062 24.921875 43.792969 24.863281 C 43.792969 24.832031 43.792969 24.742188 43.824219 24.679688 C 43.914062 24.679688 44.035156 24.710938 44.128906 24.710938 C 45.1875 23.828125 45.792969 23.554688 47.335938 23.191406 C 48.183594 22.976562 49 22.703125 49.820312 22.460938 C 50.0625 22.371094 50.332031 22.277344 50.546875 22.125 C 50.667969 22.035156 50.695312 21.824219 50.726562 21.640625 C 50.726562 21.550781 50.605469 21.425781 50.484375 21.398438 C 50.210938 21.277344 50.242188 21.0625 50.273438 20.878906 C 50.152344 20.757812 50.03125 20.667969 49.910156 20.546875 C 50 20.425781 50.0625 20.332031 50.121094 20.242188 C 49.636719 20.332031 49.789062 19.90625 49.726562 19.726562 C 49.578125 19.359375 49.546875 18.996094 49.457031 18.601562 C 49.484375 18.601562 49.546875 18.601562 49.605469 18.628906 C 49.457031 18.175781 49.335938 17.75 49.183594 17.292969 C 49.214844 17.292969 49.242188 17.261719 49.273438 17.261719 C 49.183594 17.171875 49.0625 17.109375 48.941406 16.988281 C 49.152344 16.746094 49.394531 16.5625 49.425781 16.230469 C 49.457031 15.832031 49.878906 15.710938 50.210938 15.558594 C 51.121094 15.195312 52.058594 14.859375 52.96875 14.464844 C 53.542969 14.222656 54.085938 13.917969 54.664062 13.675781 C 55.207031 13.433594 55.753906 13.1875 56.328125 12.976562 C 56.871094 12.761719 57.449219 12.582031 57.992188 12.429688 C 58.476562 12.308594 58.992188 12.246094 59.476562 12.125 C 59.6875 12.09375 59.871094 11.972656 60.050781 11.910156 C 61.019531 11.636719 61.988281 11.394531 62.925781 11.121094 C 63.746094 10.910156 64.53125 10.664062 65.347656 10.574219 C 65.683594 10.542969 66.015625 10.179688 66.378906 10.484375 C 66.410156 10.511719 66.53125 10.390625 66.621094 10.390625 C 66.773438 10.363281 66.894531 10.390625 67.042969 10.390625 C 66.953125 9.9375 67.40625 10.179688 67.558594 10.148438 C 68.074219 9.996094 68.648438 9.90625 69.195312 9.875 C 70.40625 9.785156 71.554688 9.386719 72.734375 9.328125 C 73.433594 9.265625 74.128906 9.113281 74.824219 9.023438 C 74.886719 9.023438 75.15625 8.839844 75.035156 9.113281 C 75.945312 8.71875 76.945312 8.8125 77.914062 8.660156 C 77.914062 8.78125 77.914062 8.839844 77.882812 8.933594 C 77.941406 8.902344 78.035156 8.871094 78.035156 8.871094 C 77.941406 8.597656 78.125 8.597656 78.304688 8.566406 C 78.761719 8.539062 79.246094 8.507812 79.699219 8.476562 C 80.214844 8.445312 80.699219 8.386719 81.210938 8.355469 C 81.304688 8.355469 81.394531 8.386719 81.484375 8.414062 C 81.605469 8.476562 81.667969 8.476562 81.816406 8.386719 C 81.96875 8.265625 82.273438 8.292969 82.484375 8.292969 C 83.421875 8.265625 84.359375 8.234375 85.300781 8.234375 C 85.964844 8.234375 86.601562 8.292969 87.269531 8.324219 C 87.601562 8.355469 87.933594 8.386719 88.265625 8.386719 C 88.539062 8.386719 89.207031 8.933594 89.113281 9.144531 C 88.992188 9.417969 89.296875 9.632812 89.144531 9.875 C 89.144531 9.875 89.234375 9.9375 89.296875 9.964844 C 89.144531 10.148438 89.175781 10.238281 89.355469 10.847656 C 89.449219 11.152344 89.449219 11.515625 89.449219 11.851562 C 89.476562 11.972656 89.476562 12.09375 89.507812 12.246094 C 89.570312 12.550781 89.628906 12.855469 89.691406 13.1875 C 89.539062 13.21875 89.386719 13.21875 89.207031 13.25 C 89.507812 13.492188 89.75 13.796875 89.417969 14.253906 L 89.570312 14.253906 C 89.386719 14.585938 89.207031 14.953125 89.085938 15.226562 C 89.355469 15.5 89.597656 15.773438 89.871094 16.015625 C 89.933594 16.078125 90.054688 16.167969 90.082031 16.136719 C 90.507812 15.925781 90.6875 16.320312 90.929688 16.472656 C 91.113281 16.59375 91.535156 16.683594 91.292969 17.109375 C 91.292969 17.109375 91.476562 17.261719 91.566406 17.292969 C 91.75 17.324219 91.929688 17.292969 92.171875 17.261719 L 92.171875 20.152344 L 92.234375 20.152344 C 92.203125 20.210938 92.171875 20.304688 92.171875 20.332031 C 92.355469 20.699219 92.234375 20.972656 91.839844 21.09375 C 91.808594 21.09375 91.777344 21.152344 91.75 21.183594 C 91.75 21.214844 91.75 21.277344 91.777344 21.277344 L 91.929688 21.277344 L 92.292969 21.09375 L 92.355469 21.152344 C 92.292969 21.246094 92.234375 21.335938 92.171875 21.457031 C 92.261719 21.550781 92.355469 21.640625 92.503906 21.761719 C 92.445312 21.824219 92.355469 21.882812 92.324219 21.976562 C 92.292969 22.066406 92.082031 22.15625 92.324219 22.277344 C 92.382812 22.308594 92.382812 22.523438 92.414062 22.675781 C 91.960938 22.460938 91.992188 22.976562 91.71875 23.101562 C 91.6875 23.039062 91.628906 22.949219 91.566406 22.824219 C 91.535156 22.949219 91.507812 23.039062 91.507812 23.070312 C 91.414062 23.070312 91.234375 23.039062 91.203125 23.070312 C 91.144531 23.25 91.050781 23.464844 91.113281 23.617188 C 91.144531 23.738281 91.355469 23.890625 91.507812 23.890625 C 91.929688 23.980469 92.355469 24.011719 92.777344 24.042969 C 93.019531 24.074219 93.261719 24.011719 93.503906 24.011719 C 93.835938 24.042969 94.140625 24.101562 94.472656 24.132812 C 94.59375 24.132812 94.746094 24.074219 94.867188 24.074219 C 95.199219 24.101562 95.5625 24.132812 95.894531 24.195312 C 95.957031 24.195312 96.015625 24.285156 96.046875 24.316406 C 96.257812 24.347656 96.472656 24.40625 96.652344 24.375 C 97.078125 24.285156 97.289062 24.4375 97.5625 24.742188 C 97.652344 24.863281 97.984375 24.832031 98.167969 24.800781 C 98.652344 24.742188 98.5 25.136719 98.621094 25.347656 C 98.679688 25.441406 98.679688 25.5625 98.679688 25.652344 C 98.742188 25.898438 98.710938 26.109375 98.347656 26.230469 C 98.46875 26.351562 98.589844 26.414062 98.679688 26.535156 C 98.742188 26.597656 98.742188 26.6875 98.742188 26.777344 C 98.742188 26.898438 98.679688 27.050781 98.742188 27.113281 C 98.953125 27.296875 98.832031 27.417969 98.710938 27.507812 C 98.773438 27.660156 98.894531 27.78125 98.894531 27.902344 C 98.894531 28.117188 98.742188 28.328125 98.984375 28.480469 L 98.984375 28.511719 C 98.652344 28.9375 99.074219 29.332031 98.984375 29.757812 C 98.984375 29.820312 98.984375 29.941406 99.042969 30 C 99.226562 30.152344 99.136719 30.304688 99.074219 30.488281 C 98.953125 30.761719 98.832031 31.035156 98.742188 31.246094 C 98.558594 31.21875 98.347656 31.15625 98.136719 31.1875 C 97.925781 31.1875 97.742188 31.246094 97.53125 31.277344 C 97.589844 31.460938 97.863281 31.582031 97.5625 31.824219 C 97.46875 31.886719 97.53125 32.160156 97.5625 32.3125 C 97.589844 32.523438 97.683594 32.765625 97.652344 32.980469 C 97.652344 33.070312 97.441406 33.164062 97.289062 33.222656 C 97.015625 33.375 96.5625 33.316406 96.621094 33.832031 C 96.410156 33.863281 96.136719 33.832031 96.410156 34.164062 C 96.53125 34.316406 96.289062 34.53125 95.957031 34.5625 C 95.59375 34.589844 95.230469 34.683594 94.867188 34.742188 C 94.535156 34.804688 94.199219 34.863281 93.867188 34.894531 C 93.777344 34.894531 93.65625 34.804688 93.535156 34.773438 C 93.445312 34.804688 93.292969 34.863281 93.140625 34.925781 C 93.050781 34.742188 92.988281 34.621094 92.960938 34.46875 C 92.929688 34.46875 92.898438 34.46875 92.898438 34.5 L 92.898438 34.925781 C 92.65625 34.410156 92.324219 34.925781 92.082031 34.835938 C 92.140625 34.894531 92.171875 34.957031 92.234375 35.046875 C 92.082031 35.109375 91.960938 35.136719 91.839844 35.167969 L 91.839844 35.535156 C 91.628906 35.714844 91.476562 35.835938 91.324219 35.988281 C 91.445312 36.019531 91.566406 36.082031 91.75 36.140625 C 91.386719 36.234375 91.113281 36.445312 90.75 36.355469 C 90.660156 36.324219 90.539062 36.445312 90.445312 36.507812 C 90.265625 36.71875 90.082031 36.871094 89.871094 36.660156 C 89.71875 36.933594 89.597656 37.175781 89.476562 37.417969 C 89.476562 37.296875 89.449219 37.207031 89.449219 37.085938 C 89.328125 37.113281 89.207031 37.113281 89.085938 37.144531 C 89.113281 37.328125 89.144531 37.417969 89.175781 37.570312 C 89.296875 37.511719 89.386719 37.449219 89.476562 37.386719 C 89.628906 37.753906 89.71875 37.785156 90.144531 37.570312 C 90.203125 37.691406 90.265625 37.8125 90.324219 37.964844 C 89.992188 38.027344 89.660156 38.085938 89.296875 38.179688 C 89.507812 38.453125 89.023438 38.847656 89.507812 38.9375 C 89.386719 39.058594 89.296875 39.242188 89.144531 39.335938 C 88.933594 39.457031 88.691406 39.484375 88.449219 39.546875 C 88.117188 39.609375 87.753906 39.667969 87.417969 39.699219 C 86.964844 39.730469 86.511719 39.757812 86.085938 39.789062 C 85.753906 39.820312 85.449219 39.910156 85.148438 39.941406 C 84.90625 39.972656 84.632812 39.910156 84.390625 39.941406 C 83.996094 40.003906 83.632812 40.15625 83.242188 40.246094 C 83.148438 40.277344 83.027344 40.277344 82.9375 40.277344 C 82.785156 40.277344 82.636719 40.125 82.542969 40.367188 C 82.179688 40.125 81.878906 40.703125 81.515625 40.429688 C 81.484375 40.398438 81.394531 40.488281 81.332031 40.519531 L 81.152344 40.609375 C 80.304688 40.761719 79.457031 40.882812 78.609375 41.007812 C 78.183594 41.066406 77.761719 41.066406 77.335938 41.097656 C 77.066406 41.128906 76.792969 41.21875 76.519531 41.25 C 76.339844 41.28125 76.15625 41.25 75.914062 41.21875 C 75.824219 41.460938 75.671875 41.433594 75.519531 41.21875 C 75.21875 41.371094 74.914062 41.523438 74.550781 41.433594 C 74.429688 41.402344 74.25 41.492188 74.097656 41.492188 C 73.976562 41.492188 73.855469 41.460938 73.734375 41.402344 C 73.613281 41.339844 73.460938 41.15625 73.433594 41.492188 C 73.433594 41.523438 73.128906 41.554688 72.949219 41.582031 C 72.585938 41.644531 72.191406 41.675781 71.796875 41.734375 C 71.859375 41.613281 71.886719 41.523438 71.917969 41.433594 L 71.886719 41.402344 L 71.433594 41.765625 C 71.191406 41.980469 70.890625 41.949219 70.585938 41.949219 C 70.3125 41.949219 70.011719 41.917969 69.800781 42.007812 C 69.558594 42.101562 69.585938 42.160156 69.4375 41.949219 C 69.316406 42.191406 68.769531 42.3125 68.617188 42.160156 C 68.710938 42.101562 68.800781 42.070312 68.890625 42.007812 C 68.859375 41.980469 68.859375 41.949219 68.832031 41.917969 C 68.769531 41.949219 68.738281 41.980469 68.679688 42.007812 C 68.316406 42.222656 67.921875 42.160156 67.558594 42.191406 C 67.257812 42.222656 66.953125 42.101562 66.621094 42.039062 L 66.621094 41.765625 C 66.621094 41.371094 66.410156 41.15625 66.046875 41.128906 C 65.925781 41.128906 65.710938 41.15625 65.742188 40.855469 C 65.773438 40.640625 65.46875 40.519531 65.199219 40.582031 C 64.984375 40.640625 64.742188 40.609375 64.53125 40.609375 C 64.5 40.582031 64.441406 40.550781 64.378906 40.550781 C 64.136719 40.582031 63.925781 40.640625 63.683594 40.640625 C 63.199219 40.703125 62.746094 40.734375 62.261719 40.792969 C 62.140625 40.792969 62.019531 40.761719 61.835938 40.761719 C 61.957031 40.671875 62.050781 40.609375 62.140625 40.550781 C 61.351562 40.703125 61.109375 40.214844 60.960938 39.636719 C 60.988281 39.636719 61.050781 39.609375 61.109375 39.609375 C 60.476562 39.515625 60.414062 39 60.261719 38.511719 C 60.171875 38.484375 59.992188 38.421875 59.871094 38.359375 C 59.929688 38.269531 60.019531 38.148438 60.082031 38.058594 C 59.960938 38.027344 59.808594 37.964844 59.6875 37.964844 C 59.265625 38.027344 58.902344 37.964844 58.628906 37.601562 C 59.023438 37.660156 59.386719 37.722656 59.777344 37.785156 C 59.839844 37.570312 59.871094 37.449219 59.898438 37.296875 C 59.628906 37.480469 59.628906 37.480469 59.414062 37.296875 C 59.324219 37.238281 59.234375 37.175781 59.171875 37.144531 C 58.992188 37.449219 58.6875 37.207031 58.417969 37.328125 C 58.507812 37.449219 58.566406 37.539062 58.628906 37.632812 C 58.476562 37.539062 58.175781 37.753906 58.234375 37.386719 C 57.992188 37.449219 57.75 37.511719 57.539062 37.601562 C 57.417969 37.660156 57.355469 37.8125 57.265625 37.9375 L 57.265625 37.753906 C 57.207031 37.753906 57.144531 37.753906 57.113281 37.785156 C 56.75 37.964844 56.359375 38.179688 55.996094 38.359375 C 55.902344 38.238281 55.875 38.148438 55.84375 38.148438 C 55.632812 38.269531 55.417969 38.453125 55.238281 38.421875 C 55.054688 38.421875 54.84375 38.210938 54.664062 38.117188 C 54.664062 38.269531 54.632812 38.421875 54.632812 38.574219 C 54.269531 38.269531 54.207031 38.300781 53.996094 38.847656 C 54.207031 38.847656 54.421875 38.816406 54.664062 38.816406 L 54.664062 38.605469 C 54.753906 38.695312 54.84375 38.757812 54.933594 38.847656 C 54.933594 38.910156 54.90625 39.058594 54.90625 39.058594 C 54.601562 39.058594 54.359375 39.457031 53.996094 39.210938 C 53.9375 39.183594 53.816406 39.273438 53.722656 39.273438 L 53.542969 39.273438 C 52.726562 39.636719 51.847656 39.667969 50.96875 39.882812 C 50.9375 39.546875 50.757812 39.578125 50.515625 39.636719 C 50.453125 39.667969 50.332031 39.578125 50.242188 39.578125 C 50.304688 39.578125 50.363281 39.546875 50.394531 39.546875 C 50.453125 39.425781 50.515625 39.273438 50.546875 39.183594 C 50.453125 39.152344 50.332031 39.058594 50.210938 39.058594 C 50.121094 39.058594 50.03125 39.152344 49.941406 39.183594 C 50 39.089844 49.96875 39.152344 49.941406 39.183594 Z M 81.605469 39.789062 C 81.210938 39.851562 80.878906 39.910156 80.515625 39.972656 L 80.515625 40.125 C 80.699219 40.15625 80.910156 40.214844 81.089844 40.183594 C 81.273438 40.183594 81.546875 40.183594 81.605469 39.789062 Z M 53.90625 38.878906 C 53.753906 38.695312 53.695312 38.511719 53.480469 38.695312 C 53.390625 38.785156 53.238281 38.785156 53.117188 38.847656 C 53.058594 38.878906 52.996094 38.910156 52.9375 38.96875 L 52.96875 39.058594 C 53.027344 39.058594 53.089844 39.03125 53.179688 39 C 53.269531 38.96875 53.359375 38.96875 53.453125 38.96875 C 53.542969 38.9375 53.695312 38.910156 53.90625 38.878906 Z M 64.199219 39.820312 C 64.351562 40.003906 64.472656 40.15625 64.59375 40.308594 C 64.652344 40.15625 64.742188 40.003906 64.773438 39.882812 C 64.59375 39.820312 64.410156 39.820312 64.199219 39.820312 Z M 54.8125 37.175781 C 54.632812 37.660156 54.753906 37.84375 55.085938 37.8125 C 54.996094 37.632812 54.90625 37.449219 54.8125 37.175781 Z M 54.8125 37.175781 " fill-opacity="1" fill-rule="nonzero"/></g><path fill="#e6e9ff" d="M 54.996094 38.726562 C 54.964844 38.664062 54.964844 38.605469 54.933594 38.484375 C 55.269531 38.726562 55.511719 38.484375 55.78125 38.421875 C 56.054688 38.359375 56.359375 38.484375 56.628906 38.511719 L 56.628906 38.484375 C 56.570312 38.785156 56.328125 38.695312 56.117188 38.726562 C 55.933594 38.757812 55.691406 38.695312 55.570312 38.785156 C 55.296875 39.03125 55.148438 38.910156 54.996094 38.726562 Z M 54.996094 38.726562 " fill-opacity="1" fill-rule="nonzero"/><path fill="#e6e9ff" d="M 56.628906 38.511719 C 56.722656 38.453125 56.8125 38.332031 56.933594 38.238281 C 57.054688 38.148438 57.175781 38.085938 57.296875 37.996094 C 57.328125 38.027344 57.355469 38.085938 57.417969 38.117188 L 57.78125 38.210938 C 57.355469 38.300781 56.992188 38.390625 56.628906 38.511719 Z M 56.628906 38.511719 " fill-opacity="1" fill-rule="nonzero"/><path fill="#e6e9ff" d="M 49.941406 39.183594 C 49.96875 39.152344 50 39.089844 50.03125 39.058594 C 50.394531 38.910156 50.304688 39.304688 50.484375 39.425781 C 50.425781 39.425781 50.363281 39.457031 50.332031 39.457031 C 50.242188 39.484375 50.089844 39.546875 50.03125 39.515625 C 49.96875 39.425781 49.96875 39.304688 49.941406 39.183594 Z M 49.941406 39.183594 " fill-opacity="1" fill-rule="nonzero"/><path fill="#e6e9ff" d="M 57.75 38.210938 C 57.691406 37.90625 57.992188 37.9375 58.113281 37.875 C 58.203125 37.84375 58.355469 37.90625 58.539062 37.9375 C 58.265625 38.238281 58.023438 38.332031 57.75 38.210938 Z M 57.75 38.210938 " fill-opacity="1" fill-rule="nonzero"/><path stroke-linecap="butt" transform="matrix(0.739782, -0.000000000000000094, 0.000000000000000094, 0.738281, 39.786672, 13.800779)" fill="none" stroke-linejoin="miter" d="M -0.00204913 0.00000357648 L 76.846983 0.00000357648 " stroke="#3a2f2e" stroke-width="1" stroke-opacity="1" stroke-miterlimit="4"/><g clip-path="url(#id2)"><path fill="#89d1ff" d="M 120.765625 32.578125 C 118.371094 33.007812 115.359375 33.265625 112.089844 33.265625 C 104.292969 33.265625 97.972656 31.808594 97.972656 30.011719 C 97.972656 28.875 100.488281 27.878906 104.308594 27.296875 C 105.714844 28.941406 108.246094 30.472656 112.617188 30.472656 C 116.132812 30.472656 118.335938 29.117188 119.703125 27.269531 C 123.617188 27.847656 126.210938 28.859375 126.210938 30.011719 C 126.210938 31.054688 124.078125 31.980469 120.765625 32.578125 Z M 120.765625 32.578125 " fill-opacity="1" fill-rule="nonzero"/></g><g clip-path="url(#id3)"><path fill="#3a2f2e" d="M 124.554688 28.167969 C 123.484375 27.722656 121.964844 27.335938 120.152344 27.050781 C 120.648438 26.304688 121.050781 25.449219 121.363281 24.496094 C 121.707031 23.433594 121.9375 22.25 122.046875 20.972656 C 122.226562 18.800781 121.996094 17.140625 121.984375 17.070312 C 121.964844 16.9375 121.84375 16.847656 121.714844 16.867188 C 121.582031 16.882812 121.492188 17.007812 121.511719 17.136719 C 121.511719 17.152344 121.746094 18.8125 121.566406 20.929688 C 121.40625 22.875 120.855469 25.601562 119.15625 27.574219 C 117.636719 29.339844 115.433594 30.234375 112.617188 30.234375 C 107.136719 30.234375 104.757812 27.792969 103.773438 26.140625 C 103.769531 26.132812 103.761719 26.121094 103.757812 26.113281 C 104.085938 26.019531 104.457031 25.867188 104.804688 25.683594 C 105.269531 25.433594 105.921875 25.003906 106.359375 24.367188 C 106.800781 23.734375 106.933594 23.039062 106.75 22.3125 C 106.601562 21.703125 106.246094 21.324219 105.777344 21.269531 C 105.359375 21.21875 104.929688 21.433594 104.574219 21.847656 C 104.421875 21.359375 104.101562 20.984375 103.679688 20.839844 C 103.144531 20.660156 102.574219 20.898438 102.152344 21.476562 C 101.285156 22.652344 102.269531 24.507812 102.984375 25.738281 C 102.621094 25.71875 102.226562 25.585938 101.828125 25.339844 C 100.121094 24.292969 98.257812 21.734375 98.210938 19.597656 C 98.195312 18.910156 98.292969 18.230469 98.484375 17.6875 C 98.707031 17.050781 99.042969 16.605469 99.488281 16.355469 C 99.886719 16.128906 100.378906 16.070312 100.945312 16.171875 C 101.613281 16.292969 102.394531 16.644531 103.265625 17.210938 C 104.113281 17.761719 105.203125 18.203125 106.496094 18.515625 C 107.683594 18.804688 109.007812 18.976562 110.4375 19.03125 C 110.765625 19.042969 111.09375 19.050781 111.421875 19.050781 C 113.832031 19.050781 116.25 18.714844 118.179688 18.105469 C 119.550781 17.671875 121.289062 16.898438 121.785156 15.675781 C 121.902344 15.386719 121.949219 14.953125 121.515625 14.523438 C 121.011719 14.027344 119.941406 13.628906 118.335938 13.34375 C 116.933594 13.09375 115.179688 12.941406 113.261719 12.902344 C 112.519531 12.886719 111.765625 12.890625 111.023438 12.910156 C 111.203125 12.445312 111.628906 12.136719 112.15625 11.753906 C 112.796875 11.289062 113.589844 10.710938 114.152344 9.65625 C 114.597656 8.828125 114.75 7.960938 114.597656 7.140625 C 114.457031 6.398438 114.074219 5.746094 113.515625 5.308594 C 113.035156 4.933594 112.472656 4.75 111.886719 4.773438 C 111.257812 4.800781 110.640625 5.078125 110.097656 5.578125 C 109.609375 6.027344 109.347656 6.570312 109.339844 7.148438 C 109.335938 7.644531 109.511719 8.140625 109.84375 8.546875 C 110.433594 9.269531 111.285156 9.484375 111.875 9.054688 C 111.980469 8.976562 112.003906 8.824219 111.925781 8.71875 C 111.851562 8.609375 111.699219 8.585938 111.59375 8.664062 C 111.167969 8.976562 110.578125 8.6875 110.214844 8.242188 C 109.761719 7.683594 109.542969 6.742188 110.421875 5.933594 C 111.476562 4.964844 112.558594 5.171875 113.21875 5.6875 C 114.074219 6.355469 114.597656 7.8125 113.730469 9.429688 C 113.21875 10.386719 112.507812 10.90625 111.878906 11.363281 C 111.277344 11.800781 110.699219 12.21875 110.515625 12.925781 C 109.613281 12.960938 108.738281 13.019531 107.933594 13.105469 C 106.207031 13.285156 104.859375 13.566406 104.035156 13.917969 C 103.34375 14.210938 102.996094 14.574219 103.003906 14.992188 C 103.007812 15.371094 103.261719 15.707031 103.765625 15.988281 C 104.425781 16.363281 105.527344 16.660156 107.035156 16.871094 C 108.375 17.058594 109.957031 17.164062 111.617188 17.179688 C 114.269531 17.203125 117.804688 16.972656 119.035156 16.234375 C 119.363281 16.039062 119.527344 15.804688 119.523438 15.539062 C 119.519531 15.316406 119.4375 15.125 119.273438 14.976562 C 118.722656 14.464844 117.320312 14.558594 115.699219 14.667969 C 114.546875 14.746094 113.359375 14.824219 112.433594 14.691406 C 111.164062 14.507812 110.972656 13.988281 110.9375 13.613281 C 110.929688 13.539062 110.929688 13.464844 110.929688 13.394531 C 111.683594 13.371094 112.464844 13.367188 113.253906 13.386719 C 115.144531 13.425781 116.875 13.574219 118.253906 13.816406 C 120.132812 14.152344 120.878906 14.570312 121.179688 14.867188 C 121.382812 15.070312 121.433594 15.261719 121.34375 15.492188 C 121.011719 16.3125 119.835938 17.078125 118.039062 17.644531 C 115.894531 18.324219 113.132812 18.652344 110.457031 18.550781 C 107.542969 18.4375 105.082031 17.816406 103.527344 16.804688 C 101.738281 15.640625 100.300781 15.347656 99.253906 15.933594 C 98.707031 16.242188 98.292969 16.777344 98.03125 17.527344 C 97.765625 18.292969 97.722656 19.082031 97.734375 19.605469 C 97.765625 21.027344 98.457031 22.34375 99.035156 23.199219 C 99.753906 24.269531 100.683594 25.199219 101.582031 25.75 C 102.152344 26.101562 102.734375 26.261719 103.261719 26.210938 C 103.414062 26.484375 103.601562 26.78125 103.835938 27.089844 C 102.085938 27.378906 100.621094 27.757812 99.582031 28.195312 C 98.328125 28.726562 97.695312 29.335938 97.695312 30.007812 C 97.695312 30.558594 98.117188 31.066406 98.949219 31.519531 C 99.683594 31.921875 100.722656 32.277344 102.046875 32.582031 C 104.730469 33.199219 108.300781 33.542969 112.089844 33.542969 C 115.882812 33.542969 119.449219 33.199219 122.136719 32.582031 C 123.457031 32.277344 124.5 31.921875 125.234375 31.519531 C 126.066406 31.066406 126.488281 30.558594 126.488281 30.007812 C 126.488281 29.324219 125.835938 28.703125 124.554688 28.167969 Z M 111.082031 14.730469 C 111.394531 14.945312 111.8125 15.085938 112.363281 15.167969 C 113.339844 15.308594 114.554688 15.226562 115.730469 15.148438 C 116.492188 15.097656 117.210938 15.050781 117.796875 15.066406 C 118.394531 15.085938 118.78125 15.175781 118.949219 15.328125 C 119.011719 15.390625 119.042969 15.457031 119.042969 15.546875 C 119.042969 15.625 118.953125 15.726562 118.789062 15.824219 C 117.859375 16.378906 114.980469 16.730469 111.621094 16.699219 C 108.09375 16.664062 105.175781 16.234375 104 15.570312 C 103.765625 15.4375 103.484375 15.230469 103.480469 14.984375 C 103.480469 14.792969 103.75 14.5625 104.222656 14.359375 C 105.386719 13.863281 107.722656 13.519531 110.449219 13.410156 C 110.449219 13.488281 110.453125 13.570312 110.460938 13.660156 C 110.5 14.109375 110.710938 14.46875 111.082031 14.730469 Z M 102.535156 21.761719 C 102.773438 21.4375 103.054688 21.265625 103.324219 21.265625 C 103.390625 21.265625 103.460938 21.273438 103.527344 21.296875 C 103.917969 21.429688 104.191406 21.921875 104.183594 22.496094 C 104.183594 22.609375 104.257812 22.707031 104.367188 22.734375 C 104.472656 22.761719 104.585938 22.710938 104.636719 22.609375 C 104.933594 22.042969 105.359375 21.703125 105.722656 21.746094 C 105.984375 21.777344 106.183594 22.019531 106.285156 22.429688 C 106.433594 23.015625 106.324219 23.578125 105.96875 24.09375 C 105.359375 24.972656 104.183594 25.511719 103.507812 25.679688 C 102.851562 24.5625 101.8125 22.746094 102.535156 21.761719 Z M 124.96875 31.03125 C 124.277344 31.40625 123.285156 31.746094 122.011719 32.039062 C 119.363281 32.648438 115.839844 32.984375 112.089844 32.984375 C 108.339844 32.984375 104.816406 32.648438 102.167969 32.039062 C 100.894531 31.746094 99.902344 31.40625 99.210938 31.03125 C 98.582031 30.6875 98.246094 30.335938 98.246094 30.011719 C 98.246094 29.59375 98.796875 29.132812 99.796875 28.710938 C 100.855469 28.261719 102.394531 27.875 104.242188 27.585938 C 105.617188 29.117188 108.125 30.714844 112.617188 30.714844 C 115.582031 30.714844 117.902344 29.765625 119.515625 27.890625 C 119.609375 27.78125 119.699219 27.671875 119.789062 27.558594 C 121.683594 27.839844 123.257812 28.230469 124.34375 28.683594 C 125.367188 29.109375 125.933594 29.582031 125.933594 30.011719 C 125.933594 30.335938 125.597656 30.6875 124.96875 31.03125 Z M 124.96875 31.03125 " fill-opacity="1" fill-rule="nonzero"/></g><path stroke-linecap="butt" transform="matrix(0.742677, 0, 0, 0.738281, 62.190516, 33.50786)" fill="none" stroke-linejoin="miter" d="M 0.0011987 -0.0000640557 L 65.626355 -0.0000640557 " stroke="#3a2f2e" stroke-width="1" stroke-opacity="1" stroke-miterlimit="4"/><g fill="#3a2f2e" fill-opacity="1"><g transform="translate(41.356489, 28.230606)"><g><path d="M 4 -11.265625 C 5.070312 -11.265625 6.070312 -11.046875 7 -10.609375 L 7 -9.859375 C 6.050781 -10.359375 5.070312 -10.609375 4.0625 -10.609375 C 3.394531 -10.609375 2.835938 -10.457031 2.390625 -10.15625 C 1.941406 -9.863281 1.71875 -9.382812 1.71875 -8.71875 C 1.71875 -7.570312 2.5 -6.742188 4.0625 -6.234375 C 5.226562 -5.859375 6.0625 -5.398438 6.5625 -4.859375 C 7.0625 -4.328125 7.3125 -3.644531 7.3125 -2.8125 C 7.3125 -1.851562 7.023438 -1.117188 6.453125 -0.609375 C 5.890625 -0.0976562 5.066406 0.15625 3.984375 0.15625 C 2.941406 0.15625 1.976562 -0.109375 1.09375 -0.640625 L 1.09375 -1.40625 C 1.945312 -0.800781 2.890625 -0.5 3.921875 -0.5 C 4.773438 -0.5 5.425781 -0.695312 5.875 -1.09375 C 6.320312 -1.488281 6.546875 -2.0625 6.546875 -2.8125 C 6.546875 -3.46875 6.34375 -4.003906 5.9375 -4.421875 C 5.53125 -4.847656 4.882812 -5.210938 4 -5.515625 C 1.976562 -6.171875 0.96875 -7.238281 0.96875 -8.71875 C 0.96875 -9.519531 1.226562 -10.144531 1.75 -10.59375 C 2.28125 -11.039062 3.03125 -11.265625 4 -11.265625 Z M 4 -11.265625 "/></g></g></g><g fill="#3a2f2e" fill-opacity="1"><g transform="translate(50.062983, 28.230606)"><g><path d="M 1.890625 -7.90625 L 1.90625 -6.515625 L 1.9375 -6.515625 C 2.664062 -7.546875 3.570312 -8.0625 4.65625 -8.0625 C 5.582031 -8.0625 6.25 -7.804688 6.65625 -7.296875 C 7.0625 -6.796875 7.265625 -5.9375 7.265625 -4.71875 L 7.265625 0 L 6.546875 0 L 6.546875 -4.640625 C 6.546875 -5.734375 6.382812 -6.472656 6.0625 -6.859375 C 5.75 -7.253906 5.226562 -7.453125 4.5 -7.453125 C 3.925781 -7.453125 3.351562 -7.171875 2.78125 -6.609375 C 2.207031 -6.054688 1.921875 -5.503906 1.921875 -4.953125 L 1.921875 0 L 1.1875 0 L 1.1875 -7.90625 Z M 1.890625 -7.90625 "/></g></g></g><g fill="#3a2f2e" fill-opacity="1"><g transform="translate(58.888397, 28.230606)"><g><path d="M 6.390625 -7.90625 L 7.125 -7.90625 L 7.125 0 L 6.421875 0 L 6.40625 -1.390625 L 6.375 -1.390625 C 6.0625 -0.898438 5.664062 -0.519531 5.1875 -0.25 C 4.707031 0.0195312 4.195312 0.15625 3.65625 0.15625 C 2.78125 0.15625 2.132812 -0.0820312 1.71875 -0.5625 C 1.3125 -1.039062 1.109375 -1.832031 1.109375 -2.9375 L 1.109375 -7.90625 L 1.828125 -7.90625 L 1.828125 -3.015625 C 1.828125 -2.023438 1.988281 -1.347656 2.3125 -0.984375 C 2.632812 -0.628906 3.132812 -0.453125 3.8125 -0.453125 C 4.414062 -0.453125 4.992188 -0.710938 5.546875 -1.234375 C 6.109375 -1.753906 6.390625 -2.332031 6.390625 -2.96875 Z M 6.390625 -7.90625 "/></g></g></g><g fill="#3a2f2e" fill-opacity="1"><g transform="translate(67.639486, 28.230606)"><g><path d="M 3.4375 2.890625 C 4.351562 2.890625 5.078125 2.710938 5.609375 2.359375 C 6.140625 2.003906 6.40625 1.53125 6.40625 0.9375 C 6.40625 -0.175781 5.539062 -0.734375 3.8125 -0.734375 C 2.707031 -0.734375 1.910156 -0.847656 1.421875 -1.078125 C 0.941406 -1.316406 0.703125 -1.703125 0.703125 -2.234375 C 0.703125 -2.640625 0.898438 -3.03125 1.296875 -3.40625 C 0.765625 -3.875 0.5 -4.5 0.5 -5.28125 C 0.5 -6.101562 0.769531 -6.769531 1.3125 -7.28125 C 1.851562 -7.800781 2.550781 -8.0625 3.40625 -8.0625 C 4.644531 -8.0625 5.566406 -7.679688 6.171875 -6.921875 L 6.203125 -6.921875 L 6.21875 -7.90625 L 6.890625 -7.90625 L 6.890625 -5.28125 C 6.890625 -4.445312 6.609375 -3.796875 6.046875 -3.328125 C 5.492188 -2.859375 4.710938 -2.625 3.703125 -2.625 C 2.941406 -2.625 2.300781 -2.769531 1.78125 -3.0625 C 1.5 -2.789062 1.359375 -2.53125 1.359375 -2.28125 C 1.359375 -2.082031 1.410156 -1.921875 1.515625 -1.796875 C 1.617188 -1.679688 1.863281 -1.578125 2.25 -1.484375 C 2.644531 -1.390625 3.1875 -1.34375 3.875 -1.34375 C 6.050781 -1.34375 7.140625 -0.601562 7.140625 0.875 C 7.140625 1.664062 6.8125 2.300781 6.15625 2.78125 C 5.507812 3.257812 4.601562 3.5 3.4375 3.5 C 2.394531 3.5 1.414062 3.289062 0.5 2.875 L 0.5 2.171875 C 1.40625 2.648438 2.382812 2.890625 3.4375 2.890625 Z M 1.21875 -5.265625 C 1.21875 -4.617188 1.4375 -4.109375 1.875 -3.734375 C 2.3125 -3.367188 2.914062 -3.1875 3.6875 -3.1875 C 4.4375 -3.1875 5.03125 -3.367188 5.46875 -3.734375 C 5.914062 -4.109375 6.140625 -4.617188 6.140625 -5.265625 C 6.140625 -5.941406 5.898438 -6.476562 5.421875 -6.875 C 4.953125 -7.28125 4.332031 -7.484375 3.5625 -7.484375 C 2.875 -7.484375 2.3125 -7.273438 1.875 -6.859375 C 1.4375 -6.453125 1.21875 -5.921875 1.21875 -5.265625 Z M 1.21875 -5.265625 "/></g></g></g><g fill="#3a2f2e" fill-opacity="1"><g transform="translate(75.795969, 28.230606)"><g><path d="M 3.4375 2.890625 C 4.351562 2.890625 5.078125 2.710938 5.609375 2.359375 C 6.140625 2.003906 6.40625 1.53125 6.40625 0.9375 C 6.40625 -0.175781 5.539062 -0.734375 3.8125 -0.734375 C 2.707031 -0.734375 1.910156 -0.847656 1.421875 -1.078125 C 0.941406 -1.316406 0.703125 -1.703125 0.703125 -2.234375 C 0.703125 -2.640625 0.898438 -3.03125 1.296875 -3.40625 C 0.765625 -3.875 0.5 -4.5 0.5 -5.28125 C 0.5 -6.101562 0.769531 -6.769531 1.3125 -7.28125 C 1.851562 -7.800781 2.550781 -8.0625 3.40625 -8.0625 C 4.644531 -8.0625 5.566406 -7.679688 6.171875 -6.921875 L 6.203125 -6.921875 L 6.21875 -7.90625 L 6.890625 -7.90625 L 6.890625 -5.28125 C 6.890625 -4.445312 6.609375 -3.796875 6.046875 -3.328125 C 5.492188 -2.859375 4.710938 -2.625 3.703125 -2.625 C 2.941406 -2.625 2.300781 -2.769531 1.78125 -3.0625 C 1.5 -2.789062 1.359375 -2.53125 1.359375 -2.28125 C 1.359375 -2.082031 1.410156 -1.921875 1.515625 -1.796875 C 1.617188 -1.679688 1.863281 -1.578125 2.25 -1.484375 C 2.644531 -1.390625 3.1875 -1.34375 3.875 -1.34375 C 6.050781 -1.34375 7.140625 -0.601562 7.140625 0.875 C 7.140625 1.664062 6.8125 2.300781 6.15625 2.78125 C 5.507812 3.257812 4.601562 3.5 3.4375 3.5 C 2.394531 3.5 1.414062 3.289062 0.5 2.875 L 0.5 2.171875 C 1.40625 2.648438 2.382812 2.890625 3.4375 2.890625 Z M 1.21875 -5.265625 C 1.21875 -4.617188 1.4375 -4.109375 1.875 -3.734375 C 2.3125 -3.367188 2.914062 -3.1875 3.6875 -3.1875 C 4.4375 -3.1875 5.03125 -3.367188 5.46875 -3.734375 C 5.914062 -4.109375 6.140625 -4.617188 6.140625 -5.265625 C 6.140625 -5.941406 5.898438 -6.476562 5.421875 -6.875 C 4.953125 -7.28125 4.332031 -7.484375 3.5625 -7.484375 C 2.875 -7.484375 2.3125 -7.273438 1.875 -6.859375 C 1.4375 -6.453125 1.21875 -5.921875 1.21875 -5.265625 Z M 1.21875 -5.265625 "/></g></g></g><g fill="#3a2f2e" fill-opacity="1"><g transform="translate(83.952453, 28.230606)"><g><path d="M 1.875 0 L 1.875 -11.421875 L 2.625 -11.421875 L 2.625 0 Z M 1.875 0 "/></g></g></g><g fill="#3a2f2e" fill-opacity="1"><g transform="translate(88.898073, 28.230606)"><g><path d="M 1.390625 -3.8125 C 1.421875 -1.570312 2.425781 -0.453125 4.40625 -0.453125 C 5.195312 -0.453125 5.972656 -0.609375 6.734375 -0.921875 L 6.734375 -0.265625 C 5.910156 0.015625 5.125 0.15625 4.375 0.15625 C 3.15625 0.15625 2.226562 -0.1875 1.59375 -0.875 C 0.96875 -1.570312 0.65625 -2.597656 0.65625 -3.953125 C 0.65625 -5.429688 0.972656 -6.484375 1.609375 -7.109375 C 2.253906 -7.742188 3.078125 -8.0625 4.078125 -8.0625 C 6.148438 -8.0625 7.1875 -6.734375 7.1875 -4.078125 L 7.1875 -3.8125 Z M 1.390625 -4.40625 L 6.484375 -4.40625 C 6.453125 -6.445312 5.648438 -7.46875 4.078125 -7.46875 C 2.390625 -7.46875 1.492188 -6.445312 1.390625 -4.40625 Z M 1.390625 -4.40625 "/></g></g></g><g fill="#3a2f2e" fill-opacity="1"><g transform="translate(68.606354, 37.959777)"><g><path d="M 0.15625 -1.03125 L 0.125 -1.140625 L 0.15625 -1.203125 C 0.226562 -1.253906 0.707031 -1.285156 1.59375 -1.296875 L 1.734375 -1.25 L 1.78125 -1.109375 L 1.734375 -1.03125 C 1.648438 -0.988281 1.160156 -0.96875 0.265625 -0.96875 Z M 0.15625 -1.03125 "/></g></g></g><g fill="#3a2f2e" fill-opacity="1"><g transform="translate(70.977771, 37.959777)"><g><path d="M 1.375 0.125 C 1.363281 0.0390625 1.398438 -0.015625 1.484375 -0.046875 C 1.597656 -0.0976562 1.695312 -0.171875 1.78125 -0.265625 L 1.859375 -0.375 C 1.804688 -0.363281 1.753906 -0.359375 1.703125 -0.359375 C 1.597656 -0.359375 1.492188 -0.375 1.390625 -0.40625 C 1.273438 -0.488281 1.1875 -0.578125 1.125 -0.671875 C 1.070312 -0.765625 1.046875 -0.863281 1.046875 -0.96875 C 1.046875 -1.0625 1.0625 -1.15625 1.09375 -1.25 C 1.125 -1.351562 1.164062 -1.4375 1.21875 -1.5 C 1.28125 -1.570312 1.335938 -1.625 1.390625 -1.65625 C 1.441406 -1.6875 1.507812 -1.710938 1.59375 -1.734375 C 1.613281 -1.734375 1.640625 -1.734375 1.671875 -1.734375 C 1.742188 -1.734375 1.832031 -1.722656 1.9375 -1.703125 L 1.90625 -1.953125 C 1.039062 -1.910156 0.554688 -1.890625 0.453125 -1.890625 C 0.390625 -1.898438 0.328125 -1.929688 0.265625 -1.984375 L 0.21875 -2.03125 L 0.21875 -2.125 L 0.234375 -2.171875 C 0.367188 -2.203125 0.507812 -2.21875 0.65625 -2.21875 L 0.75 -2.203125 L 1.890625 -2.265625 L 1.875 -2.8125 L 1.9375 -2.9375 L 2.078125 -2.96875 C 2.117188 -2.976562 2.148438 -2.957031 2.171875 -2.90625 C 2.210938 -2.832031 2.238281 -2.765625 2.25 -2.703125 L 2.3125 -2.296875 L 3.09375 -2.328125 L 3.234375 -2.390625 L 3.328125 -2.359375 L 3.453125 -2.296875 L 3.484375 -2.21875 L 3.453125 -2.03125 L 3.171875 -2 L 2.3125 -1.953125 L 2.328125 -1.390625 C 2.328125 -1.328125 2.328125 -1.238281 2.328125 -1.125 C 2.328125 -0.96875 2.320312 -0.828125 2.3125 -0.703125 C 2.300781 -0.585938 2.28125 -0.484375 2.25 -0.390625 C 2.207031 -0.265625 2.140625 -0.148438 2.046875 -0.046875 C 1.984375 0.0234375 1.90625 0.0859375 1.8125 0.140625 C 1.726562 0.210938 1.640625 0.25 1.546875 0.25 C 1.441406 0.226562 1.382812 0.1875 1.375 0.125 Z M 1.859375 -0.71875 C 1.910156 -0.820312 1.9375 -0.929688 1.9375 -1.046875 C 1.9375 -1.128906 1.925781 -1.210938 1.90625 -1.296875 C 1.882812 -1.367188 1.832031 -1.40625 1.75 -1.40625 C 1.71875 -1.40625 1.691406 -1.40625 1.671875 -1.40625 C 1.492188 -1.34375 1.40625 -1.203125 1.40625 -0.984375 C 1.40625 -0.859375 1.507812 -0.765625 1.71875 -0.703125 Z M 1.859375 -0.71875 "/></g></g></g><g fill="#3a2f2e" fill-opacity="1"><g transform="translate(75.204757, 37.959777)"><g><path d="M 0.75 -0.65625 C 0.738281 -0.644531 0.722656 -0.640625 0.703125 -0.640625 C 0.597656 -0.640625 0.523438 -0.679688 0.484375 -0.765625 L 0.484375 -0.890625 C 0.535156 -1.015625 0.601562 -1.171875 0.6875 -1.359375 C 0.75 -1.492188 0.800781 -1.671875 0.84375 -1.890625 C 0.726562 -1.867188 0.585938 -1.84375 0.421875 -1.8125 C 0.304688 -1.8125 0.210938 -1.863281 0.140625 -1.96875 L 0.125 -2.015625 L 0.203125 -2.09375 L 0.28125 -2.140625 C 0.394531 -2.171875 0.523438 -2.203125 0.671875 -2.234375 C 0.765625 -2.253906 0.851562 -2.269531 0.9375 -2.28125 L 0.96875 -2.46875 C 0.988281 -2.59375 1 -2.703125 1 -2.796875 C 1.039062 -2.835938 1.085938 -2.859375 1.140625 -2.859375 C 1.210938 -2.847656 1.269531 -2.832031 1.3125 -2.8125 C 1.363281 -2.75 1.382812 -2.6875 1.375 -2.625 L 1.34375 -2.359375 C 1.632812 -2.410156 1.820312 -2.441406 1.90625 -2.453125 L 2.03125 -2.40625 C 2.082031 -2.382812 2.109375 -2.34375 2.109375 -2.28125 C 2.109375 -2.207031 2.070312 -2.148438 2 -2.109375 C 1.9375 -2.066406 1.84375 -2.050781 1.71875 -2.0625 L 1.265625 -1.96875 C 1.203125 -1.75 1.160156 -1.585938 1.140625 -1.484375 C 1.117188 -1.367188 1.085938 -1.257812 1.046875 -1.15625 C 0.984375 -1 0.941406 -0.890625 0.921875 -0.828125 L 0.828125 -0.703125 Z M 3.28125 -1.65625 C 3.132812 -1.71875 3.003906 -1.769531 2.890625 -1.8125 C 2.785156 -1.863281 2.679688 -1.921875 2.578125 -1.984375 L 2.484375 -2.125 L 2.5 -2.234375 C 2.625 -2.253906 2.691406 -2.265625 2.703125 -2.265625 L 2.953125 -2.15625 L 3.3125 -2.046875 L 3.421875 -1.984375 C 3.472656 -1.921875 3.5 -1.863281 3.5 -1.8125 C 3.5 -1.75 3.457031 -1.710938 3.375 -1.703125 Z M 1.375 -0.484375 C 1.40625 -0.617188 1.457031 -0.726562 1.53125 -0.8125 C 1.59375 -0.851562 1.648438 -0.882812 1.703125 -0.90625 C 1.753906 -0.9375 1.816406 -0.953125 1.890625 -0.953125 C 1.941406 -0.953125 1.992188 -0.945312 2.046875 -0.9375 L 2.234375 -0.875 C 2.253906 -0.9375 2.265625 -1.003906 2.265625 -1.078125 C 2.265625 -1.148438 2.253906 -1.269531 2.234375 -1.4375 C 2.296875 -1.507812 2.351562 -1.546875 2.40625 -1.546875 C 2.425781 -1.546875 2.441406 -1.546875 2.453125 -1.546875 L 2.53125 -1.5 L 2.578125 -1.4375 L 2.609375 -1.1875 C 2.609375 -1.175781 2.609375 -1.15625 2.609375 -1.125 C 2.609375 -1.03125 2.59375 -0.859375 2.5625 -0.609375 C 2.757812 -0.484375 2.878906 -0.367188 2.921875 -0.265625 L 2.984375 -0.171875 C 2.992188 -0.140625 3 -0.113281 3 -0.09375 C 3 -0.03125 2.960938 0.00390625 2.890625 0.015625 L 2.75 -0.015625 C 2.664062 -0.0859375 2.582031 -0.15625 2.5 -0.21875 L 2.4375 -0.265625 L 2.328125 -0.0625 C 2.253906 0.0625 2.128906 0.125 1.953125 0.125 C 1.785156 0.101562 1.644531 0.0390625 1.53125 -0.0625 C 1.425781 -0.164062 1.375 -0.304688 1.375 -0.484375 Z M 2.171875 -0.453125 C 2.171875 -0.492188 2.148438 -0.53125 2.109375 -0.5625 C 2.066406 -0.59375 2.007812 -0.613281 1.9375 -0.625 C 1.800781 -0.625 1.722656 -0.554688 1.703125 -0.421875 C 1.703125 -0.304688 1.769531 -0.226562 1.90625 -0.1875 C 2 -0.1875 2.066406 -0.226562 2.109375 -0.3125 C 2.148438 -0.351562 2.171875 -0.398438 2.171875 -0.453125 Z M 2.171875 -0.453125 "/></g></g></g><g fill="#3a2f2e" fill-opacity="1"><g transform="translate(79.431743, 37.959777)"><g><path d="M 3.25 -1.859375 C 3.195312 -1.921875 3.140625 -2.003906 3.078125 -2.109375 L 3.0625 -2.234375 C 3.03125 -2.296875 3.015625 -2.359375 3.015625 -2.421875 C 3.015625 -2.460938 3.019531 -2.492188 3.03125 -2.515625 C 3.050781 -2.554688 3.109375 -2.570312 3.203125 -2.5625 C 3.273438 -2.488281 3.332031 -2.414062 3.375 -2.34375 L 3.515625 -2.09375 C 3.523438 -2.050781 3.53125 -2.019531 3.53125 -2 C 3.53125 -1.945312 3.515625 -1.90625 3.484375 -1.875 C 3.453125 -1.84375 3.410156 -1.820312 3.359375 -1.8125 Z M 1.796875 0.28125 L 1.703125 0.28125 C 1.367188 -0.09375 0.988281 -0.453125 0.5625 -0.796875 L 0.453125 -0.90625 C 0.421875 -0.976562 0.398438 -1.039062 0.390625 -1.09375 L 0.4375 -1.1875 C 0.519531 -1.21875 0.59375 -1.253906 0.65625 -1.296875 C 1.289062 -1.898438 1.660156 -2.273438 1.765625 -2.421875 C 1.828125 -2.484375 1.90625 -2.507812 2 -2.5 L 2.109375 -2.421875 L 2.125 -2.296875 C 1.882812 -1.992188 1.648438 -1.738281 1.421875 -1.53125 C 1.160156 -1.300781 0.984375 -1.132812 0.890625 -1.03125 C 1.460938 -0.53125 1.800781 -0.203125 1.90625 -0.046875 L 1.984375 0.03125 L 2.046875 0.109375 L 2.046875 0.21875 C 1.984375 0.28125 1.921875 0.3125 1.859375 0.3125 Z M 2.640625 -1.65625 L 2.5 -1.890625 C 2.4375 -2.003906 2.390625 -2.113281 2.359375 -2.21875 L 2.375 -2.359375 C 2.425781 -2.390625 2.472656 -2.40625 2.515625 -2.40625 C 2.535156 -2.40625 2.5625 -2.398438 2.59375 -2.390625 C 2.726562 -2.222656 2.835938 -2.03125 2.921875 -1.8125 C 2.929688 -1.789062 2.9375 -1.765625 2.9375 -1.734375 C 2.9375 -1.703125 2.9375 -1.671875 2.9375 -1.640625 C 2.90625 -1.585938 2.859375 -1.550781 2.796875 -1.53125 C 2.742188 -1.5625 2.691406 -1.601562 2.640625 -1.65625 Z M 2.640625 -1.65625 "/></g></g></g><g fill="#3a2f2e" fill-opacity="1"><g transform="translate(83.658729, 37.959777)"><g><path d="M 1.109375 -0.25 C 1.109375 -0.332031 1.128906 -0.425781 1.171875 -0.53125 C 1.234375 -0.613281 1.304688 -0.671875 1.390625 -0.703125 C 1.472656 -0.742188 1.554688 -0.765625 1.640625 -0.765625 C 1.710938 -0.765625 1.773438 -0.75 1.828125 -0.71875 C 1.890625 -0.695312 1.941406 -0.664062 1.984375 -0.625 C 2.035156 -0.550781 2.0625 -0.457031 2.0625 -0.34375 C 2.0625 -0.320312 2.0625 -0.285156 2.0625 -0.234375 C 2.132812 -0.273438 2.191406 -0.335938 2.234375 -0.421875 C 2.285156 -0.515625 2.3125 -0.609375 2.3125 -0.703125 C 2.3125 -0.753906 2.300781 -0.8125 2.28125 -0.875 C 2.257812 -0.945312 2.1875 -1.007812 2.0625 -1.0625 C 1.945312 -1.125 1.816406 -1.15625 1.671875 -1.15625 C 1.523438 -1.15625 1.390625 -1.128906 1.265625 -1.078125 L 0.9375 -0.953125 L 0.859375 -1.09375 L 0.84375 -1.1875 C 0.851562 -1.238281 0.875 -1.285156 0.90625 -1.328125 L 0.96875 -1.375 L 2.125 -2.34375 L 1.09375 -2.21875 C 1.050781 -2.21875 1.015625 -2.21875 0.984375 -2.21875 C 0.929688 -2.21875 0.875 -2.226562 0.8125 -2.25 L 0.6875 -2.390625 L 0.65625 -2.484375 L 0.6875 -2.515625 L 0.78125 -2.5625 C 0.875 -2.582031 1.421875 -2.628906 2.421875 -2.703125 L 2.625 -2.625 C 2.632812 -2.59375 2.640625 -2.5625 2.640625 -2.53125 C 2.640625 -2.46875 2.617188 -2.390625 2.578125 -2.296875 C 2.578125 -2.253906 2.300781 -2 1.75 -1.53125 C 2.007812 -1.5 2.210938 -1.429688 2.359375 -1.328125 C 2.503906 -1.222656 2.601562 -1.101562 2.65625 -0.96875 C 2.675781 -0.894531 2.6875 -0.816406 2.6875 -0.734375 C 2.6875 -0.628906 2.664062 -0.519531 2.625 -0.40625 C 2.59375 -0.300781 2.546875 -0.207031 2.484375 -0.125 C 2.378906 0.0078125 2.257812 0.101562 2.125 0.15625 C 2 0.207031 1.878906 0.234375 1.765625 0.234375 C 1.691406 0.234375 1.597656 0.226562 1.484375 0.21875 C 1.367188 0.175781 1.273438 0.113281 1.203125 0.03125 C 1.140625 -0.0390625 1.109375 -0.132812 1.109375 -0.25 Z M 1.8125 -0.234375 C 1.800781 -0.359375 1.738281 -0.425781 1.625 -0.4375 C 1.5 -0.414062 1.4375 -0.335938 1.4375 -0.203125 C 1.5 -0.140625 1.570312 -0.109375 1.65625 -0.109375 C 1.695312 -0.109375 1.726562 -0.113281 1.75 -0.125 Z M 1.8125 -0.234375 "/></g></g></g><g fill="#3a2f2e" fill-opacity="1"><g transform="translate(87.885715, 37.959777)"><g><path d="M 0.15625 -1.03125 L 0.125 -1.140625 L 0.15625 -1.203125 C 0.226562 -1.253906 0.707031 -1.285156 1.59375 -1.296875 L 1.734375 -1.25 L 1.78125 -1.109375 L 1.734375 -1.03125 C 1.648438 -0.988281 1.160156 -0.96875 0.265625 -0.96875 Z M 0.15625 -1.03125 "/></g></g></g></svg>