<svg xmlns="http://www.w3.org/2000/svg" xmlns:xlink="http://www.w3.org/1999/xlink" width="220" zoomAndPan="magnify" viewBox="0 0 165 72" height="96" preserveAspectRatio="xMidYMid meet" version="1.0"><defs><g/><clipPath id="id1"><path d="M 20.675781 12.683594 L 106.046875 12.683594 L 106.046875 64.421875 L 20.675781 64.421875 Z M 20.675781 12.683594 " clip-rule="nonzero"/></clipPath><clipPath id="id2"><path d="M 106 42 L 150 42 L 150 51.972656 L 106 51.972656 Z M 106 42 " clip-rule="nonzero"/></clipPath><clipPath id="id3"><path d="M 105.742188 7.351562 L 150.367188 7.351562 L 150.367188 51.972656 L 105.742188 51.972656 Z M 105.742188 7.351562 " clip-rule="nonzero"/></clipPath></defs><g clip-path="url(#id1)"><path fill="#e6e9ff" d="M 30.152344 59.878906 C 29.824219 60.203125 29.546875 60.339844 29.125 60.015625 C 29.03125 59.921875 28.890625 59.921875 28.703125 59.878906 C 28.75 59.785156 28.84375 59.644531 28.9375 59.460938 C 28.75 59.414062 28.472656 59.414062 28.378906 59.273438 C 28.285156 59.136719 28.378906 58.90625 28.425781 58.582031 C 28.238281 58.625 28.003906 58.625 27.816406 58.671875 L 27.539062 58.117188 C 27.632812 58.117188 27.769531 58.070312 27.910156 58.070312 L 27.910156 57.980469 C 27.769531 57.933594 27.585938 57.886719 27.585938 57.886719 C 27.445312 57.699219 27.398438 57.609375 27.304688 57.5625 C 27.210938 57.515625 27.117188 57.46875 27.070312 57.421875 C 26.929688 57.332031 26.839844 57.238281 26.699219 57.097656 C 26.882812 57.007812 27.023438 56.960938 27.210938 56.867188 C 27.304688 56.820312 27.445312 56.820312 27.539062 56.773438 C 27.445312 56.683594 27.351562 56.636719 27.257812 56.542969 C 27.164062 56.449219 27.070312 56.3125 27.023438 56.171875 C 26.929688 55.847656 26.882812 55.523438 26.792969 55.199219 C 26.699219 55.015625 26.511719 54.828125 26.371094 54.644531 C 26.324219 54.597656 26.183594 54.550781 26.136719 54.503906 C 25.949219 54.179688 25.90625 53.671875 25.671875 53.488281 C 25.203125 53.117188 25.671875 52.605469 25.296875 52.28125 C 25.203125 52.191406 25.0625 52.050781 25.0625 51.910156 C 25.0625 51.585938 24.457031 51.449219 24.832031 51.03125 C 24.878906 50.984375 24.644531 50.523438 24.457031 50.382812 C 23.851562 49.921875 23.992188 49.132812 23.617188 48.578125 C 23.570312 48.484375 23.710938 48.300781 23.710938 48.160156 C 23.105469 47.789062 22.964844 47.234375 23.289062 46.679688 C 23.058594 46.492188 22.824219 46.355469 22.636719 46.167969 L 22.496094 46.03125 C 23.382812 45.84375 23.105469 45.105469 23.242188 44.546875 C 23.058594 44.457031 22.917969 44.410156 22.683594 44.316406 C 22.777344 44.222656 22.871094 44.179688 22.964844 44.085938 C 22.636719 43.761719 21.65625 43.667969 22.542969 42.835938 C 22.265625 42.742188 22.03125 42.648438 21.703125 42.558594 C 21.890625 42.417969 22.03125 42.324219 22.171875 42.234375 C 22.03125 42.140625 21.84375 42.09375 21.65625 41.957031 C 21.46875 41.722656 22.171875 41.167969 21.421875 40.890625 L 21.421875 40.195312 C 21.46875 40.148438 21.609375 40.054688 21.796875 39.964844 C 21.5625 39.917969 21.421875 39.871094 21.378906 39.871094 C 21.285156 39.40625 21.191406 38.992188 21.097656 38.621094 C 21.003906 38.621094 20.957031 38.574219 20.863281 38.574219 C 21.003906 38.527344 21.097656 38.480469 21.238281 38.4375 C 21.238281 38.390625 21.191406 38.34375 21.191406 38.296875 C 21.003906 38.203125 20.863281 38.15625 20.675781 38.066406 C 20.675781 38.019531 20.675781 37.878906 20.722656 37.789062 C 20.863281 37.789062 21.050781 37.832031 21.191406 37.832031 C 22.824219 36.492188 23.757812 36.074219 26.136719 35.519531 C 27.445312 35.195312 28.703125 34.777344 29.964844 34.40625 C 30.339844 34.269531 30.757812 34.128906 31.085938 33.898438 C 31.273438 33.757812 31.320312 33.433594 31.367188 33.15625 C 31.367188 33.015625 31.179688 32.832031 30.992188 32.785156 C 30.570312 32.601562 30.617188 32.277344 30.664062 32 C 30.480469 31.8125 30.292969 31.675781 30.105469 31.488281 C 30.246094 31.304688 30.339844 31.164062 30.433594 31.027344 C 29.683594 31.164062 29.917969 30.515625 29.824219 30.238281 C 29.589844 29.683594 29.546875 29.128906 29.40625 28.523438 C 29.453125 28.523438 29.546875 28.523438 29.636719 28.570312 C 29.40625 27.878906 29.21875 27.230469 28.984375 26.535156 C 29.03125 26.535156 29.078125 26.488281 29.125 26.488281 C 28.984375 26.347656 28.796875 26.257812 28.613281 26.070312 C 28.9375 25.699219 29.3125 25.421875 29.359375 24.914062 C 29.40625 24.3125 30.058594 24.125 30.570312 23.894531 C 31.972656 23.339844 33.417969 22.828125 34.820312 22.226562 C 35.707031 21.855469 36.546875 21.394531 37.433594 21.023438 C 38.273438 20.652344 39.113281 20.28125 40 19.957031 C 40.839844 19.632812 41.726562 19.355469 42.566406 19.125 C 43.3125 18.9375 44.109375 18.847656 44.855469 18.660156 C 45.179688 18.613281 45.460938 18.429688 45.742188 18.335938 C 47.234375 17.921875 48.726562 17.550781 50.175781 17.132812 C 51.4375 16.808594 52.648438 16.4375 53.910156 16.300781 C 54.421875 16.253906 54.9375 15.699219 55.496094 16.160156 C 55.542969 16.207031 55.730469 16.023438 55.871094 16.023438 C 56.101562 15.976562 56.289062 16.023438 56.523438 16.023438 C 56.382812 15.328125 57.082031 15.699219 57.316406 15.652344 C 58.109375 15.417969 58.996094 15.28125 59.835938 15.234375 C 61.703125 15.09375 63.476562 14.492188 65.296875 14.402344 C 66.371094 14.308594 67.445312 14.078125 68.519531 13.9375 C 68.613281 13.9375 69.03125 13.660156 68.84375 14.078125 C 70.246094 13.472656 71.785156 13.613281 73.28125 13.382812 C 73.28125 13.566406 73.28125 13.660156 73.234375 13.796875 C 73.324219 13.753906 73.464844 13.707031 73.464844 13.707031 C 73.324219 13.289062 73.605469 13.289062 73.886719 13.242188 C 74.585938 13.195312 75.332031 13.148438 76.035156 13.105469 C 76.828125 13.058594 77.574219 12.964844 78.367188 12.917969 C 78.507812 12.917969 78.648438 12.964844 78.785156 13.011719 C 78.972656 13.105469 79.066406 13.105469 79.300781 12.964844 C 79.535156 12.78125 80 12.828125 80.328125 12.828125 C 81.773438 12.78125 83.222656 12.734375 84.667969 12.734375 C 85.695312 12.734375 86.675781 12.828125 87.703125 12.871094 C 88.214844 12.917969 88.730469 12.964844 89.242188 12.964844 C 89.664062 12.964844 90.6875 13.796875 90.550781 14.121094 C 90.363281 14.539062 90.828125 14.863281 90.597656 15.234375 C 90.597656 15.234375 90.734375 15.328125 90.828125 15.375 C 90.597656 15.652344 90.640625 15.789062 90.921875 16.714844 C 91.0625 17.179688 91.0625 17.734375 91.0625 18.246094 C 91.109375 18.429688 91.109375 18.613281 91.15625 18.847656 C 91.25 19.308594 91.34375 19.773438 91.4375 20.28125 C 91.203125 20.328125 90.96875 20.328125 90.6875 20.375 C 91.15625 20.746094 91.527344 21.207031 91.015625 21.902344 L 91.25 21.902344 C 90.96875 22.414062 90.6875 22.96875 90.503906 23.386719 C 90.921875 23.800781 91.296875 24.21875 91.714844 24.589844 C 91.808594 24.679688 91.996094 24.820312 92.042969 24.773438 C 92.695312 24.449219 92.976562 25.050781 93.347656 25.285156 C 93.628906 25.46875 94.28125 25.609375 93.910156 26.257812 C 93.910156 26.257812 94.191406 26.488281 94.328125 26.535156 C 94.609375 26.582031 94.890625 26.535156 95.261719 26.488281 L 95.261719 30.886719 L 95.355469 30.886719 C 95.308594 30.980469 95.261719 31.117188 95.261719 31.164062 C 95.542969 31.722656 95.355469 32.136719 94.75 32.324219 C 94.703125 32.324219 94.65625 32.414062 94.609375 32.460938 C 94.609375 32.507812 94.609375 32.601562 94.65625 32.601562 L 94.890625 32.601562 L 95.449219 32.324219 L 95.542969 32.414062 C 95.449219 32.554688 95.355469 32.691406 95.261719 32.878906 C 95.402344 33.015625 95.542969 33.15625 95.777344 33.339844 C 95.683594 33.433594 95.542969 33.527344 95.496094 33.664062 C 95.449219 33.804688 95.125 33.945312 95.496094 34.128906 C 95.589844 34.175781 95.589844 34.5 95.636719 34.730469 C 94.9375 34.40625 94.984375 35.195312 94.5625 35.378906 C 94.515625 35.285156 94.421875 35.148438 94.328125 34.960938 C 94.28125 35.148438 94.238281 35.285156 94.238281 35.332031 C 94.097656 35.332031 93.816406 35.285156 93.769531 35.332031 C 93.675781 35.609375 93.535156 35.933594 93.628906 36.167969 C 93.675781 36.351562 94.003906 36.582031 94.238281 36.582031 C 94.890625 36.722656 95.542969 36.769531 96.195312 36.816406 C 96.570312 36.859375 96.945312 36.769531 97.316406 36.769531 C 97.832031 36.816406 98.296875 36.90625 98.808594 36.953125 C 98.996094 36.953125 99.230469 36.859375 99.417969 36.859375 C 99.929688 36.90625 100.492188 36.953125 101.003906 37.046875 C 101.097656 37.046875 101.191406 37.183594 101.238281 37.230469 C 101.5625 37.277344 101.890625 37.371094 102.171875 37.324219 C 102.824219 37.183594 103.152344 37.417969 103.570312 37.878906 C 103.710938 38.066406 104.226562 38.019531 104.503906 37.972656 C 105.25 37.878906 105.019531 38.480469 105.203125 38.804688 C 105.296875 38.945312 105.296875 39.128906 105.296875 39.269531 C 105.390625 39.640625 105.34375 39.964844 104.785156 40.148438 C 104.972656 40.335938 105.160156 40.425781 105.296875 40.613281 C 105.390625 40.703125 105.390625 40.84375 105.390625 40.984375 C 105.390625 41.167969 105.296875 41.398438 105.390625 41.492188 C 105.71875 41.769531 105.53125 41.957031 105.34375 42.09375 C 105.4375 42.324219 105.625 42.511719 105.625 42.695312 C 105.625 43.019531 105.390625 43.34375 105.765625 43.574219 L 105.765625 43.621094 C 105.25 44.269531 105.90625 44.871094 105.765625 45.519531 C 105.765625 45.613281 105.765625 45.800781 105.859375 45.890625 C 106.136719 46.125 106 46.355469 105.90625 46.632812 C 105.71875 47.050781 105.53125 47.464844 105.390625 47.789062 C 105.113281 47.742188 104.785156 47.652344 104.457031 47.699219 C 104.132812 47.699219 103.851562 47.789062 103.523438 47.835938 C 103.617188 48.113281 104.039062 48.300781 103.570312 48.671875 C 103.429688 48.761719 103.523438 49.179688 103.570312 49.410156 C 103.617188 49.734375 103.757812 50.105469 103.710938 50.429688 C 103.710938 50.570312 103.382812 50.707031 103.152344 50.800781 C 102.730469 51.03125 102.03125 50.9375 102.125 51.726562 C 101.796875 51.773438 101.378906 51.726562 101.796875 52.234375 C 101.984375 52.46875 101.609375 52.792969 101.097656 52.839844 C 100.539062 52.882812 99.976562 53.023438 99.417969 53.117188 C 98.902344 53.207031 98.390625 53.300781 97.878906 53.347656 C 97.738281 53.347656 97.550781 53.207031 97.363281 53.164062 C 97.222656 53.207031 96.988281 53.300781 96.757812 53.394531 C 96.617188 53.117188 96.523438 52.929688 96.476562 52.699219 C 96.429688 52.699219 96.382812 52.699219 96.382812 52.746094 L 96.382812 53.394531 C 96.011719 52.605469 95.496094 53.394531 95.125 53.253906 C 95.214844 53.347656 95.261719 53.441406 95.355469 53.578125 C 95.125 53.671875 94.9375 53.71875 94.75 53.765625 L 94.75 54.320312 C 94.421875 54.597656 94.191406 54.78125 93.957031 55.015625 C 94.144531 55.0625 94.328125 55.152344 94.609375 55.246094 C 94.050781 55.386719 93.628906 55.710938 93.070312 55.570312 C 92.929688 55.523438 92.742188 55.710938 92.601562 55.800781 C 92.324219 56.125 92.042969 56.359375 91.714844 56.035156 C 91.484375 56.449219 91.296875 56.820312 91.109375 57.191406 C 91.109375 57.007812 91.0625 56.867188 91.0625 56.683594 C 90.875 56.726562 90.6875 56.726562 90.503906 56.773438 C 90.550781 57.050781 90.597656 57.191406 90.640625 57.421875 C 90.828125 57.332031 90.96875 57.238281 91.109375 57.144531 C 91.34375 57.699219 91.484375 57.746094 92.136719 57.421875 C 92.230469 57.609375 92.324219 57.792969 92.417969 58.023438 C 91.902344 58.117188 91.390625 58.210938 90.828125 58.347656 C 91.15625 58.765625 90.410156 59.367188 91.15625 59.507812 C 90.96875 59.691406 90.828125 59.96875 90.597656 60.109375 C 90.269531 60.292969 89.894531 60.339844 89.523438 60.433594 C 89.007812 60.527344 88.449219 60.617188 87.933594 60.664062 C 87.234375 60.710938 86.535156 60.757812 85.882812 60.804688 C 85.367188 60.851562 84.902344 60.988281 84.433594 61.035156 C 84.0625 61.082031 83.640625 60.988281 83.269531 61.035156 C 82.660156 61.128906 82.101562 61.359375 81.496094 61.5 C 81.355469 61.542969 81.167969 61.542969 81.027344 61.542969 C 80.792969 61.542969 80.5625 61.3125 80.421875 61.683594 C 79.859375 61.3125 79.394531 62.191406 78.832031 61.777344 C 78.785156 61.730469 78.648438 61.867188 78.554688 61.914062 L 78.273438 62.054688 C 76.964844 62.285156 75.660156 62.46875 74.351562 62.65625 C 73.699219 62.75 73.046875 62.75 72.390625 62.792969 C 71.972656 62.839844 71.550781 62.980469 71.132812 63.027344 C 70.851562 63.074219 70.570312 63.027344 70.199219 62.980469 C 70.058594 63.351562 69.824219 63.304688 69.59375 62.980469 C 69.125 63.210938 68.660156 63.441406 68.097656 63.304688 C 67.910156 63.257812 67.632812 63.398438 67.398438 63.398438 C 67.210938 63.398438 67.023438 63.351562 66.839844 63.257812 C 66.652344 63.164062 66.417969 62.886719 66.371094 63.398438 C 66.371094 63.441406 65.90625 63.488281 65.625 63.535156 C 65.066406 63.628906 64.457031 63.675781 63.851562 63.765625 C 63.945312 63.582031 63.992188 63.441406 64.039062 63.304688 L 63.992188 63.257812 L 63.289062 63.8125 C 62.917969 64.136719 62.449219 64.089844 61.984375 64.089844 C 61.5625 64.089844 61.097656 64.046875 60.769531 64.183594 C 60.398438 64.324219 60.445312 64.414062 60.210938 64.089844 C 60.023438 64.460938 59.183594 64.648438 58.949219 64.414062 C 59.089844 64.324219 59.230469 64.277344 59.371094 64.183594 C 59.324219 64.136719 59.324219 64.089844 59.277344 64.046875 C 59.183594 64.089844 59.136719 64.136719 59.042969 64.183594 C 58.484375 64.507812 57.875 64.414062 57.316406 64.460938 C 56.851562 64.507812 56.382812 64.324219 55.871094 64.230469 L 55.871094 63.8125 C 55.871094 63.210938 55.542969 62.886719 54.984375 62.839844 C 54.796875 62.839844 54.46875 62.886719 54.515625 62.425781 C 54.5625 62.101562 54.097656 61.914062 53.675781 62.007812 C 53.347656 62.101562 52.976562 62.054688 52.648438 62.054688 C 52.601562 62.007812 52.507812 61.960938 52.414062 61.960938 C 52.042969 62.007812 51.714844 62.101562 51.34375 62.101562 C 50.59375 62.191406 49.894531 62.238281 49.148438 62.332031 C 48.960938 62.332031 48.773438 62.285156 48.496094 62.285156 C 48.683594 62.144531 48.820312 62.054688 48.960938 61.960938 C 47.75 62.191406 47.375 61.453125 47.140625 60.570312 C 47.1875 60.570312 47.28125 60.527344 47.375 60.527344 C 46.394531 60.386719 46.300781 59.597656 46.066406 58.859375 C 45.929688 58.8125 45.648438 58.71875 45.460938 58.625 C 45.554688 58.488281 45.695312 58.300781 45.789062 58.164062 C 45.601562 58.117188 45.367188 58.023438 45.179688 58.023438 C 44.527344 58.117188 43.96875 58.023438 43.546875 57.46875 C 44.152344 57.5625 44.714844 57.65625 45.320312 57.746094 C 45.414062 57.421875 45.460938 57.238281 45.507812 57.007812 C 45.085938 57.285156 45.085938 57.285156 44.761719 57.007812 C 44.621094 56.914062 44.480469 56.820312 44.386719 56.773438 C 44.109375 57.238281 43.640625 56.867188 43.222656 57.050781 C 43.359375 57.238281 43.453125 57.375 43.546875 57.515625 C 43.3125 57.375 42.847656 57.699219 42.941406 57.144531 C 42.566406 57.238281 42.195312 57.332031 41.867188 57.46875 C 41.679688 57.5625 41.585938 57.792969 41.445312 57.980469 L 41.445312 57.699219 C 41.355469 57.699219 41.261719 57.699219 41.214844 57.746094 C 40.652344 58.023438 40.046875 58.347656 39.488281 58.625 C 39.347656 58.441406 39.300781 58.300781 39.253906 58.300781 C 38.925781 58.488281 38.601562 58.765625 38.320312 58.71875 C 38.039062 58.71875 37.714844 58.394531 37.433594 58.257812 C 37.433594 58.488281 37.386719 58.71875 37.386719 58.949219 C 36.828125 58.488281 36.734375 58.535156 36.40625 59.367188 C 36.734375 59.367188 37.058594 59.320312 37.433594 59.320312 L 37.433594 58.996094 C 37.574219 59.136719 37.714844 59.230469 37.851562 59.367188 C 37.851562 59.460938 37.804688 59.691406 37.804688 59.691406 C 37.339844 59.691406 36.964844 60.292969 36.40625 59.921875 C 36.3125 59.878906 36.125 60.015625 35.984375 60.015625 L 35.707031 60.015625 C 34.445312 60.570312 33.09375 60.617188 31.738281 60.941406 C 31.691406 60.433594 31.410156 60.480469 31.039062 60.570312 C 30.945312 60.617188 30.757812 60.480469 30.617188 60.480469 C 30.710938 60.480469 30.804688 60.433594 30.851562 60.433594 C 30.945312 60.246094 31.039062 60.015625 31.085938 59.878906 C 30.945312 59.832031 30.757812 59.691406 30.570312 59.691406 C 30.433594 59.691406 30.292969 59.832031 30.152344 59.878906 C 30.246094 59.738281 30.199219 59.832031 30.152344 59.878906 Z M 78.972656 60.804688 C 78.367188 60.894531 77.855469 60.988281 77.292969 61.082031 L 77.292969 61.3125 C 77.574219 61.359375 77.898438 61.453125 78.179688 61.40625 C 78.460938 61.40625 78.878906 61.40625 78.972656 60.804688 Z M 36.265625 59.414062 C 36.03125 59.136719 35.941406 58.859375 35.613281 59.136719 C 35.472656 59.273438 35.238281 59.273438 35.050781 59.367188 C 34.960938 59.414062 34.867188 59.460938 34.773438 59.554688 L 34.820312 59.691406 C 34.914062 59.691406 35.007812 59.644531 35.144531 59.597656 C 35.285156 59.554688 35.425781 59.554688 35.566406 59.554688 C 35.707031 59.507812 35.941406 59.460938 36.265625 59.414062 Z M 52.136719 60.851562 C 52.367188 61.128906 52.554688 61.359375 52.742188 61.589844 C 52.835938 61.359375 52.976562 61.128906 53.023438 60.941406 C 52.742188 60.851562 52.460938 60.851562 52.136719 60.851562 Z M 37.667969 56.820312 C 37.386719 57.5625 37.574219 57.839844 38.085938 57.792969 C 37.945312 57.515625 37.804688 57.238281 37.667969 56.820312 Z M 37.667969 56.820312 " fill-opacity="1" fill-rule="nonzero"/></g><path fill="#e6e9ff" d="M 37.945312 59.183594 C 37.898438 59.089844 37.898438 58.996094 37.851562 58.8125 C 38.367188 59.183594 38.738281 58.8125 39.160156 58.71875 C 39.582031 58.625 40.046875 58.8125 40.46875 58.859375 L 40.46875 58.8125 C 40.375 59.273438 40 59.136719 39.671875 59.183594 C 39.394531 59.230469 39.019531 59.136719 38.832031 59.273438 C 38.414062 59.644531 38.179688 59.460938 37.945312 59.183594 Z M 37.945312 59.183594 " fill-opacity="1" fill-rule="nonzero"/><path fill="#e6e9ff" d="M 40.46875 58.859375 C 40.605469 58.765625 40.746094 58.582031 40.933594 58.441406 C 41.121094 58.300781 41.308594 58.210938 41.492188 58.070312 C 41.539062 58.117188 41.585938 58.210938 41.679688 58.257812 L 42.242188 58.394531 C 41.585938 58.535156 41.027344 58.671875 40.46875 58.859375 Z M 40.46875 58.859375 " fill-opacity="1" fill-rule="nonzero"/><path fill="#e6e9ff" d="M 30.152344 59.878906 C 30.199219 59.832031 30.246094 59.738281 30.292969 59.691406 C 30.851562 59.460938 30.710938 60.0625 30.992188 60.246094 C 30.898438 60.246094 30.804688 60.292969 30.757812 60.292969 C 30.617188 60.339844 30.386719 60.433594 30.292969 60.386719 C 30.199219 60.246094 30.199219 60.0625 30.152344 59.878906 Z M 30.152344 59.878906 " fill-opacity="1" fill-rule="nonzero"/><path fill="#e6e9ff" d="M 42.195312 58.394531 C 42.101562 57.933594 42.566406 57.980469 42.753906 57.886719 C 42.894531 57.839844 43.128906 57.933594 43.40625 57.980469 C 42.988281 58.441406 42.613281 58.582031 42.195312 58.394531 Z M 42.195312 58.394531 " fill-opacity="1" fill-rule="nonzero"/><path stroke-linecap="butt" transform="matrix(0.64464, -0.000000000000000082, 0.000000000000000068, 0.537541, 16.337215, 21.025874)" fill="none" stroke-linejoin="miter" d="M -0.00198172 0.0027345 L 135.441822 0.0027345 " stroke="#3a2f2e" stroke-width="1" stroke-opacity="1" stroke-miterlimit="4"/><g clip-path="url(#id2)"><path fill="#89d1ff" d="M 141.5 50.480469 C 137.792969 51.148438 133.125 51.542969 128.054688 51.542969 C 115.96875 51.542969 106.171875 49.285156 106.171875 46.503906 C 106.171875 44.746094 110.074219 43.199219 115.992188 42.292969 C 118.175781 44.84375 122.097656 47.21875 128.871094 47.21875 C 134.320312 47.21875 137.734375 45.117188 139.855469 42.253906 C 145.921875 43.152344 149.9375 44.71875 149.9375 46.503906 C 149.9375 48.117188 146.636719 49.558594 141.5 50.480469 Z M 141.5 50.480469 " fill-opacity="1" fill-rule="nonzero"/></g><g clip-path="url(#id3)"><path fill="#3a2f2e" d="M 147.375 43.648438 C 145.710938 42.953125 143.359375 42.355469 140.550781 41.914062 C 141.316406 40.757812 141.945312 39.433594 142.425781 37.957031 C 142.960938 36.308594 143.316406 34.472656 143.484375 32.492188 C 143.765625 29.128906 143.40625 26.554688 143.390625 26.445312 C 143.359375 26.242188 143.171875 26.101562 142.96875 26.128906 C 142.765625 26.160156 142.625 26.347656 142.65625 26.550781 C 142.660156 26.578125 143.019531 29.148438 142.746094 32.429688 C 142.492188 35.441406 141.640625 39.671875 139.003906 42.726562 C 136.648438 45.460938 133.238281 46.847656 128.875 46.847656 C 120.378906 46.847656 116.691406 43.066406 115.164062 40.503906 C 115.15625 40.492188 115.148438 40.476562 115.140625 40.460938 C 115.652344 40.316406 116.226562 40.082031 116.761719 39.796875 C 117.488281 39.410156 118.496094 38.742188 119.175781 37.757812 C 119.859375 36.773438 120.0625 35.699219 119.78125 34.570312 C 119.546875 33.628906 118.996094 33.039062 118.273438 32.953125 C 117.628906 32.875 116.957031 33.210938 116.40625 33.851562 C 116.171875 33.09375 115.675781 32.511719 115.019531 32.289062 C 114.195312 32.011719 113.308594 32.382812 112.652344 33.277344 C 111.308594 35.101562 112.839844 37.976562 113.945312 39.882812 C 113.382812 39.851562 112.769531 39.644531 112.152344 39.265625 C 109.503906 37.640625 106.621094 33.675781 106.546875 30.363281 C 106.523438 29.296875 106.671875 28.246094 106.96875 27.40625 C 107.3125 26.421875 107.835938 25.722656 108.523438 25.339844 C 109.144531 24.992188 109.902344 24.898438 110.785156 25.054688 C 111.820312 25.246094 113.027344 25.785156 114.375 26.664062 C 115.695312 27.523438 117.378906 28.203125 119.382812 28.6875 C 121.222656 29.132812 123.28125 29.402344 125.496094 29.488281 C 126.003906 29.507812 126.511719 29.515625 127.023438 29.515625 C 130.757812 29.515625 134.503906 28.996094 137.496094 28.050781 C 139.621094 27.378906 142.3125 26.179688 143.082031 24.285156 C 143.261719 23.839844 143.335938 23.167969 142.660156 22.5 C 141.878906 21.730469 140.222656 21.113281 137.734375 20.671875 C 135.5625 20.285156 132.84375 20.050781 129.871094 19.988281 C 128.71875 19.964844 127.550781 19.96875 126.402344 20 C 126.683594 19.28125 127.34375 18.800781 128.160156 18.207031 C 129.148438 17.488281 130.378906 16.59375 131.253906 14.957031 C 131.9375 13.675781 132.175781 12.328125 131.941406 11.0625 C 131.726562 9.90625 131.128906 8.898438 130.265625 8.21875 C 129.519531 7.636719 128.648438 7.351562 127.742188 7.390625 C 126.769531 7.433594 125.808594 7.863281 124.96875 8.636719 C 124.214844 9.332031 123.808594 10.171875 123.796875 11.070312 C 123.785156 11.835938 124.0625 12.605469 124.574219 13.238281 C 125.484375 14.359375 126.808594 14.691406 127.722656 14.023438 C 127.886719 13.902344 127.921875 13.667969 127.804688 13.503906 C 127.683594 13.335938 127.449219 13.296875 127.285156 13.417969 C 126.625 13.902344 125.710938 13.457031 125.152344 12.765625 C 124.445312 11.898438 124.105469 10.441406 125.46875 9.1875 C 127.105469 7.683594 128.78125 8.007812 129.808594 8.808594 C 131.128906 9.84375 131.941406 12.097656 130.601562 14.605469 C 129.808594 16.089844 128.703125 16.894531 127.726562 17.601562 C 126.792969 18.277344 125.902344 18.925781 125.613281 20.027344 C 124.214844 20.078125 122.859375 20.171875 121.617188 20.300781 C 118.9375 20.578125 116.847656 21.015625 115.570312 21.5625 C 114.503906 22.019531 113.964844 22.578125 113.972656 23.226562 C 113.976562 23.8125 114.375 24.332031 115.152344 24.773438 C 116.179688 25.351562 117.882812 25.808594 120.21875 26.136719 C 122.292969 26.425781 124.75 26.59375 127.320312 26.617188 C 131.433594 26.65625 136.910156 26.296875 138.816406 25.152344 C 139.328125 24.847656 139.582031 24.488281 139.574219 24.078125 C 139.570312 23.726562 139.441406 23.433594 139.191406 23.199219 C 138.335938 22.410156 136.164062 22.554688 133.648438 22.722656 C 131.863281 22.84375 130.019531 22.964844 128.589844 22.757812 C 126.617188 22.472656 126.320312 21.671875 126.269531 21.09375 C 126.261719 20.972656 126.253906 20.859375 126.257812 20.75 C 127.425781 20.714844 128.636719 20.710938 129.855469 20.734375 C 132.789062 20.796875 135.472656 21.027344 137.609375 21.40625 C 140.519531 21.921875 141.679688 22.574219 142.140625 23.03125 C 142.460938 23.347656 142.539062 23.648438 142.394531 24.003906 C 141.882812 25.273438 140.0625 26.457031 137.273438 27.339844 C 133.953125 28.390625 129.667969 28.902344 125.523438 28.742188 C 121.007812 28.566406 117.191406 27.605469 114.78125 26.035156 C 112.011719 24.230469 109.785156 23.777344 108.164062 24.6875 C 107.3125 25.164062 106.675781 25.996094 106.269531 27.15625 C 105.851562 28.34375 105.789062 29.5625 105.804688 30.378906 C 105.855469 32.582031 106.929688 34.621094 107.820312 35.945312 C 108.9375 37.605469 110.375 39.046875 111.769531 39.902344 C 112.65625 40.445312 113.554688 40.691406 114.375 40.617188 C 114.609375 41.039062 114.902344 41.496094 115.261719 41.972656 C 112.546875 42.421875 110.277344 43.011719 108.671875 43.691406 C 106.730469 44.511719 105.746094 45.457031 105.746094 46.5 C 105.746094 47.351562 106.398438 48.140625 107.691406 48.84375 C 108.828125 49.460938 110.441406 50.015625 112.488281 50.488281 C 116.652344 51.445312 122.179688 51.976562 128.058594 51.976562 C 133.933594 51.976562 139.460938 51.445312 143.625 50.488281 C 145.675781 50.015625 147.289062 49.460938 148.425781 48.84375 C 149.714844 48.140625 150.367188 47.351562 150.367188 46.5 C 150.367188 45.4375 149.359375 44.476562 147.375 43.648438 Z M 126.496094 22.820312 C 126.976562 23.152344 127.625 23.375 128.480469 23.496094 C 129.992188 23.714844 131.875 23.589844 133.695312 23.46875 C 134.875 23.390625 135.992188 23.316406 136.902344 23.34375 C 137.828125 23.375 138.425781 23.511719 138.6875 23.75 C 138.785156 23.839844 138.828125 23.945312 138.832031 24.089844 C 138.832031 24.207031 138.6875 24.363281 138.4375 24.511719 C 136.996094 25.375 132.53125 25.921875 127.328125 25.871094 C 121.863281 25.820312 117.339844 25.148438 115.515625 24.121094 C 115.152344 23.917969 114.71875 23.59375 114.710938 23.21875 C 114.710938 22.914062 115.128906 22.5625 115.863281 22.246094 C 117.664062 21.476562 121.289062 20.941406 125.515625 20.773438 C 125.511719 20.898438 125.519531 21.027344 125.53125 21.160156 C 125.59375 21.859375 125.917969 22.417969 126.496094 22.820312 Z M 113.246094 33.71875 C 113.617188 33.214844 114.050781 32.945312 114.46875 32.945312 C 114.574219 32.945312 114.679688 32.964844 114.78125 33 C 115.394531 33.203125 115.8125 33.96875 115.804688 34.859375 C 115.804688 35.03125 115.917969 35.183594 116.085938 35.222656 C 116.253906 35.265625 116.425781 35.1875 116.503906 35.035156 C 116.960938 34.152344 117.621094 33.628906 118.183594 33.695312 C 118.59375 33.742188 118.902344 34.117188 119.0625 34.75 C 119.289062 35.664062 119.121094 36.53125 118.566406 37.332031 C 117.625 38.695312 115.804688 39.53125 114.753906 39.792969 C 113.738281 38.058594 112.125 35.246094 113.246094 33.71875 Z M 148.015625 48.085938 C 146.945312 48.667969 145.40625 49.191406 143.433594 49.648438 C 139.332031 50.59375 133.871094 51.113281 128.054688 51.113281 C 122.242188 51.113281 116.78125 50.59375 112.679688 49.648438 C 110.707031 49.191406 109.164062 48.667969 108.097656 48.085938 C 107.121094 47.554688 106.601562 47.003906 106.601562 46.503906 C 106.601562 45.855469 107.453125 45.140625 109 44.488281 C 110.644531 43.792969 113.027344 43.191406 115.894531 42.746094 C 118.023438 45.121094 121.910156 47.59375 128.875 47.59375 C 133.464844 47.59375 137.0625 46.121094 139.566406 43.214844 C 139.710938 43.046875 139.851562 42.875 139.988281 42.699219 C 142.921875 43.140625 145.363281 43.742188 147.046875 44.445312 C 148.632812 45.105469 149.507812 45.839844 149.507812 46.503906 C 149.507812 47.003906 148.992188 47.554688 148.015625 48.085938 Z M 148.015625 48.085938 " fill-opacity="1" fill-rule="nonzero"/></g><path stroke-linecap="butt" transform="matrix(0.648651, 0, 0, 0.537541, 50.927928, 51.452889)" fill="none" stroke-linejoin="miter" d="M 0.00271212 0.000438188 L 115.663358 0.000438188 " stroke="#3a2f2e" stroke-width="1" stroke-opacity="1" stroke-miterlimit="4"/><g fill="#3a2f2e" fill-opacity="1"><g transform="translate(18.760955, 43.606168)"><g><path d="M 6.171875 -17.390625 C 7.828125 -17.390625 9.375 -17.054688 10.8125 -16.390625 L 10.8125 -15.21875 C 9.34375 -16 7.828125 -16.390625 6.265625 -16.390625 C 5.242188 -16.390625 4.382812 -16.160156 3.6875 -15.703125 C 3 -15.242188 2.65625 -14.5 2.65625 -13.46875 C 2.65625 -11.695312 3.859375 -10.421875 6.265625 -9.640625 C 8.066406 -9.054688 9.351562 -8.347656 10.125 -7.515625 C 10.90625 -6.679688 11.296875 -5.625 11.296875 -4.34375 C 11.296875 -2.851562 10.851562 -1.71875 9.96875 -0.9375 C 9.09375 -0.15625 7.820312 0.234375 6.15625 0.234375 C 4.539062 0.234375 3.054688 -0.171875 1.703125 -0.984375 L 1.703125 -2.1875 C 3.015625 -1.25 4.46875 -0.78125 6.0625 -0.78125 C 7.375 -0.78125 8.375 -1.082031 9.0625 -1.6875 C 9.75 -2.300781 10.09375 -3.1875 10.09375 -4.34375 C 10.09375 -5.351562 9.78125 -6.1875 9.15625 -6.84375 C 8.539062 -7.5 7.546875 -8.054688 6.171875 -8.515625 C 3.046875 -9.523438 1.484375 -11.175781 1.484375 -13.46875 C 1.484375 -14.707031 1.890625 -15.671875 2.703125 -16.359375 C 3.515625 -17.046875 4.671875 -17.390625 6.171875 -17.390625 Z M 6.171875 -17.390625 "/></g></g></g><g fill="#3a2f2e" fill-opacity="1"><g transform="translate(32.20346, 43.606168)"><g><path d="M 2.921875 -12.203125 L 2.9375 -10.046875 L 2.984375 -10.046875 C 4.117188 -11.660156 5.519531 -12.46875 7.1875 -12.46875 C 8.625 -12.46875 9.65625 -12.070312 10.28125 -11.28125 C 10.90625 -10.488281 11.21875 -9.15625 11.21875 -7.28125 L 11.21875 0 L 10.125 0 L 10.125 -7.15625 C 10.125 -8.851562 9.875 -10.003906 9.375 -10.609375 C 8.875 -11.210938 8.066406 -11.515625 6.953125 -11.515625 C 6.066406 -11.515625 5.175781 -11.082031 4.28125 -10.21875 C 3.394531 -9.351562 2.953125 -8.492188 2.953125 -7.640625 L 2.953125 0 L 1.84375 0 L 1.84375 -12.203125 Z M 2.921875 -12.203125 "/></g></g></g><g fill="#3a2f2e" fill-opacity="1"><g transform="translate(45.829573, 43.606168)"><g><path d="M 9.875 -12.203125 L 11 -12.203125 L 11 0 L 9.921875 0 L 9.890625 -2.15625 L 9.84375 -2.15625 C 9.351562 -1.394531 8.738281 -0.804688 8 -0.390625 C 7.269531 0.0234375 6.484375 0.234375 5.640625 0.234375 C 4.296875 0.234375 3.304688 -0.128906 2.671875 -0.859375 C 2.035156 -1.597656 1.71875 -2.828125 1.71875 -4.546875 L 1.71875 -12.203125 L 2.828125 -12.203125 L 2.828125 -4.65625 C 2.828125 -3.125 3.070312 -2.082031 3.5625 -1.53125 C 4.0625 -0.988281 4.832031 -0.71875 5.875 -0.71875 C 6.820312 -0.71875 7.722656 -1.117188 8.578125 -1.921875 C 9.441406 -2.722656 9.875 -3.613281 9.875 -4.59375 Z M 9.875 -12.203125 "/></g></g></g><g fill="#3a2f2e" fill-opacity="1"><g transform="translate(59.340932, 43.606168)"><g><path d="M 5.296875 4.46875 C 6.722656 4.46875 7.84375 4.191406 8.65625 3.640625 C 9.476562 3.097656 9.890625 2.367188 9.890625 1.453125 C 9.890625 -0.265625 8.550781 -1.125 5.875 -1.125 C 4.175781 -1.125 2.953125 -1.304688 2.203125 -1.671875 C 1.453125 -2.035156 1.078125 -2.625 1.078125 -3.4375 C 1.078125 -4.070312 1.382812 -4.675781 2 -5.25 C 1.1875 -5.96875 0.78125 -6.929688 0.78125 -8.140625 C 0.78125 -9.410156 1.195312 -10.445312 2.03125 -11.25 C 2.863281 -12.0625 3.9375 -12.46875 5.25 -12.46875 C 7.164062 -12.46875 8.59375 -11.875 9.53125 -10.6875 L 9.5625 -10.6875 L 9.59375 -12.203125 L 10.65625 -12.203125 L 10.65625 -8.140625 C 10.65625 -6.859375 10.222656 -5.859375 9.359375 -5.140625 C 8.492188 -4.421875 7.28125 -4.0625 5.71875 -4.0625 C 4.539062 -4.0625 3.550781 -4.285156 2.75 -4.734375 C 2.3125 -4.316406 2.09375 -3.914062 2.09375 -3.53125 C 2.09375 -3.226562 2.175781 -2.976562 2.34375 -2.78125 C 2.507812 -2.59375 2.890625 -2.425781 3.484375 -2.28125 C 4.085938 -2.132812 4.921875 -2.0625 5.984375 -2.0625 C 9.335938 -2.0625 11.015625 -0.921875 11.015625 1.359375 C 11.015625 2.578125 10.515625 3.554688 9.515625 4.296875 C 8.515625 5.046875 7.109375 5.421875 5.296875 5.421875 C 3.691406 5.421875 2.1875 5.085938 0.78125 4.421875 L 0.78125 3.34375 C 2.175781 4.09375 3.679688 4.46875 5.296875 4.46875 Z M 1.875 -8.125 C 1.875 -7.125 2.210938 -6.335938 2.890625 -5.765625 C 3.566406 -5.191406 4.5 -4.90625 5.6875 -4.90625 C 6.851562 -4.90625 7.773438 -5.191406 8.453125 -5.765625 C 9.140625 -6.335938 9.484375 -7.125 9.484375 -8.125 C 9.484375 -9.175781 9.117188 -10.007812 8.390625 -10.625 C 7.660156 -11.25 6.703125 -11.5625 5.515625 -11.5625 C 4.441406 -11.5625 3.566406 -11.242188 2.890625 -10.609375 C 2.210938 -9.972656 1.875 -9.144531 1.875 -8.125 Z M 1.875 -8.125 "/></g></g></g><g fill="#3a2f2e" fill-opacity="1"><g transform="translate(71.934241, 43.606168)"><g><path d="M 5.296875 4.46875 C 6.722656 4.46875 7.84375 4.191406 8.65625 3.640625 C 9.476562 3.097656 9.890625 2.367188 9.890625 1.453125 C 9.890625 -0.265625 8.550781 -1.125 5.875 -1.125 C 4.175781 -1.125 2.953125 -1.304688 2.203125 -1.671875 C 1.453125 -2.035156 1.078125 -2.625 1.078125 -3.4375 C 1.078125 -4.070312 1.382812 -4.675781 2 -5.25 C 1.1875 -5.96875 0.78125 -6.929688 0.78125 -8.140625 C 0.78125 -9.410156 1.195312 -10.445312 2.03125 -11.25 C 2.863281 -12.0625 3.9375 -12.46875 5.25 -12.46875 C 7.164062 -12.46875 8.59375 -11.875 9.53125 -10.6875 L 9.5625 -10.6875 L 9.59375 -12.203125 L 10.65625 -12.203125 L 10.65625 -8.140625 C 10.65625 -6.859375 10.222656 -5.859375 9.359375 -5.140625 C 8.492188 -4.421875 7.28125 -4.0625 5.71875 -4.0625 C 4.539062 -4.0625 3.550781 -4.285156 2.75 -4.734375 C 2.3125 -4.316406 2.09375 -3.914062 2.09375 -3.53125 C 2.09375 -3.226562 2.175781 -2.976562 2.34375 -2.78125 C 2.507812 -2.59375 2.890625 -2.425781 3.484375 -2.28125 C 4.085938 -2.132812 4.921875 -2.0625 5.984375 -2.0625 C 9.335938 -2.0625 11.015625 -0.921875 11.015625 1.359375 C 11.015625 2.578125 10.515625 3.554688 9.515625 4.296875 C 8.515625 5.046875 7.109375 5.421875 5.296875 5.421875 C 3.691406 5.421875 2.1875 5.085938 0.78125 4.421875 L 0.78125 3.34375 C 2.175781 4.09375 3.679688 4.46875 5.296875 4.46875 Z M 1.875 -8.125 C 1.875 -7.125 2.210938 -6.335938 2.890625 -5.765625 C 3.566406 -5.191406 4.5 -4.90625 5.6875 -4.90625 C 6.851562 -4.90625 7.773438 -5.191406 8.453125 -5.765625 C 9.140625 -6.335938 9.484375 -7.125 9.484375 -8.125 C 9.484375 -9.175781 9.117188 -10.007812 8.390625 -10.625 C 7.660156 -11.25 6.703125 -11.5625 5.515625 -11.5625 C 4.441406 -11.5625 3.566406 -11.242188 2.890625 -10.609375 C 2.210938 -9.972656 1.875 -9.144531 1.875 -8.125 Z M 1.875 -8.125 "/></g></g></g><g fill="#3a2f2e" fill-opacity="1"><g transform="translate(84.52755, 43.606168)"><g><path d="M 2.890625 0 L 2.890625 -17.625 L 4.0625 -17.625 L 4.0625 0 Z M 2.890625 0 "/></g></g></g><g fill="#3a2f2e" fill-opacity="1"><g transform="translate(92.163406, 43.606168)"><g><path d="M 2.15625 -5.875 C 2.195312 -2.414062 3.75 -0.6875 6.8125 -0.6875 C 8.019531 -0.6875 9.210938 -0.929688 10.390625 -1.421875 L 10.390625 -0.40625 C 9.117188 0.0195312 7.90625 0.234375 6.75 0.234375 C 4.863281 0.234375 3.4375 -0.296875 2.46875 -1.359375 C 1.5 -2.421875 1.015625 -4.003906 1.015625 -6.109375 C 1.015625 -8.390625 1.503906 -10.019531 2.484375 -11 C 3.472656 -11.976562 4.738281 -12.46875 6.28125 -12.46875 C 9.5 -12.46875 11.109375 -10.40625 11.109375 -6.28125 L 11.109375 -5.875 Z M 2.15625 -6.796875 L 10 -6.796875 C 9.957031 -9.960938 8.71875 -11.546875 6.28125 -11.546875 C 3.6875 -11.546875 2.3125 -9.960938 2.15625 -6.796875 Z M 2.15625 -6.796875 "/></g></g></g><g fill="#3a2f2e" fill-opacity="1"><g transform="translate(60.83374, 58.627658)"><g><path d="M 0.25 -1.578125 L 0.203125 -1.765625 L 0.25 -1.859375 C 0.34375 -1.929688 1.078125 -1.984375 2.453125 -2.015625 L 2.6875 -1.921875 L 2.75 -1.703125 L 2.6875 -1.609375 C 2.550781 -1.535156 1.796875 -1.5 0.421875 -1.5 Z M 0.25 -1.578125 "/></g></g></g><g fill="#3a2f2e" fill-opacity="1"><g transform="translate(64.495121, 58.627658)"><g><path d="M 2.125 0.203125 C 2.101562 0.0664062 2.160156 -0.0234375 2.296875 -0.078125 C 2.460938 -0.148438 2.613281 -0.257812 2.75 -0.40625 L 2.875 -0.578125 C 2.789062 -0.566406 2.707031 -0.5625 2.625 -0.5625 C 2.457031 -0.5625 2.300781 -0.585938 2.15625 -0.640625 C 1.96875 -0.765625 1.832031 -0.898438 1.75 -1.046875 C 1.664062 -1.191406 1.625 -1.335938 1.625 -1.484375 C 1.625 -1.628906 1.644531 -1.78125 1.6875 -1.9375 C 1.738281 -2.09375 1.800781 -2.222656 1.875 -2.328125 C 1.96875 -2.429688 2.054688 -2.507812 2.140625 -2.5625 C 2.222656 -2.613281 2.328125 -2.648438 2.453125 -2.671875 C 2.484375 -2.671875 2.523438 -2.671875 2.578125 -2.671875 C 2.691406 -2.671875 2.828125 -2.65625 2.984375 -2.625 L 2.953125 -3.015625 C 1.597656 -2.953125 0.847656 -2.921875 0.703125 -2.921875 C 0.597656 -2.929688 0.503906 -2.972656 0.421875 -3.046875 L 0.34375 -3.125 L 0.34375 -3.28125 L 0.375 -3.34375 C 0.582031 -3.394531 0.796875 -3.421875 1.015625 -3.421875 L 1.171875 -3.390625 L 2.921875 -3.5 L 2.890625 -4.328125 L 2.984375 -4.53125 L 3.203125 -4.578125 C 3.265625 -4.585938 3.316406 -4.554688 3.359375 -4.484375 C 3.410156 -4.367188 3.453125 -4.265625 3.484375 -4.171875 L 3.5625 -3.53125 L 4.765625 -3.578125 L 5 -3.671875 L 5.125 -3.640625 L 5.34375 -3.546875 L 5.375 -3.421875 L 5.328125 -3.140625 L 4.890625 -3.078125 L 3.578125 -3 L 3.59375 -2.140625 C 3.59375 -2.035156 3.59375 -1.894531 3.59375 -1.71875 C 3.59375 -1.476562 3.582031 -1.269531 3.5625 -1.09375 C 3.550781 -0.914062 3.519531 -0.753906 3.46875 -0.609375 C 3.394531 -0.410156 3.289062 -0.226562 3.15625 -0.0625 C 3.050781 0.0390625 2.9375 0.128906 2.8125 0.203125 C 2.675781 0.328125 2.535156 0.390625 2.390625 0.390625 C 2.222656 0.359375 2.132812 0.296875 2.125 0.203125 Z M 2.875 -1.109375 C 2.945312 -1.273438 2.984375 -1.441406 2.984375 -1.609375 C 2.984375 -1.734375 2.96875 -1.863281 2.9375 -2 C 2.90625 -2.113281 2.828125 -2.171875 2.703125 -2.171875 C 2.660156 -2.171875 2.617188 -2.164062 2.578125 -2.15625 C 2.304688 -2.070312 2.171875 -1.859375 2.171875 -1.515625 C 2.171875 -1.328125 2.332031 -1.179688 2.65625 -1.078125 Z M 2.875 -1.109375 "/></g></g></g><g fill="#3a2f2e" fill-opacity="1"><g transform="translate(71.021432, 58.627658)"><g><path d="M 1.171875 -1 C 1.148438 -1 1.117188 -1 1.078125 -1 C 0.921875 -1 0.8125 -1.0625 0.75 -1.1875 L 0.75 -1.359375 C 0.832031 -1.566406 0.9375 -1.8125 1.0625 -2.09375 C 1.164062 -2.3125 1.25 -2.585938 1.3125 -2.921875 C 1.125 -2.878906 0.90625 -2.84375 0.65625 -2.8125 C 0.476562 -2.789062 0.332031 -2.863281 0.21875 -3.03125 L 0.203125 -3.09375 L 0.328125 -3.234375 L 0.421875 -3.296875 C 0.609375 -3.335938 0.816406 -3.382812 1.046875 -3.4375 C 1.191406 -3.46875 1.328125 -3.5 1.453125 -3.53125 L 1.484375 -3.796875 C 1.523438 -3.992188 1.546875 -4.160156 1.546875 -4.296875 C 1.609375 -4.367188 1.679688 -4.40625 1.765625 -4.40625 C 1.867188 -4.394531 1.953125 -4.375 2.015625 -4.34375 C 2.097656 -4.238281 2.132812 -4.140625 2.125 -4.046875 L 2.0625 -3.640625 C 2.519531 -3.710938 2.816406 -3.757812 2.953125 -3.78125 L 3.125 -3.71875 C 3.207031 -3.675781 3.25 -3.609375 3.25 -3.515625 C 3.25 -3.398438 3.195312 -3.3125 3.09375 -3.25 C 3 -3.1875 2.851562 -3.164062 2.65625 -3.1875 L 1.953125 -3.046875 C 1.859375 -2.703125 1.796875 -2.445312 1.765625 -2.28125 C 1.734375 -2.101562 1.6875 -1.941406 1.625 -1.796875 C 1.53125 -1.546875 1.460938 -1.375 1.421875 -1.28125 L 1.265625 -1.09375 Z M 5.0625 -2.5625 C 4.832031 -2.644531 4.632812 -2.722656 4.46875 -2.796875 C 4.300781 -2.867188 4.140625 -2.957031 3.984375 -3.0625 L 3.8125 -3.28125 L 3.84375 -3.4375 C 4.039062 -3.476562 4.148438 -3.5 4.171875 -3.5 L 4.5625 -3.328125 L 5.109375 -3.140625 L 5.28125 -3.0625 C 5.363281 -2.96875 5.40625 -2.875 5.40625 -2.78125 C 5.40625 -2.6875 5.34375 -2.628906 5.21875 -2.609375 Z M 2.125 -0.75 C 2.164062 -0.945312 2.242188 -1.113281 2.359375 -1.25 C 2.453125 -1.320312 2.535156 -1.375 2.609375 -1.40625 C 2.691406 -1.445312 2.796875 -1.46875 2.921875 -1.46875 C 2.992188 -1.46875 3.066406 -1.457031 3.140625 -1.4375 L 3.453125 -1.359375 C 3.472656 -1.441406 3.484375 -1.539062 3.484375 -1.65625 C 3.484375 -1.769531 3.46875 -1.957031 3.4375 -2.21875 C 3.53125 -2.320312 3.625 -2.375 3.71875 -2.375 C 3.738281 -2.375 3.757812 -2.375 3.78125 -2.375 L 3.890625 -2.3125 L 3.984375 -2.21875 L 4.03125 -1.828125 C 4.03125 -1.804688 4.03125 -1.773438 4.03125 -1.734375 C 4.03125 -1.578125 4.003906 -1.316406 3.953125 -0.953125 C 4.253906 -0.753906 4.4375 -0.578125 4.5 -0.421875 L 4.609375 -0.25 C 4.617188 -0.21875 4.625 -0.179688 4.625 -0.140625 C 4.625 -0.046875 4.570312 0.00390625 4.46875 0.015625 L 4.25 -0.03125 C 4.113281 -0.144531 3.976562 -0.242188 3.84375 -0.328125 L 3.765625 -0.390625 L 3.578125 -0.09375 C 3.472656 0.101562 3.28125 0.195312 3 0.1875 C 2.75 0.15625 2.535156 0.0625 2.359375 -0.09375 C 2.191406 -0.257812 2.113281 -0.476562 2.125 -0.75 Z M 3.34375 -0.6875 C 3.34375 -0.757812 3.3125 -0.820312 3.25 -0.875 C 3.1875 -0.925781 3.097656 -0.957031 2.984375 -0.96875 C 2.785156 -0.957031 2.664062 -0.847656 2.625 -0.640625 C 2.625 -0.472656 2.734375 -0.351562 2.953125 -0.28125 C 3.085938 -0.289062 3.1875 -0.351562 3.25 -0.46875 C 3.3125 -0.539062 3.34375 -0.613281 3.34375 -0.6875 Z M 3.34375 -0.6875 "/></g></g></g><g fill="#3a2f2e" fill-opacity="1"><g transform="translate(77.547743, 58.627658)"><g><path d="M 5.015625 -2.875 C 4.941406 -2.96875 4.851562 -3.097656 4.75 -3.265625 L 4.71875 -3.453125 C 4.675781 -3.535156 4.65625 -3.628906 4.65625 -3.734375 C 4.65625 -3.796875 4.660156 -3.84375 4.671875 -3.875 C 4.703125 -3.9375 4.789062 -3.960938 4.9375 -3.953125 C 5.050781 -3.835938 5.140625 -3.726562 5.203125 -3.625 L 5.421875 -3.21875 C 5.441406 -3.164062 5.453125 -3.117188 5.453125 -3.078125 C 5.453125 -3.003906 5.425781 -2.941406 5.375 -2.890625 C 5.320312 -2.835938 5.253906 -2.8125 5.171875 -2.8125 Z M 2.765625 0.4375 L 2.640625 0.4375 C 2.109375 -0.144531 1.519531 -0.695312 0.875 -1.21875 L 0.703125 -1.40625 C 0.648438 -1.507812 0.613281 -1.601562 0.59375 -1.6875 L 0.671875 -1.828125 C 0.796875 -1.878906 0.910156 -1.9375 1.015625 -2 C 1.992188 -2.925781 2.5625 -3.503906 2.71875 -3.734375 C 2.8125 -3.828125 2.929688 -3.867188 3.078125 -3.859375 L 3.265625 -3.734375 L 3.28125 -3.53125 C 2.914062 -3.0625 2.550781 -2.671875 2.1875 -2.359375 C 1.789062 -2.003906 1.515625 -1.75 1.359375 -1.59375 C 2.253906 -0.8125 2.78125 -0.300781 2.9375 -0.0625 L 3.0625 0.046875 L 3.15625 0.15625 L 3.15625 0.34375 C 3.0625 0.445312 2.960938 0.5 2.859375 0.5 Z M 4.0625 -2.5625 L 3.859375 -2.90625 C 3.765625 -3.082031 3.6875 -3.253906 3.625 -3.421875 L 3.671875 -3.640625 C 3.742188 -3.691406 3.8125 -3.71875 3.875 -3.71875 C 3.90625 -3.71875 3.953125 -3.707031 4.015625 -3.6875 C 4.210938 -3.425781 4.378906 -3.132812 4.515625 -2.8125 C 4.523438 -2.769531 4.53125 -2.722656 4.53125 -2.671875 C 4.53125 -2.628906 4.523438 -2.582031 4.515625 -2.53125 C 4.472656 -2.445312 4.410156 -2.390625 4.328125 -2.359375 C 4.234375 -2.410156 4.144531 -2.476562 4.0625 -2.5625 Z M 4.0625 -2.5625 "/></g></g></g><g fill="#3a2f2e" fill-opacity="1"><g transform="translate(84.074053, 58.627658)"><g><path d="M 1.71875 -0.390625 C 1.71875 -0.523438 1.75 -0.671875 1.8125 -0.828125 C 1.90625 -0.941406 2.015625 -1.023438 2.140625 -1.078125 C 2.265625 -1.140625 2.394531 -1.171875 2.53125 -1.171875 C 2.632812 -1.171875 2.734375 -1.148438 2.828125 -1.109375 C 2.921875 -1.066406 3 -1.015625 3.0625 -0.953125 C 3.144531 -0.859375 3.1875 -0.710938 3.1875 -0.515625 C 3.1875 -0.484375 3.179688 -0.429688 3.171875 -0.359375 C 3.296875 -0.429688 3.394531 -0.53125 3.46875 -0.65625 C 3.539062 -0.789062 3.578125 -0.929688 3.578125 -1.078125 C 3.578125 -1.160156 3.5625 -1.25 3.53125 -1.34375 C 3.476562 -1.46875 3.363281 -1.570312 3.1875 -1.65625 C 3.007812 -1.738281 2.804688 -1.78125 2.578125 -1.78125 C 2.359375 -1.78125 2.148438 -1.738281 1.953125 -1.65625 L 1.4375 -1.484375 L 1.328125 -1.6875 L 1.3125 -1.84375 C 1.320312 -1.914062 1.351562 -1.976562 1.40625 -2.03125 L 1.5 -2.109375 L 3.28125 -3.609375 L 1.6875 -3.4375 C 1.613281 -3.425781 1.5625 -3.421875 1.53125 -3.421875 C 1.4375 -3.421875 1.34375 -3.4375 1.25 -3.46875 L 1.0625 -3.6875 L 1.015625 -3.84375 L 1.0625 -3.890625 L 1.21875 -3.953125 C 1.351562 -3.992188 2.191406 -4.0625 3.734375 -4.15625 L 4.046875 -4.046875 C 4.066406 -4.003906 4.078125 -3.957031 4.078125 -3.90625 C 4.078125 -3.800781 4.039062 -3.679688 3.96875 -3.546875 C 3.96875 -3.484375 3.539062 -3.085938 2.6875 -2.359375 C 3.09375 -2.316406 3.40625 -2.210938 3.625 -2.046875 C 3.851562 -1.890625 4.007812 -1.707031 4.09375 -1.5 C 4.132812 -1.382812 4.15625 -1.257812 4.15625 -1.125 C 4.15625 -0.96875 4.125 -0.804688 4.0625 -0.640625 C 4.007812 -0.472656 3.929688 -0.328125 3.828125 -0.203125 C 3.660156 0.00390625 3.476562 0.148438 3.28125 0.234375 C 3.082031 0.316406 2.894531 0.359375 2.71875 0.359375 C 2.601562 0.359375 2.460938 0.347656 2.296875 0.328125 C 2.117188 0.265625 1.976562 0.171875 1.875 0.046875 C 1.769531 -0.0664062 1.71875 -0.210938 1.71875 -0.390625 Z M 2.78125 -0.375 C 2.78125 -0.5625 2.691406 -0.660156 2.515625 -0.671875 C 2.316406 -0.648438 2.21875 -0.53125 2.21875 -0.3125 C 2.3125 -0.21875 2.425781 -0.171875 2.5625 -0.171875 C 2.613281 -0.171875 2.65625 -0.175781 2.6875 -0.1875 Z M 2.78125 -0.375 "/></g></g></g><g fill="#3a2f2e" fill-opacity="1"><g transform="translate(90.600364, 58.627658)"><g><path d="M 0.25 -1.578125 L 0.203125 -1.765625 L 0.25 -1.859375 C 0.34375 -1.929688 1.078125 -1.984375 2.453125 -2.015625 L 2.6875 -1.921875 L 2.75 -1.703125 L 2.6875 -1.609375 C 2.550781 -1.535156 1.796875 -1.5 0.421875 -1.5 Z M 0.25 -1.578125 "/></g></g></g></svg>